<svg width="1440" height="830" viewBox="0 0 1440 830" fill="none" xmlns="http://www.w3.org/2000/svg">
    <g opacity="0.04">
        <path opacity="0.0344828" d="M-249.159 282.269C-271.462 273.291 -268.037 240.705 -244.354 236.56L370.047 129.02C383.814 126.61 393.186 113.711 391.223 99.8728L303.639 -517.689C300.263 -541.494 330.196 -554.821 345.627 -536.383L745.96 -58.0664C754.931 -47.3484 770.788 -45.6818 781.79 -54.3005L1272.82 -438.931C1291.75 -453.757 1318.26 -434.498 1310.01 -411.916L1095.94 173.941C1091.14 187.069 1097.63 201.635 1110.59 206.854L1689.21 439.785C1711.51 448.764 1708.09 481.35 1684.4 485.495L1070 593.035C1056.24 595.445 1046.86 608.344 1048.83 622.182L1136.41 1239.74C1139.79 1263.55 1109.85 1276.88 1094.42 1258.44L694.089 780.121C685.119 769.403 669.262 767.737 658.259 776.355L167.227 1160.99C148.299 1175.81 121.792 1156.55 130.043 1133.97L344.111 548.114C348.908 534.986 342.423 520.42 329.457 515.201L-249.159 282.269Z" stroke="#1D1F22" stroke-width="2"/>
        <path opacity="0.0689655" d="M-230.881 233.683C-252.684 223.549 -247.559 191.187 -223.691 188.287L386.524 114.14C400.398 112.454 410.432 100.063 409.197 86.1412L354.853 -526.155C352.727 -550.104 383.316 -561.846 397.761 -542.626L767.082 -51.2381C775.48 -40.0654 791.228 -37.5712 802.666 -45.6021L1305.76 -398.814C1325.44 -412.629 1350.9 -392.009 1341.48 -369.889L1100.58 195.646C1095.11 208.505 1100.82 223.39 1113.49 229.281L1670.93 488.366C1692.73 498.5 1687.61 530.861 1663.74 533.761L1053.53 607.909C1039.65 609.595 1029.62 621.985 1030.85 635.907L1085.2 1248.2C1087.32 1272.15 1056.73 1283.89 1042.29 1264.68L672.967 773.287C664.57 762.114 648.822 759.62 637.383 767.651L134.291 1120.86C114.613 1134.68 89.1499 1114.06 98.572 1091.94L339.466 526.402C344.943 513.544 339.23 498.659 326.555 492.768L-230.881 233.683Z" stroke="#1D1F22" stroke-width="2"/>
        <path opacity="0.103448" d="M-210.21 186.793C-231.452 175.532 -224.64 143.483 -200.654 141.836L403.589 100.346C417.533 99.3882 428.202 87.5396 427.696 73.5719L405.799 -531.698C404.929 -555.725 436.091 -565.85 449.511 -545.901L787.564 -43.356C795.365 -31.759 810.96 -28.4441 822.804 -35.8654L1336.03 -357.464C1356.41 -370.231 1380.76 -348.306 1370.19 -326.71L1104 217.325C1097.86 229.879 1102.78 245.043 1115.13 251.589L1650.26 535.26C1671.5 546.521 1664.69 578.57 1640.71 580.217L1036.46 621.707C1022.52 622.665 1011.85 634.514 1012.36 648.481L1034.25 1253.75C1035.12 1277.78 1003.96 1287.9 990.541 1267.95L652.488 765.409C644.687 753.812 629.091 750.497 617.248 757.918L104.017 1079.52C83.644 1092.28 59.2946 1070.36 69.8615 1048.76L336.051 504.728C342.194 492.174 337.267 477.01 324.918 470.464L-210.21 186.793Z" stroke="#1D1F22" stroke-width="2"/>
        <path opacity="0.137931" d="M-187.271 141.707C-207.895 129.35 -199.415 97.701 -175.375 97.3116L421.174 87.6482C435.149 87.4219 446.423 76.1478 446.65 62.1728L456.313 -534.377C456.703 -558.416 488.351 -566.896 500.708 -546.272L807.352 -34.477C814.535 -22.4877 829.936 -18.361 842.152 -25.1524L1363.61 -315.058C1384.62 -326.741 1407.79 -303.572 1396.11 -282.559L1106.2 238.9C1099.41 251.116 1103.54 266.517 1115.53 273.7L1627.32 580.343C1647.95 592.701 1639.47 624.349 1615.43 624.739L1018.88 634.402C1004.9 634.628 993.63 645.903 993.404 659.877L983.74 1256.43C983.351 1280.47 951.702 1288.95 939.345 1268.32L632.701 756.527C625.518 744.538 610.117 740.411 597.901 747.203L76.4428 1037.11C55.4291 1048.79 32.2607 1025.62 43.9432 1004.61L333.849 483.15C340.641 470.935 336.514 455.534 324.525 448.35L-187.271 141.707Z" stroke="#1D1F22" stroke-width="2"/>
        <path opacity="0.172414" d="M-162.2 98.5373C-182.149 85.1177 -172.024 53.9561 -147.997 54.8253L439.208 76.0693C453.176 76.5747 465.025 65.9061 465.982 51.9622L506.234 -534.247C507.881 -558.233 539.93 -565.046 551.191 -543.803L826.396 -24.6461C832.942 -12.2973 848.106 -7.37026 860.66 -13.5129L1388.46 -271.758C1410.05 -282.325 1431.98 -257.976 1419.21 -237.602L1107.21 260.31C1099.79 272.154 1103.11 287.75 1114.7 295.551L1602.25 623.515C1622.2 636.934 1612.07 668.096 1588.05 667.227L1000.84 645.982C986.873 645.477 975.024 656.146 974.067 670.09L933.815 1256.3C932.168 1280.29 900.118 1287.1 888.858 1265.85L613.653 746.698C607.107 734.349 591.943 729.422 579.388 735.565L51.5903 993.81C29.9939 1004.38 8.06968 980.028 20.836 959.654L332.837 461.741C340.258 449.898 336.943 434.302 325.346 426.501L-162.2 98.5373Z" stroke="#1D1F22" stroke-width="2"/>
        <path opacity="0.206897" d="M-135.127 57.3795C-154.347 42.9344 -142.605 12.3454 -118.656 14.4709L457.63 65.6188C471.552 66.8545 483.943 56.8206 485.629 42.9459L555.415 -531.381C558.316 -555.249 590.677 -560.374 600.811 -538.571L844.659 -13.9187C850.55 -1.2441 865.435 4.46961 878.293 -1.0076L1410.57 -227.735C1432.69 -237.157 1453.31 -211.693 1439.49 -192.016L1107.05 281.489C1099.02 292.928 1101.52 308.676 1112.69 317.073L1575.18 664.674C1594.4 679.119 1582.66 709.708 1558.71 707.582L982.422 656.434C968.5 655.199 956.109 665.233 954.423 679.107L884.637 1253.43C881.737 1277.3 849.375 1282.43 839.241 1260.62L595.393 735.972C589.503 723.297 574.618 717.583 561.759 723.061L29.4835 949.788C7.36379 959.21 -13.256 933.746 0.559134 914.069L332.998 440.564C341.029 429.125 338.534 413.377 327.362 404.98L-135.127 57.3795Z" stroke="#1D1F22" stroke-width="2"/>
        <path opacity="0.241379" d="M-106.201 18.3215C-124.638 2.89024 -111.311 -27.0423 -87.5066 -23.6663L476.365 56.3028C490.203 58.2654 503.102 48.8938 505.511 35.1263L603.702 -525.859C607.847 -549.542 640.433 -552.966 649.412 -530.663L862.092 -2.35172C867.311 10.6137 881.877 17.0988 895.005 12.302L1429.93 -183.155C1452.51 -191.407 1471.77 -164.899 1456.94 -145.971L1105.75 302.371C1097.13 313.374 1098.8 329.23 1109.52 338.201L1546.25 703.729C1564.69 719.16 1551.36 749.093 1527.56 745.717L963.685 665.748C949.846 663.785 936.947 673.157 934.538 686.924L836.347 1247.91C832.202 1271.59 799.616 1275.02 790.637 1252.71L577.957 724.402C572.738 711.437 558.172 704.952 545.044 709.749L10.1218 905.206C-12.4608 913.457 -31.7197 886.949 -16.8937 868.022L334.297 419.68C342.916 408.677 341.249 392.82 330.531 383.85L-106.201 18.3215Z" stroke="#1D1F22" stroke-width="2"/>
        <path opacity="0.275862" d="M-75.5598 -18.5538C-93.1642 -34.9288 -78.289 -64.1228 -54.6937 -59.5056L495.35 48.129C509.066 50.8132 522.438 42.1295 525.565 28.507L650.959 -517.762C656.338 -541.195 689.058 -542.91 696.857 -520.167L878.664 10.0018C883.198 23.2227 897.404 30.4611 910.765 26.358L1446.54 -138.182C1469.53 -145.241 1487.37 -117.761 1471.58 -99.6357L1103.34 322.898C1094.16 333.435 1094.99 349.358 1105.23 358.877L1515.61 740.605C1533.22 756.98 1518.34 786.174 1494.75 781.557L944.703 673.922C930.986 671.238 917.614 679.922 914.487 693.544L789.094 1239.81C783.715 1263.25 750.994 1264.96 743.195 1242.22L561.388 712.05C556.854 698.829 542.648 691.59 529.287 695.693L-6.49225 860.234C-29.4756 867.292 -47.3209 839.813 -31.5245 821.687L336.711 399.153C345.894 388.616 345.06 372.694 334.826 363.175L-75.5598 -18.5538Z" stroke="#1D1F22" stroke-width="2"/>
        <path opacity="0.310345" d="M-43.3576 -53.1773C-60.0809 -70.4513 -43.6983 -98.8269 -20.377 -92.9811L514.513 41.0955C528.07 44.4939 541.878 36.5219 545.713 23.0818L697.044 -507.185C703.643 -530.304 736.408 -530.304 743.006 -507.185L894.337 23.0818C898.172 36.5218 911.98 44.4939 925.538 41.0956L1460.43 -92.9811C1483.75 -98.827 1500.13 -70.4514 1483.41 -53.1774L1099.85 343.012C1090.13 353.054 1090.13 368.998 1099.85 379.04L1483.41 775.23C1500.13 792.503 1483.75 820.879 1460.43 815.033L925.538 680.957C911.98 677.558 898.172 685.53 894.337 698.97L743.006 1229.24C736.408 1252.36 703.643 1252.36 697.044 1229.24L545.713 698.97C541.878 685.53 528.07 677.558 514.513 680.957L-20.3769 815.033C-43.6983 820.879 -60.081 792.503 -43.3577 775.23L340.201 379.04C349.923 368.998 349.923 353.054 340.201 343.012L-43.3576 -53.1773Z" stroke="#1D1F22" stroke-width="2"/>
        <path opacity="0.344828" d="M-9.74199 -85.4876C-25.5383 -103.613 -7.69303 -131.092 15.2904 -124.034L533.79 35.1995C547.151 39.3027 561.357 32.0643 565.891 18.8433L741.835 -494.227C749.634 -516.97 782.354 -515.255 787.733 -491.822L909.083 36.8293C912.21 50.4516 925.582 59.1354 939.298 56.4514L1471.6 -47.712C1495.2 -52.3292 1510.07 -23.1352 1492.47 -6.76009L1095.32 362.657C1085.08 372.176 1084.25 388.099 1093.43 398.635L1449.79 807.542C1465.59 825.668 1447.74 853.147 1424.76 846.089L906.26 686.855C892.899 682.752 878.693 689.991 874.159 703.211L698.215 1216.28C690.416 1239.02 657.696 1237.31 652.317 1213.88L530.967 685.225C527.841 671.603 514.469 662.919 500.752 665.603L-31.5517 769.767C-55.147 774.384 -70.0222 745.19 -52.4178 728.815L344.732 359.398C354.966 349.878 355.801 333.956 346.618 323.419L-9.74199 -85.4876Z" stroke="#1D1F22" stroke-width="2"/>
        <path opacity="0.37931" d="M25.1332 -115.436C10.3071 -134.364 29.566 -160.871 52.1485 -152.62L553.115 30.4299C566.243 35.2267 580.808 28.7418 586.028 15.7762L785.207 -478.998C794.186 -501.302 826.772 -497.877 830.917 -474.194L922.875 51.1802C925.284 64.9475 938.183 74.3192 952.022 72.3567L1480.1 -2.53604C1503.9 -5.91212 1517.23 24.0205 1498.79 39.4518L1089.78 381.776C1079.07 390.747 1077.4 406.604 1086.02 417.607L1414.92 837.489C1429.74 856.416 1410.48 882.924 1387.9 874.672L886.934 691.623C873.806 686.826 859.241 693.311 854.021 706.276L654.842 1201.05C645.863 1223.35 613.277 1219.93 609.132 1196.25L517.174 670.872C514.765 657.105 501.866 647.733 488.028 649.696L-40.0497 724.589C-63.8543 727.965 -77.1813 698.032 -58.7439 682.601L350.265 340.276C360.983 331.305 362.65 315.449 354.031 304.446L25.1332 -115.436Z" stroke="#1D1F22" stroke-width="2"/>
        <path opacity="0.413793" d="M61.1159 -142.976C47.3007 -162.654 67.9206 -188.117 90.0403 -178.695L572.425 26.7805C585.284 32.2578 600.169 26.544 606.06 13.8694L827.052 -461.607C837.185 -483.41 869.547 -478.284 872.447 -454.417L935.692 66.0781C937.378 79.9527 949.769 89.9866 963.691 88.751L1485.96 42.3972C1509.91 40.2717 1521.65 70.8606 1502.43 85.3059L1083.29 400.326C1072.12 408.723 1069.63 424.471 1077.66 435.91L1378.94 865.032C1392.75 884.71 1372.13 910.173 1350.01 900.751L867.627 695.276C854.769 689.798 839.883 695.512 833.992 708.187L613.001 1183.66C602.867 1205.47 570.505 1200.34 567.605 1176.47L504.36 655.978C502.674 642.103 490.283 632.069 476.361 633.305L-45.9096 679.659C-69.8583 681.784 -81.6003 651.195 -62.3806 636.75L356.759 321.731C367.932 313.333 370.426 297.585 362.395 286.146L61.1159 -142.976Z" stroke="#1D1F22" stroke-width="2"/>
        <path opacity="0.448276" d="M98.0477 -168.081C85.2813 -188.455 107.206 -212.804 128.802 -202.237L591.654 24.2306C604.208 30.3734 619.372 25.4465 625.918 13.0975L867.258 -442.176C878.519 -463.419 910.568 -456.607 912.215 -432.62L947.514 81.4551C948.472 95.3989 960.32 106.067 974.288 105.562L1489.24 86.9323C1513.26 86.0629 1523.39 117.224 1503.44 130.644L1075.89 418.252C1064.29 426.053 1060.97 441.648 1068.4 453.492L1342 890.136C1354.77 910.509 1332.85 934.858 1311.25 924.292L848.399 697.824C835.844 691.681 820.681 696.608 814.135 708.957L572.794 1164.23C561.533 1185.47 529.484 1178.66 527.837 1154.67L492.538 640.599C491.581 626.655 479.732 615.987 465.764 616.492L-49.1844 635.122C-73.2115 635.991 -83.3365 604.83 -63.3872 591.41L364.166 303.803C375.763 296.002 379.077 280.406 371.656 268.563L98.0477 -168.081Z" stroke="#1D1F22" stroke-width="2"/>
        <path opacity="0.482759" d="M135.775 -190.725C124.092 -211.738 147.261 -234.907 168.274 -223.224L610.74 22.7654C622.956 29.5568 638.356 25.4303 645.54 13.4408L905.732 -420.825C918.089 -441.45 949.738 -432.969 950.127 -408.93L958.326 97.2518C958.553 111.227 969.827 122.501 983.802 122.727L1489.98 130.927C1514.02 131.316 1522.5 162.965 1501.88 175.322L1067.61 435.514C1055.62 442.697 1051.5 458.098 1058.29 470.314L1304.28 912.779C1315.96 933.793 1292.79 956.962 1271.78 945.279L829.312 699.289C817.097 692.498 801.696 696.625 794.512 708.614L534.321 1142.88C521.964 1163.5 490.315 1155.02 489.926 1130.98L481.726 624.803C481.5 610.828 470.225 599.554 456.251 599.328L-49.9307 591.128C-73.9704 590.739 -82.4507 559.09 -61.8264 546.733L372.44 286.541C384.429 279.358 388.556 263.957 381.764 251.741L135.775 -190.725Z" stroke="#1D1F22" stroke-width="2"/>
        <path opacity="0.517241" d="M174.141 -210.895C163.574 -232.491 187.924 -254.415 208.297 -241.649L629.624 22.3612C641.467 29.7826 657.063 26.4677 664.864 14.8706L942.382 -397.684C955.802 -417.633 986.963 -407.508 986.094 -383.481L968.118 113.404C967.612 127.371 978.281 139.22 992.225 140.177L1488.27 174.238C1512.25 175.885 1519.07 207.934 1497.82 219.195L1058.52 452.069C1046.17 458.616 1041.24 473.779 1047.39 486.334L1265.91 932.949C1276.48 954.545 1252.13 976.469 1231.75 963.703L810.427 699.693C798.584 692.271 782.988 695.586 775.187 707.183L497.669 1119.74C484.249 1139.69 453.088 1129.56 453.957 1105.53L471.933 608.65C472.439 594.683 461.77 582.834 447.826 581.876L-48.2157 547.816C-72.2021 546.169 -79.0143 514.119 -57.7715 502.859L381.531 269.984C393.88 263.438 398.807 248.275 392.665 235.72L174.141 -210.895Z" stroke="#1D1F22" stroke-width="2"/>
        <path opacity="0.551724" d="M212.994 -228.591C203.572 -250.711 229.036 -271.331 248.713 -257.516L648.248 22.9899C659.687 31.0209 675.435 28.5268 683.832 17.3539L977.131 -372.886C991.577 -392.106 1022.17 -380.364 1020.04 -356.415L976.882 129.845C975.647 143.767 985.681 156.158 999.555 157.844L1484.16 216.729C1508.03 219.629 1513.16 251.991 1491.35 262.124L1048.66 467.879C1035.99 473.77 1030.27 488.655 1035.75 501.513L1227.06 950.638C1236.48 972.758 1211.02 993.377 1191.34 979.562L791.803 699.056C780.364 691.025 764.617 693.52 756.219 704.692L462.92 1094.93C448.475 1114.15 417.886 1102.41 420.011 1078.46L463.169 592.201C464.405 578.279 454.371 565.888 440.496 564.202L-44.1112 505.318C-67.9785 502.418 -73.1041 470.056 -51.3012 459.922L391.391 254.168C404.066 248.277 409.78 233.392 404.303 220.533L212.994 -228.591Z" stroke="#1D1F22" stroke-width="2"/>
        <path opacity="0.586207" d="M252.18 -243.808C243.929 -266.391 270.436 -285.649 289.364 -270.823L666.555 24.6347C677.558 33.2534 693.415 31.5868 702.386 20.8687L1009.91 -346.555C1025.34 -364.993 1055.27 -351.666 1051.89 -327.861L984.615 146.525C982.653 160.364 992.024 173.263 1005.79 175.672L1477.75 258.28C1501.43 262.426 1504.86 295.011 1482.55 303.99L1038.08 482.919C1025.12 488.138 1018.63 502.704 1023.43 515.831L1187.87 965.864C1196.12 988.446 1169.61 1007.71 1150.69 992.879L773.494 697.421C762.491 688.802 746.635 690.469 737.664 701.187L430.144 1068.61C414.713 1087.05 384.78 1073.72 388.156 1049.92L455.435 575.53C457.397 561.692 448.025 548.793 434.258 546.383L-37.7008 463.775C-61.3836 459.63 -64.8085 427.044 -42.505 418.066L401.965 239.137C414.931 233.918 421.416 219.352 416.619 206.224L252.18 -243.808Z" stroke="#1D1F22" stroke-width="2"/>
        <path opacity="0.62069" d="M291.55 -256.575C284.492 -279.558 311.971 -297.403 330.096 -281.607L684.495 27.2487C695.031 36.4315 710.954 35.597 720.473 25.3632L1040.65 -318.845C1057.02 -336.45 1086.21 -321.575 1081.6 -297.979L991.319 163.366C988.635 177.083 997.319 190.455 1010.94 193.582L1469.12 298.755C1492.55 304.134 1494.27 336.854 1471.53 344.653L1026.85 497.143C1013.63 501.677 1006.39 515.883 1010.49 529.244L1148.5 978.626C1155.56 1001.61 1128.08 1019.45 1109.95 1003.66L755.557 694.802C745.02 685.62 729.098 686.454 719.578 696.688L399.406 1040.9C383.031 1058.5 353.837 1043.63 358.454 1020.03L448.732 558.685C451.416 544.968 442.732 531.596 429.11 528.469L-29.0697 423.296C-52.5031 417.917 -54.218 385.197 -31.4752 377.398L413.201 224.908C426.422 220.374 433.66 206.168 429.557 192.807L291.55 -256.575Z" stroke="#1D1F22" stroke-width="2"/>
        <path opacity="0.655172" d="M330.954 -266.907C325.108 -290.229 353.483 -306.611 370.757 -289.888L702.012 30.8059C712.054 40.5275 727.998 40.5275 738.04 30.8058L1069.29 -289.888C1086.57 -306.611 1114.94 -290.229 1109.1 -266.907L996.996 180.315C993.598 193.872 1001.57 207.68 1015.01 211.515L1458.37 338.043C1481.49 344.642 1481.49 377.407 1458.37 384.005L1015.01 510.533C1001.57 514.368 993.598 528.177 996.996 541.734L1109.1 988.956C1114.94 1012.28 1086.57 1028.66 1069.29 1011.94L738.04 691.242C727.998 681.521 712.054 681.521 702.012 691.242L370.757 1011.94C353.483 1028.66 325.108 1012.28 330.954 988.956L443.055 541.734C446.453 528.176 438.481 514.369 425.041 510.533L-18.315 384.005C-41.4348 377.407 -41.4348 344.642 -18.315 338.043L425.041 211.515C438.481 207.68 446.453 193.872 443.055 180.315L330.954 -266.907Z" stroke="#1D1F22" stroke-width="2"/>
        <path opacity="0.689655" d="M370.246 -274.861C365.629 -298.456 394.823 -313.332 411.198 -295.727L719.059 35.2461C728.579 45.4799 744.501 46.3144 755.038 37.1316L1095.81 -259.848C1113.93 -275.644 1141.41 -257.799 1134.36 -234.816L1001.65 197.287C997.551 210.647 1004.79 224.854 1018.01 229.387L1445.59 376.014C1468.33 383.813 1466.62 416.533 1443.18 421.912L1002.62 523.041C988.999 526.168 980.315 539.54 982.999 553.256L1069.81 996.863C1074.42 1020.46 1045.23 1035.33 1028.85 1017.73L720.992 686.756C711.473 676.522 695.551 675.687 685.014 684.87L344.243 981.85C326.118 997.646 298.638 979.801 305.697 956.817L438.397 524.715C442.5 511.354 435.262 497.148 422.041 492.614L-5.53642 345.988C-28.2792 338.189 -26.5644 305.469 -3.13099 300.09L437.431 198.96C451.053 195.833 459.737 182.462 457.053 168.745L370.246 -274.861Z" stroke="#1D1F22" stroke-width="2"/>
        <path opacity="0.724138" d="M409.285 -280.433C405.909 -304.237 435.841 -317.564 451.273 -299.127L735.59 40.5743C744.56 51.2923 760.417 52.9589 771.42 44.3401L1120.15 -228.825C1139.08 -243.651 1165.59 -224.392 1157.33 -201.809L1005.3 214.267C1000.51 227.394 1006.99 241.96 1019.96 247.18L1430.89 412.608C1453.19 421.586 1449.77 454.172 1426.09 458.317L989.739 534.692C975.971 537.102 966.6 550.001 968.562 563.839L1030.76 1002.43C1034.14 1026.24 1004.21 1039.56 988.776 1021.13L704.459 681.425C695.489 670.707 679.632 669.041 668.629 677.659L319.898 950.824C300.97 965.65 274.463 946.391 282.714 923.809L434.745 507.733C439.542 494.605 433.057 480.039 420.092 474.82L9.15803 309.392C-13.1454 300.413 -9.72051 267.828 13.9623 263.682L450.31 187.307C464.078 184.898 473.449 171.999 471.487 158.16L409.285 -280.433Z" stroke="#1D1F22" stroke-width="2"/>
        <path opacity="0.758621" d="M447.935 -283.688C445.81 -307.637 476.399 -319.379 490.844 -300.159L751.562 46.7316C759.96 57.9044 775.707 60.3985 787.146 52.3674L1142.3 -196.979C1161.98 -210.794 1187.44 -190.174 1178.02 -168.054L1007.96 231.18C1002.48 244.039 1008.2 258.924 1020.87 264.815L1414.39 447.713C1436.19 457.847 1431.07 490.209 1407.2 493.109L976.424 545.452C962.549 547.138 952.515 559.529 953.751 573.451L992.115 1005.7C994.24 1029.64 963.651 1041.39 949.206 1022.17L688.487 675.276C680.09 664.103 664.342 661.609 652.903 669.64L297.75 918.986C278.073 932.801 252.61 912.182 262.032 890.062L432.088 490.828C437.566 477.969 431.852 463.084 419.177 457.193L25.6606 274.294C3.85766 264.161 8.98328 231.799 32.8506 228.899L463.626 176.555C477.501 174.869 487.534 162.479 486.299 148.557L447.935 -283.688Z" stroke="#1D1F22" stroke-width="2"/>
        <path opacity="0.793103" d="M486.064 -284.696C485.194 -308.724 516.356 -318.849 529.776 -298.899L766.937 53.6617C774.738 65.2586 790.334 68.5736 802.178 61.1522L1162.23 -164.466C1182.61 -177.232 1206.96 -155.308 1196.39 -133.712L1009.65 247.957C1003.5 260.511 1008.43 275.675 1020.78 282.221L1396.2 481.231C1417.44 492.492 1410.63 524.541 1386.64 526.188L962.734 555.296C948.791 556.253 938.122 568.102 938.627 582.069L953.99 1006.7C954.859 1030.72 923.697 1040.85 910.278 1020.9L673.116 668.339C665.315 656.742 649.719 653.427 637.876 660.849L277.818 886.467C257.445 899.233 233.095 877.309 243.662 855.713L430.408 474.044C436.551 461.49 431.624 446.326 419.275 439.78L43.8552 240.77C22.6124 229.509 29.4247 197.46 53.4111 195.813L477.319 166.705C491.263 165.748 501.931 153.899 501.426 139.932L486.064 -284.696Z" stroke="#1D1F22" stroke-width="2"/>
        <path opacity="0.827586" d="M523.537 -283.51C523.926 -307.549 555.575 -316.03 567.932 -295.405L781.672 61.3316C788.856 73.3209 804.257 77.4475 816.472 70.6562L1179.94 -131.417C1200.96 -143.1 1224.13 -119.931 1212.44 -98.9176L1010.37 264.555C1003.58 276.771 1007.71 292.172 1019.7 299.355L1376.43 513.095C1397.06 525.452 1388.58 557.101 1364.54 557.49L948.724 564.226C934.749 564.452 923.475 575.727 923.249 589.701L916.513 1005.51C916.123 1029.55 884.475 1038.03 872.118 1017.41L658.378 660.673C651.194 648.684 635.793 644.557 623.578 651.349L260.105 853.422C239.091 865.105 215.923 841.936 227.605 820.922L429.679 457.45C436.47 445.234 432.343 429.833 420.354 422.65L63.617 208.91C42.9927 196.553 51.473 164.904 75.5127 164.515L491.326 157.779C505.301 157.552 516.575 146.278 516.801 132.304L523.537 -283.51Z" stroke="#1D1F22" stroke-width="2"/>
        <path opacity="0.862069" d="M560.238 -280.205C561.885 -304.191 593.934 -311.004 605.195 -289.761L795.739 69.6881C802.285 82.037 817.449 86.964 830.003 80.8213L1195.44 -97.9803C1217.03 -108.547 1238.96 -84.1978 1226.19 -63.8243L1010.17 280.916C1002.75 292.759 1006.06 308.355 1017.66 316.156L1355.22 543.229C1375.17 556.648 1365.05 587.81 1341.02 586.941L934.456 572.232C920.488 571.727 908.639 582.395 907.682 596.339L879.813 1002.21C878.165 1026.2 846.116 1033.01 834.856 1011.77L644.312 652.32C637.766 639.971 622.602 635.044 610.047 641.187L244.616 819.989C223.019 830.555 201.095 806.206 213.861 785.833L429.881 441.092C437.303 429.249 433.988 413.653 422.391 405.852L84.8283 178.779C64.879 165.36 75.004 134.198 99.0311 135.068L505.595 149.776C519.562 150.282 531.411 139.613 532.369 125.669L560.238 -280.205Z" stroke="#1D1F22" stroke-width="2"/>
        <path opacity="0.896552" d="M596.047 -274.865C598.947 -298.732 631.309 -303.858 641.442 -282.055L809.103 78.6781C814.994 91.3526 829.879 97.0665 842.738 91.5892L1208.71 -64.3002C1230.83 -73.7223 1251.45 -48.2589 1237.64 -28.5815L1009.06 296.984C1001.03 308.423 1003.53 324.17 1014.7 332.568L1332.69 571.566C1351.91 586.011 1340.17 616.6 1316.22 614.474L919.985 579.307C906.063 578.071 893.672 588.105 891.986 601.98L844.004 996.867C841.103 1020.73 808.742 1025.86 798.608 1004.06L630.947 643.324C625.056 630.65 610.171 624.936 597.312 630.413L231.338 786.303C209.219 795.725 188.599 770.261 202.414 750.584L430.987 425.019C439.018 413.58 436.524 397.832 425.351 389.435L107.36 150.437C88.1404 135.992 99.8823 105.403 123.831 107.528L520.065 142.696C533.987 143.931 546.378 133.897 548.064 120.023L596.047 -274.865Z" stroke="#1D1F22" stroke-width="2"/>
        <path opacity="0.931035" d="M630.852 -267.564C634.998 -291.247 667.583 -294.672 676.562 -272.369L821.739 88.2602C826.959 101.226 841.524 107.711 854.652 102.914L1219.79 -30.5064C1242.38 -38.7579 1261.64 -12.2502 1246.81 6.67717L1007.08 312.719C998.465 323.721 1000.13 339.578 1010.85 348.549L1308.97 598.061C1327.4 613.492 1314.08 643.425 1290.27 640.048L905.37 585.461C891.532 583.498 878.632 592.87 876.223 606.638L809.197 989.57C805.052 1013.25 772.466 1016.68 763.488 994.374L618.311 633.745C613.091 620.78 598.525 614.295 585.398 619.091L220.256 752.512C197.673 760.763 178.414 734.256 193.24 715.328L432.966 409.287C441.584 398.284 439.918 382.427 429.2 373.457L131.084 123.945C112.646 108.513 125.973 78.5808 149.778 81.9568L534.68 136.544C548.518 138.507 561.417 129.135 563.827 115.368L630.852 -267.564Z" stroke="#1D1F22" stroke-width="2"/>
        <path opacity="0.965517" d="M664.551 -258.4C669.93 -281.834 702.65 -283.548 710.449 -260.806L833.622 98.3778C838.155 111.599 852.362 118.837 865.722 114.734L1228.71 3.25981C1251.69 -3.79852 1269.54 23.6807 1253.74 41.8063L1004.26 328.068C995.081 338.605 995.915 354.527 1006.15 364.047L1284.18 622.663C1301.79 639.038 1286.91 668.232 1263.31 663.615L890.666 590.694C876.95 588.01 863.578 596.694 860.451 610.316L775.498 980.407C770.119 1003.84 737.399 1005.55 729.6 982.812L606.428 623.629C601.894 610.408 587.688 603.169 574.327 607.273L211.342 718.747C188.359 725.805 170.514 698.326 186.31 680.2L435.786 393.938C444.969 383.401 444.134 367.479 433.9 357.96L155.869 99.3432C138.264 82.9681 153.139 53.7741 176.735 58.3914L549.383 131.313C563.099 133.997 576.471 125.313 579.598 111.691L664.551 -258.4Z" stroke="#1D1F22" stroke-width="2"/>
        <path d="M697.046 -247.468C703.644 -270.588 736.409 -270.588 743.007 -247.468L844.732 108.978C848.568 122.418 862.376 130.39 875.933 126.992L1235.49 36.8655C1258.81 31.0197 1275.19 59.3952 1258.47 76.6692L1000.64 342.989C990.917 353.031 990.917 368.975 1000.64 379.017L1258.47 645.336C1275.19 662.61 1258.81 690.986 1235.49 685.14L875.933 595.013C862.376 591.615 848.568 599.587 844.732 613.027L743.007 969.474C736.409 992.593 703.644 992.593 697.045 969.474L595.32 613.027C591.485 599.587 577.677 591.615 564.12 595.013L204.565 685.14C181.244 690.986 164.861 662.61 181.585 645.336L439.414 379.017C449.135 368.975 449.135 353.031 439.414 342.989L181.585 76.6692C164.861 59.3952 181.244 31.0197 204.565 36.8655L564.12 126.992C577.677 130.39 591.485 122.418 595.32 108.978L697.046 -247.468Z" stroke="#1D1F22" stroke-width="2"/>
    </g>
</svg>
