<svg width="90" height="40" viewBox="0 0 90 40" fill="none" xmlns="http://www.w3.org/2000/svg">
<mask id="mask0_111_10210" style="mask-type:luminance" maskUnits="userSpaceOnUse" x="47" y="11" width="6" height="13">
<path d="M52.7801 11.209H47.7656V23.4208L52.7801 17.3477V11.209Z" fill="white"/>
</mask>
<g mask="url(#mask0_111_10210)">
<path d="M89.5 0H0.5V27.7427H89.5V0Z" fill="url(#paint0_linear_111_10210)"/>
</g>
<mask id="mask1_111_10210" style="mask-type:luminance" maskUnits="userSpaceOnUse" x="44" y="5" width="19" height="6">
<path d="M48.2288 5.2207L44.1094 10.174H58.7054L62.7943 5.2207H48.2288Z" fill="white"/>
</mask>
<g mask="url(#mask1_111_10210)">
<path d="M89.5 0H0.5V27.7427H89.5V0Z" fill="url(#paint1_linear_111_10210)"/>
</g>
<mask id="mask2_111_10210" style="mask-type:luminance" maskUnits="userSpaceOnUse" x="60" y="5" width="28" height="22">
<path d="M73.885 9.15513C73.7121 8.93823 73.5239 8.73142 73.3358 8.52966C72.161 7.28375 70.7217 6.35563 69.135 5.80582C68.0263 5.42247 66.8464 5.2207 65.636 5.2207H64.1917L60.0977 10.174H65.636C67.3397 10.174 68.6467 10.9307 69.7097 12.2472L69.8775 12.459L81.5492 26.5221H87.9928L73.885 9.15513Z" fill="white"/>
</mask>
<g mask="url(#mask2_111_10210)">
<path d="M89.5 0H0.5V27.7427H89.5V0Z" fill="url(#paint2_linear_111_10210)"/>
</g>
<mask id="mask3_111_10210" style="mask-type:luminance" maskUnits="userSpaceOnUse" x="46" y="11" width="32" height="16">
<path d="M74.3684 19.4208L72.9749 17.7815H60.3979L64.675 12.5205L64.5072 12.3086C64.5072 12.3086 64.497 12.2935 64.4919 12.2884C63.9478 11.6075 63.1239 11.209 62.2542 11.209H59.2536L46.6055 26.523H53.3593L56.3955 22.755H77.1299L74.3786 19.4208H74.3684Z" fill="white"/>
</mask>
<g mask="url(#mask3_111_10210)">
<path d="M89.5 0H0.5V27.7427H89.5V0Z" fill="url(#paint3_linear_111_10210)"/>
</g>
<mask id="mask4_111_10210" style="mask-type:luminance" maskUnits="userSpaceOnUse" x="36" y="11" width="6" height="13">
<path d="M36.7109 11.209H41.7255V23.4208L36.7109 17.3477V11.209Z" fill="white"/>
</mask>
<g mask="url(#mask4_111_10210)">
<path d="M89.5 0H0.5V27.7427H89.5V0Z" fill="url(#paint4_linear_111_10210)"/>
</g>
<mask id="mask5_111_10210" style="mask-type:luminance" maskUnits="userSpaceOnUse" x="26" y="5" width="21" height="6">
<path d="M46.841 5.2207L42.6656 10.174H30.7854L26.6914 5.2207H46.841Z" fill="white"/>
</mask>
<g mask="url(#mask5_111_10210)">
<path d="M89.5 0H0.5V27.7427H89.5V0Z" fill="url(#paint5_linear_111_10210)"/>
</g>
<mask id="mask6_111_10210" style="mask-type:luminance" maskUnits="userSpaceOnUse" x="1" y="5" width="29" height="22">
<path d="M15.6039 9.15513C15.7768 8.93823 15.9649 8.73142 16.1531 8.52966C17.3279 7.28375 18.7672 6.35563 20.3539 5.80582C21.4626 5.42247 22.6425 5.2207 23.8529 5.2207H25.2972L29.3912 10.174H23.8987H23.8529C22.1492 10.174 20.8421 10.9307 19.7792 12.2472L19.6114 12.459L7.93969 26.5221H1.49609L15.6039 9.15513Z" fill="white"/>
</mask>
<g mask="url(#mask6_111_10210)">
<path d="M89.5 0H0.5V27.7427H89.5V0Z" fill="url(#paint6_linear_111_10210)"/>
</g>
<mask id="mask7_111_10210" style="mask-type:luminance" maskUnits="userSpaceOnUse" x="12" y="11" width="31" height="16">
<path d="M15.1197 19.4208L16.5132 17.7815H29.0902L24.8131 12.5205L24.9809 12.3086C24.9809 12.3086 24.9911 12.2935 24.9962 12.2884C25.5404 11.6075 26.3643 11.209 27.2339 11.209H30.2345L42.8826 26.523H36.1288L33.0926 22.755H12.3633L15.1147 19.4208H15.1197Z" fill="white"/>
</mask>
<g mask="url(#mask7_111_10210)">
<path d="M89.5 0H0.5V27.7427H89.5V0Z" fill="url(#paint7_linear_111_10210)"/>
</g>
<path d="M4.05567 39.4142H2.72321L2.49944 39.9691H1.82812L3.07413 37.1191H3.74544L4.9711 39.9691H4.27944L4.05567 39.4142ZM3.84715 38.8997L3.39453 37.79L2.93681 38.8997H3.84207H3.84715Z" fill="#243770"/>
<path d="M5.92831 37.1191V39.4092H7.15906V39.9691H5.27734V37.1191H5.92831Z" fill="#243770"/>
<path d="M8.13409 37.1191L9.52758 38.9502V37.1191H10.1429V39.9691H9.553L8.15952 38.1431V39.9691H7.53906V37.1191H8.12901H8.13409Z" fill="#243770"/>
<path d="M12.6768 39.4142H11.3443L11.1205 39.9691H10.4492L11.6952 37.1191H12.3665L13.5922 39.9691H12.9005L12.6768 39.4142ZM12.4682 38.8997L12.0156 37.79L11.5579 38.8997H12.4632H12.4682Z" fill="#243770"/>
<path d="M14.8792 37.6388C14.6605 37.6388 14.513 37.7145 14.513 37.8709C14.513 38.3955 16.0438 38.1029 16.0387 39.1269C16.0387 39.6868 15.5505 39.9844 14.9148 39.9844C14.4418 39.9844 13.9688 39.8028 13.6484 39.5304L13.9078 39.0058C14.2028 39.2681 14.6198 39.4346 14.925 39.4346C15.1894 39.4346 15.3522 39.3387 15.3522 39.1622C15.3522 38.6224 13.8214 38.9402 13.8214 37.9264C13.8214 37.4068 14.2689 37.084 14.9351 37.084C15.3369 37.084 15.7387 37.205 16.0286 37.3917L15.7794 37.9264C15.4742 37.7448 15.1131 37.6338 14.8843 37.6338L14.8792 37.6388Z" fill="#243770"/>
<path d="M18.262 39.9691L17.8043 39.157H17.1432V39.9691H16.4922V37.1191H17.7382C18.4909 37.1191 18.9181 37.4773 18.9181 38.1078C18.9181 38.5466 18.7299 38.8644 18.379 39.0258L18.9893 39.964H18.2518L18.262 39.9691ZM17.1432 38.6172H17.7433C18.0993 38.6172 18.3078 38.4558 18.3078 38.128C18.3078 37.8001 18.1044 37.6538 17.7433 37.6538H17.1432V38.6172Z" fill="#243770"/>
<path d="M22.8157 37.1191V37.6639H21.9359V39.9691H21.2849V37.6639H20.4102V37.1191H22.8106H22.8157Z" fill="#243770"/>
<path d="M25.3548 37.1191V37.6538H23.8139V38.2742H25.1972V38.8089H23.8139V39.4394H25.4006V39.9741H23.168V37.1242H25.3548V37.1191Z" fill="#243770"/>
<path d="M27.2429 37.6545C26.7496 37.6545 26.3682 38.0328 26.3682 38.5321C26.3682 39.0315 26.7496 39.4098 27.2429 39.4098C27.5023 39.4098 27.7871 39.2787 27.9905 39.0769L28.3719 39.4905C28.0668 39.7982 27.6294 40 27.2124 40C26.3529 40 25.707 39.3695 25.707 38.5422C25.707 37.715 26.3682 37.0996 27.2378 37.0996C27.6549 37.0996 28.0871 37.2812 28.3719 37.5738L27.9956 38.0277C27.7973 37.8058 27.5175 37.6595 27.248 37.6595L27.2429 37.6545Z" fill="#243770"/>
<path d="M29.4088 37.1191V38.3096H30.7107V37.1191H31.3617V39.9691H30.7107V38.8442H29.4088V39.9691H28.7578V37.1191H29.4088Z" fill="#243770"/>
<path d="M32.5833 37.1191L33.9768 38.9502V37.1191H34.5922V39.9691H34.0022L32.6087 38.1431V39.9691H31.9883V37.1191H32.5782H32.5833Z" fill="#243770"/>
<path d="M35.8736 37.1191V39.9691H35.2227V37.1191H35.8736Z" fill="#243770"/>
<path d="M37.8445 37.6545C37.3512 37.6545 36.9697 38.0328 36.9697 38.5321C36.9697 39.0315 37.3512 39.4098 37.8445 39.4098C38.1038 39.4098 38.3886 39.2787 38.5921 39.0769L38.9735 39.4905C38.6684 39.7982 38.231 40 37.814 40C36.9545 40 36.3086 39.3695 36.3086 38.5422C36.3086 37.715 36.9697 37.0996 37.8394 37.0996C38.2564 37.0996 38.6887 37.2812 38.9735 37.5738L38.5972 38.0277C38.3988 37.8058 38.1191 37.6595 37.8496 37.6595L37.8445 37.6545Z" fill="#243770"/>
<path d="M41.2275 39.4142H39.8951L39.6713 39.9691H39L40.246 37.1191H40.9173L42.143 39.9691H41.4513L41.2275 39.4142ZM41.019 38.8997L40.5664 37.79L40.1087 38.8997H41.0139H41.019Z" fill="#243770"/>
<path d="M43.0924 37.1191V39.4092H44.3231V39.9691H42.4414V37.1191H43.0924Z" fill="#243770"/>
<path d="M48.0618 37.1191V37.6639H47.182V39.9691H46.531V37.6639H45.6562V37.1191H48.0567H48.0618Z" fill="#243770"/>
<path d="M50.1761 39.9691L49.7184 39.157H49.0572V39.9691H48.4062V37.1191H49.6523C50.4049 37.1191 50.8321 37.4773 50.8321 38.1078C50.8321 38.5466 50.644 38.8644 50.2931 39.0258L50.9033 39.964H50.1659L50.1761 39.9691ZM49.0572 38.6172H49.6573C50.0133 38.6172 50.2218 38.4558 50.2218 38.128C50.2218 37.8001 50.0184 37.6538 49.6573 37.6538H49.0572V38.6172Z" fill="#243770"/>
<path d="M53.2822 39.4142H51.9498L51.726 39.9691H51.0547L52.3007 37.1191H52.972L54.1977 39.9691H53.506L53.2822 39.4142ZM53.0737 38.8997L52.6211 37.79L52.1634 38.8997H53.0686H53.0737Z" fill="#243770"/>
<path d="M57.231 38.5416C57.231 39.3789 56.6004 39.9691 55.6951 39.9691H54.5V37.1191H55.7206C56.6106 37.1191 57.231 37.6992 57.231 38.5466V38.5416ZM56.5699 38.5466C56.5699 38.022 56.1986 37.6589 55.7053 37.6589H55.1459V39.4243H55.7307C56.2088 39.4243 56.5648 39.0662 56.5648 38.5466H56.5699Z" fill="#243770"/>
<path d="M58.3033 37.1191V39.9691H57.6523V37.1191H58.3033Z" fill="#243770"/>
<path d="M59.5364 37.1191L60.9299 38.9502V37.1191H61.5453V39.9691H60.9553L59.5619 38.1431V39.9691H58.9414V37.1191H59.5313H59.5364Z" fill="#243770"/>
<path d="M64.1075 38.5313H64.672V39.6259C64.3668 39.8478 63.904 39.9941 63.5074 39.9941C62.6377 39.9941 61.9766 39.3687 61.9766 38.5414C61.9766 37.7142 62.6479 37.0938 63.543 37.0938C63.9702 37.0938 64.4075 37.2552 64.6974 37.5074L64.3313 37.9664C64.1177 37.7697 63.8227 37.6486 63.543 37.6486C63.0344 37.6486 62.6377 38.037 62.6377 38.5364C62.6377 39.0357 63.0344 39.4292 63.543 39.4292C63.7159 39.4292 63.9193 39.3687 64.1075 39.2728V38.5212V38.5313Z" fill="#243770"/>
<path d="M68.3643 39.4142H67.0318L66.808 39.9691H66.1367L67.3827 37.1191H68.054L69.2797 39.9691H68.588L68.3643 39.4142ZM68.1557 38.8997L67.7031 37.79L67.2454 38.8997H68.1507H68.1557Z" fill="#243770"/>
<path d="M71.4356 38.5313H72.0001V39.6259C71.695 39.8478 71.2322 39.9941 70.8355 39.9941C69.9658 39.9941 69.3047 39.3687 69.3047 38.5414C69.3047 37.7142 69.976 37.0938 70.8711 37.0938C71.2983 37.0938 71.7357 37.2552 72.0255 37.5074L71.6594 37.9664C71.4458 37.7697 71.1508 37.6486 70.8711 37.6486C70.3625 37.6486 69.9658 38.037 69.9658 38.5364C69.9658 39.0357 70.3625 39.4292 70.8711 39.4292C71.044 39.4292 71.2474 39.3687 71.4356 39.2728V38.5212V38.5313Z" fill="#243770"/>
<path d="M74.7533 37.1191V37.6538H73.2123V38.2742H74.5956V38.8089H73.2123V39.4394H74.799V39.9741H72.5664V37.1242H74.7533V37.1191Z" fill="#243770"/>
<path d="M75.8958 37.1191L77.2893 38.9502V37.1191H77.9047V39.9691H77.3147L75.9212 38.1431V39.9691H75.3008V37.1191H75.8907H75.8958Z" fill="#243770"/>
<path d="M79.8796 37.6545C79.3863 37.6545 79.0049 38.0328 79.0049 38.5321C79.0049 39.0315 79.3863 39.4098 79.8796 39.4098C80.139 39.4098 80.4238 39.2787 80.6272 39.0769L81.0087 39.4905C80.7035 39.7982 80.2662 40 79.8491 40C78.9896 40 78.3438 39.3695 78.3438 38.5422C78.3438 37.715 79.0049 37.0996 79.8746 37.0996C80.2916 37.0996 80.7239 37.2812 81.0087 37.5738L80.6323 38.0277C80.434 37.8058 80.1543 37.6595 79.8847 37.6595L79.8796 37.6545Z" fill="#243770"/>
<path d="M82.0416 37.1191V39.9691H81.3906V37.1191H82.0416Z" fill="#243770"/>
<path d="M84.8665 37.1191V37.6538H83.3256V38.2742H84.7089V38.8089H83.3256V39.4394H84.9123V39.9741H82.6797V37.1242H84.8665V37.1191Z" fill="#243770"/>
<path d="M86.4182 37.6388C86.1996 37.6388 86.0521 37.7145 86.0521 37.8709C86.0521 38.3955 87.5829 38.1029 87.5778 39.1269C87.5778 39.6868 87.0896 39.9844 86.4538 39.9844C85.9809 39.9844 85.5079 39.8028 85.1875 39.5304L85.4469 39.0058C85.7418 39.2681 86.1589 39.4346 86.464 39.4346C86.7285 39.4346 86.8912 39.3387 86.8912 39.1622C86.8912 38.6224 85.3604 38.9402 85.3604 37.9264C85.3604 37.4068 85.808 37.084 86.4742 37.084C86.876 37.084 87.2777 37.205 87.5676 37.3917L87.3184 37.9264C87.0133 37.7448 86.6522 37.6338 86.4233 37.6338L86.4182 37.6388Z" fill="#243770"/>
<path d="M3.59426 33.8913C3.22301 33.8913 3.03483 33.5685 3.02466 33.4524H2.61781C2.08381 33.4524 1.94141 32.9228 1.94141 32.6807C1.94141 32.0703 2.36352 31.8787 2.64832 31.8787C2.79581 31.8787 2.91278 31.9089 3.00941 31.9997V31.8787H3.62478V33.1296C3.62478 33.2305 3.67563 33.3415 3.82821 33.3415H6.43209V33.8913H3.58918H3.59426ZM2.24655 31.5458V31.0312H2.78055V31.5458H2.24655ZM3.00941 32.5193C2.92295 32.4335 2.88735 32.4033 2.76529 32.4033C2.67375 32.4033 2.56186 32.4688 2.54661 32.6756C2.53643 32.7563 2.59238 32.9379 2.73478 32.9379H3.00941V32.5142V32.5193ZM2.99923 31.5458V31.0312H3.53323V31.5458H2.99923Z" fill="#243770"/>
<path d="M8.05918 33.8915C7.82015 33.8915 7.67267 33.7401 7.60147 33.6342C7.47941 33.8007 7.26581 33.8915 7.05221 33.8915C6.80301 33.8915 6.60467 33.8915 6.35547 33.8915V33.3416H6.87421C6.99627 33.3416 7.15901 33.271 7.15901 33.1197L7.14884 32.2168H7.7693C7.7693 32.4539 7.7693 32.7111 7.77947 32.9532C7.77947 33.2307 7.98798 33.3467 8.09478 33.3467H8.5169V33.8965H8.05918V33.8915ZM6.83861 34.749V34.2345H7.37261V34.749H6.83861ZM7.5913 34.749V34.2345H8.1253V34.749H7.5913Z" fill="#243770"/>
<path d="M12.2365 33.8915C11.9975 33.8915 11.85 33.7402 11.7788 33.6343C11.6568 33.8007 11.4432 33.8915 11.2296 33.8915C10.9804 33.8915 8.68161 33.8915 8.4375 33.8915V33.3417H11.0566C11.1787 33.3417 11.3414 33.2711 11.3414 33.1198L11.3313 32.2169H11.9517C11.9517 32.454 11.9517 32.7112 11.9619 32.9533C11.9619 33.2308 12.1704 33.3468 12.2772 33.3468H14.7946V33.8966H12.2416L12.2365 33.8915ZM11.3567 31.8739V31.3594H11.8907V31.8739H11.3567Z" fill="#243770"/>
<path d="M16.7679 33.8918C16.5086 33.8918 16.2644 33.8413 16.0305 33.7606C15.8067 33.8464 15.5626 33.8918 15.3083 33.8918H14.7031V33.342H15.0642C15.1812 33.342 15.288 33.342 15.3897 33.3268C15.2066 33.1251 15.1405 32.9183 15.1405 32.7468C15.1405 32.2373 15.5677 31.97 16.0203 31.97C16.473 31.97 16.9002 32.2373 16.9002 32.7468C16.9002 32.9183 16.834 33.1251 16.656 33.3268C16.7832 33.347 16.8747 33.342 16.9866 33.342H19.4328V33.8918H16.7527H16.7679ZM15.7457 31.6219V31.1074H16.2797V31.6219H15.7457ZM16.0305 32.4189C15.8525 32.4189 15.7508 32.5551 15.7508 32.7316C15.7508 33.004 16.0102 33.1705 16.0305 33.1705C16.0508 33.1705 16.3102 33.0091 16.3102 32.7316C16.3102 32.5551 16.2136 32.4189 16.0305 32.4189Z" fill="#243770"/>
<path d="M20.0612 33.8913H19.3594V33.3415H19.8883C20.0205 33.3415 20.1121 33.2759 20.1121 33.1296C20.1121 32.8219 20.0968 31.3339 20.0968 31.0312H20.7223C20.7223 31.5357 20.7376 32.8421 20.7376 33.2759C20.7376 33.6492 20.5037 33.8913 20.0663 33.8913H20.0612Z" fill="#243770"/>
<path d="M21.3328 33.8913L21.3125 31.0312H21.933L21.9533 33.8913H21.3328Z" fill="#243770"/>
<path d="M24.8677 33.8913C24.4964 33.8913 24.3083 33.5685 24.2981 33.4524H23.8912C23.3572 33.4524 23.2148 32.9228 23.2148 32.6807C23.2148 32.0703 23.637 31.8787 23.9218 31.8787C24.0692 31.8787 24.1862 31.9089 24.2828 31.9997V31.8787H24.8982V33.1296C24.8982 33.2305 24.9491 33.3415 25.1016 33.3415H27.8886V33.8913H24.8626H24.8677ZM23.52 31.5458V31.0312H24.054V31.5458H23.52ZM24.2879 32.5193C24.2015 32.4335 24.1659 32.4033 24.0438 32.4033C23.9523 32.4033 23.8404 32.4688 23.8251 32.6756C23.815 32.7563 23.8709 32.9379 24.0133 32.9379H24.2879V32.5142V32.5193ZM24.2778 31.5458V31.0312H24.8118V31.5458H24.2778Z" fill="#243770"/>
<path d="M28.5143 33.8903H27.8125V33.3405H28.3414C28.4736 33.3405 28.5652 33.2749 28.5652 33.1286C28.5652 32.821 28.5652 32.5183 28.555 32.2207H29.1755C29.1755 32.7201 29.1856 32.8462 29.1856 33.2749C29.1856 33.6482 28.9517 33.8903 28.5143 33.8903ZM27.843 34.7478V34.2333H28.377V34.7478H27.843ZM28.5957 34.7478V34.2333H29.1297V34.7478H28.5957Z" fill="#243770"/>
<path d="M30.1672 33.5081V32.2168H30.7775L30.7927 33.4627C30.7622 34.2193 30.3045 34.7691 29.5264 34.8297C29.3433 34.6329 29.3077 34.5724 29.1094 34.3606C29.5671 34.3252 30.1621 34.0176 30.1621 33.5131L30.1672 33.5081Z" fill="#243770"/>
<path d="M31.9203 33.8913C31.6508 33.8913 31.3914 33.7046 31.3864 33.3314L31.3711 31.0312H31.9865L32.0017 33.1397C32.0017 33.2608 32.0628 33.3213 32.1492 33.3364H32.6476V33.8862H31.9203V33.8913Z" fill="#243770"/>
<path d="M32.5664 33.8903V33.3405H34.5142C34.4074 32.9824 34.1379 32.7655 33.8226 32.7655C33.4259 32.7655 33.2225 32.9622 33.2225 32.9622L32.9783 32.5284C33.0546 32.4426 33.3191 32.2207 33.8226 32.2207C34.5549 32.2207 34.9516 32.7453 35.0991 33.3405H37.8403V33.8903H32.5664ZM33.5785 34.7478V34.2333H34.1125V34.7478H33.5785Z" fill="#243770"/>
<path d="M39.4654 33.8915C39.2264 33.8915 39.0789 33.7402 39.0077 33.6343C38.8857 33.8007 38.6721 33.8915 38.4585 33.8915C38.2093 33.8915 38.0109 33.8915 37.7617 33.8915V33.3417H38.2805C38.4025 33.3417 38.5653 33.2711 38.5653 33.1198L38.5551 32.2169H39.1755C39.1755 32.454 39.1755 32.7112 39.1857 32.9533C39.1857 33.2308 39.3942 33.3468 39.501 33.3468H39.9231V33.8966H39.4654V33.8915ZM38.2194 31.8739V31.3594H38.7534V31.8739H38.2194ZM38.9721 31.8739V31.3594H39.5061V31.8688H38.9721V31.8739Z" fill="#243770"/>
<path d="M42.824 33.8913H39.8438V33.3415H42.6511C42.7833 33.3415 42.8748 33.2759 42.8748 33.1296C42.8748 32.8219 42.8596 31.3339 42.8596 31.0312H43.4851C43.4851 31.5357 43.5004 32.8421 43.5004 33.2759C43.5004 33.6492 43.2664 33.8913 42.8291 33.8913H42.824Z" fill="#243770"/>
<path d="M44.0985 33.8913L44.0781 31.0312H44.6986L44.7189 33.8913H44.0985Z" fill="#243770"/>
<path d="M48.6403 33.8916H47.2621C46.2144 33.8916 45.9805 32.9635 45.9805 32.2169H46.5908C46.5908 32.8222 46.7535 33.3418 47.2875 33.3418H48.4114C48.4776 33.3418 48.5182 33.3065 48.5182 33.1854C48.5081 32.7718 48.503 32.7062 48.4979 32.2169H49.1184C49.1285 32.681 49.1285 33.019 49.1285 33.4225C49.1285 33.7554 48.9048 33.8916 48.6454 33.8916H48.6403ZM46.9162 32.111V31.6016H47.4502V32.111H46.9162ZM47.6638 32.111V31.6016H48.1978V32.111H47.6638Z" fill="#243770"/>
<path d="M50.1238 33.8913H49.5898V33.3415H49.9458C50.2459 33.3415 50.724 33.2355 50.724 32.8068C50.724 32.8068 50.724 32.7563 50.7036 31.0363H51.3292C51.3495 32.8572 51.3495 33.0035 51.3495 33.0035C51.3495 33.5382 50.8206 33.8913 50.1289 33.8913H50.1238ZM49.8492 33.0489H49.6916L49.6661 31.0312H50.2815L50.3018 32.8824C50.195 33.0338 50.0374 33.0489 49.8492 33.0489Z" fill="#243770"/>
<path d="M52.4672 33.8913C52.1977 33.8913 51.9383 33.7046 51.9332 33.3314L51.918 31.0312H52.5333L52.5486 33.1397C52.5486 33.2608 52.6096 33.3213 52.6961 33.3364H55.3864V33.8862H52.4672V33.8913Z" fill="#243770"/>
<path d="M55.3008 33.8922V33.3424H57.3452C57.2028 32.7472 56.4908 32.6059 55.9111 32.9994L55.6822 32.5555L56.9587 31.3398L57.3859 31.7333L56.8367 32.2427C57.7114 32.3134 57.986 33.1204 57.986 33.8871H55.311L55.3008 33.8922Z" fill="#243770"/>
<path d="M60.2138 33.8903C60.0562 34.4048 59.629 34.7831 59.0238 34.8336C58.8407 34.6368 58.8 34.5713 58.6016 34.3645C58.9271 34.3443 59.3645 34.1627 59.5527 33.8954H59.3289C58.8508 33.8954 58.5508 33.4666 58.5508 33.0782C58.5508 32.4124 59.0899 32.2207 59.4306 32.2207C59.5272 32.2207 60.2342 32.2661 60.2748 32.9218C60.2748 32.942 60.2748 33.0278 60.2748 33.3506H60.7987V33.9004H60.2138V33.8903ZM59.6544 32.9773C59.6544 32.821 59.629 32.6545 59.4204 32.6545C59.2323 32.6545 59.1255 32.8361 59.1255 33.0126C59.1255 33.1892 59.2119 33.3355 59.4001 33.3355H59.6544V32.9773Z" fill="#243770"/>
<path d="M64.7009 33.8921C64.4618 33.8921 64.3143 33.7408 64.2431 33.6348C64.1211 33.8013 63.9075 33.8921 63.6939 33.8921H60.7188V33.3423H63.5159C63.6379 33.3423 63.8007 33.2717 63.8007 33.1203L63.7905 31.0371H64.411C64.411 31.2742 64.411 32.7168 64.4211 32.9539C64.4211 33.2313 64.6297 33.3473 64.7365 33.3473H65.1586V33.8971H64.7009V33.8921Z" fill="#243770"/>
<path d="M68.0544 33.8913H65.0742V33.3415H67.8815C68.0138 33.3415 68.1053 33.2759 68.1053 33.1296C68.1053 32.8219 68.09 31.3339 68.09 31.0312H68.7156C68.7156 31.5357 68.7308 32.8421 68.7308 33.2759C68.7308 33.6492 68.4969 33.8913 68.0595 33.8913H68.0544Z" fill="#243770"/>
<path d="M71.5857 33.8903C71.4637 33.8903 71.362 33.85 71.2857 33.7945C71.1636 34.3745 70.711 34.773 70.0498 34.8285C69.8668 34.6318 69.8312 34.5713 69.6328 34.3594C70.0905 34.3241 70.6906 34.0164 70.6856 33.512L70.6703 32.2207H71.2958L71.306 32.9622C71.306 33.2295 71.5196 33.3455 71.6264 33.3455H74.332V33.8954H71.5857V33.8903Z" fill="#243770"/>
<path d="M74.2461 33.8916V33.3418H74.9479V32.5952H75.5582V33.2762C75.9854 32.3632 76.6974 32.1917 76.9924 32.222C77.684 32.2875 77.9078 32.797 77.979 33.3418H80.8219V33.8916H74.2461ZM76.8703 32.7415C76.6669 32.7415 76.3312 32.8777 76.021 33.3418H77.3789C77.3636 33.0744 77.2467 32.7415 76.8754 32.7415H76.8703Z" fill="#243770"/>
<path d="M82.4079 33.8915C82.1689 33.8915 82.0214 33.7402 81.9502 33.6343C81.8281 33.8007 81.6145 33.8915 81.4009 33.8915C81.1517 33.8915 78.6699 33.8915 78.4258 33.8915V33.3417H81.2229C81.345 33.3417 81.5077 33.2711 81.5077 33.1198L81.4975 32.2169H82.118C82.118 32.454 82.118 32.7112 82.1282 32.9533C82.1282 33.2308 82.3367 33.3468 82.4435 33.3468H85.144V33.8966H82.4079V33.8915ZM81.5332 31.8739V31.3594H82.0672V31.8739H81.5332Z" fill="#243770"/>
<path d="M85.7682 33.8913H85.0664V33.3415H85.5953C85.7276 33.3415 85.8191 33.2759 85.8191 33.1296C85.8191 32.8219 85.8038 31.3339 85.8038 31.0312H86.4294C86.4294 31.5357 86.4446 32.8421 86.4446 33.2759C86.4446 33.6492 86.2107 33.8913 85.7733 33.8913H85.7682Z" fill="#243770"/>
<path d="M87.0399 33.8913L87.0195 31.0312H87.64L87.6603 33.8913H87.0399Z" fill="#243770"/>
<defs>
<linearGradient id="paint0_linear_111_10210" x1="0.5" y1="13.8714" x2="89.5" y2="13.8714" gradientUnits="userSpaceOnUse">
<stop stop-color="#111D2F"/>
<stop offset="0.5" stop-color="#223F7D"/>
<stop offset="0.98" stop-color="#111E31"/>
<stop offset="1" stop-color="#111D2F"/>
</linearGradient>
<linearGradient id="paint1_linear_111_10210" x1="0.5" y1="13.8714" x2="89.5" y2="13.8714" gradientUnits="userSpaceOnUse">
<stop stop-color="#111D2F"/>
<stop offset="0.5" stop-color="#223F7D"/>
<stop offset="0.98" stop-color="#111E31"/>
<stop offset="1" stop-color="#111D2F"/>
</linearGradient>
<linearGradient id="paint2_linear_111_10210" x1="0.5" y1="13.8714" x2="89.5" y2="13.8714" gradientUnits="userSpaceOnUse">
<stop stop-color="#111D2F"/>
<stop offset="0.5" stop-color="#223F7D"/>
<stop offset="0.98" stop-color="#111E31"/>
<stop offset="1" stop-color="#111D2F"/>
</linearGradient>
<linearGradient id="paint3_linear_111_10210" x1="0.5" y1="13.8714" x2="89.5" y2="13.8714" gradientUnits="userSpaceOnUse">
<stop stop-color="#111D2F"/>
<stop offset="0.5" stop-color="#223F7D"/>
<stop offset="0.98" stop-color="#111E31"/>
<stop offset="1" stop-color="#111D2F"/>
</linearGradient>
<linearGradient id="paint4_linear_111_10210" x1="0.5" y1="13.8714" x2="89.5" y2="13.8714" gradientUnits="userSpaceOnUse">
<stop stop-color="#111D2F"/>
<stop offset="0.5" stop-color="#223F7D"/>
<stop offset="0.98" stop-color="#111E31"/>
<stop offset="1" stop-color="#111D2F"/>
</linearGradient>
<linearGradient id="paint5_linear_111_10210" x1="0.5" y1="13.8714" x2="89.5" y2="13.8714" gradientUnits="userSpaceOnUse">
<stop stop-color="#111D2F"/>
<stop offset="0.5" stop-color="#223F7D"/>
<stop offset="0.98" stop-color="#111E31"/>
<stop offset="1" stop-color="#111D2F"/>
</linearGradient>
<linearGradient id="paint6_linear_111_10210" x1="0.5" y1="13.8714" x2="89.5" y2="13.8714" gradientUnits="userSpaceOnUse">
<stop stop-color="#111D2F"/>
<stop offset="0.5" stop-color="#223F7D"/>
<stop offset="0.98" stop-color="#111E31"/>
<stop offset="1" stop-color="#111D2F"/>
</linearGradient>
<linearGradient id="paint7_linear_111_10210" x1="0.5" y1="13.8714" x2="89.5" y2="13.8714" gradientUnits="userSpaceOnUse">
<stop stop-color="#111D2F"/>
<stop offset="0.5" stop-color="#223F7D"/>
<stop offset="0.98" stop-color="#111E31"/>
<stop offset="1" stop-color="#111D2F"/>
</linearGradient>
</defs>
</svg>
