<svg width="59" height="40" viewBox="0 0 59 40" fill="none" xmlns="http://www.w3.org/2000/svg">
<g clip-path="url(#clip0_2736_1903)">
<mask id="mask0_2736_1903" style="mask-type:luminance" maskUnits="userSpaceOnUse" x="21" y="1" width="18" height="18">
<path d="M38.0811 15.8858L29.7726 18.6984L21.5391 16.1514V1.91797H38.0811V15.8858Z" fill="white"/>
</mask>
<g mask="url(#mask0_2736_1903)">
<path d="M39.5958 18.6984H19.8529L19.8086 1.91797H39.5515L39.5958 18.6984Z" fill="url(#paint0_linear_2736_1903)"/>
<path d="M29.7725 18.6983L21.127 0.974609" stroke="white" stroke-width="1.15" stroke-miterlimit="10"/>
<path d="M29.7713 18.6967L20.6523 7.2793" stroke="white" stroke-width="1.15" stroke-miterlimit="10"/>
<path d="M29.7712 18.6972L20.7715 12.3398" stroke="white" stroke-width="1.15" stroke-miterlimit="10"/>
<path d="M29.7715 18.6983L38.5805 0.974609" stroke="white" stroke-width="1.15" stroke-miterlimit="10"/>
<path d="M29.7715 18.6967L39.0538 7.2793" stroke="white" stroke-width="1.15" stroke-miterlimit="10"/>
<path d="M29.7715 18.6972L38.9347 12.3398" stroke="white" stroke-width="1.15" stroke-miterlimit="10"/>
<path d="M29.3294 18.2932V11.6362H28.5088L28.2738 8.73843H27.2148V0.232422H32.4043V8.73843H31.3453L31.1103 11.6362H30.2556V18.2932H29.3294Z" fill="white"/>
<path d="M32.1718 0.463097V8.50601H31.1299L30.8949 11.4072H30.0232V18.0642H29.5601V11.4072H28.719L28.4841 8.50601H27.4421V0.463097H32.1718ZM32.6349 0H26.9824V8.9657H28.0618L28.2627 11.4412L28.2968 11.8669H29.1004V18.5239H30.4863V11.8669H31.324L31.358 11.4412L31.5589 8.9657H32.6383V0H32.6349Z" fill="white"/>
</g>
<path d="M2.39536 32.9931H0.542969L4.66998 23.2715H6.60749L10.823 32.9931H8.88552L7.77886 30.3405H4.5508L5.17053 28.7776H7.12848L5.59958 25.1273L2.39876 32.9931H2.39536Z" fill="#001E31"/>
<path d="M13.8169 23.2715V31.4302H17.6783V32.9931H12.0156V23.2715H13.8169Z" fill="#001E31"/>
<path d="M19.377 32.9931V23.2715H21.1783L26.3098 30.3541V23.2715H28.043V32.9931H26.2417L21.1102 25.7606V32.9931H19.377Z" fill="#001E31"/>
<path d="M31.0834 32.9931H29.2344L33.3614 23.2715H35.2989L39.5144 32.9931H37.5769L36.4703 30.3405H33.2422L33.8619 28.7776H35.8199L34.291 25.1273L31.0902 32.9931H31.0834Z" fill="#001E31"/>
<path d="M40.5319 32.5837V30.9527C41.5058 31.317 42.609 31.4975 43.8349 31.4975C45.3263 31.4975 46.0721 31.0004 46.0721 30.0027C46.0721 29.2774 45.6158 28.913 44.6998 28.913H43.1777C41.1891 28.913 40.1914 28.0073 40.1914 26.1923C40.1914 24.1969 41.6079 23.1992 44.441 23.1992C45.5272 23.1992 46.559 23.3593 47.5328 23.6759V25.307C46.559 24.9426 45.5272 24.7622 44.441 24.7622C42.8099 24.7622 41.9927 25.2389 41.9927 26.1889C41.9927 26.9142 42.3877 27.2752 43.1743 27.2752H44.6964C46.8144 27.2752 47.87 28.1809 47.87 29.9958C47.87 32.0355 46.5249 33.0537 43.8315 33.0537C42.6022 33.0537 41.5024 32.8936 40.5285 32.5769L40.5319 32.5837Z" fill="#001E31"/>
<path d="M49.4062 32.9795V23.2715H53.8261C55.8113 23.2715 56.8022 24.1398 56.8022 25.8764C56.8022 27.0512 56.0292 28.0216 54.4833 28.7946L57.5615 32.9965H55.2903L52.3347 28.7605V27.9365C54.0576 27.6437 54.9191 26.9729 54.9191 25.9309C54.9191 25.2158 54.5139 24.8549 53.7103 24.8549H51.2416V32.9795H49.4062Z" fill="#001E31"/>
<path d="M0.542969 39.9702V35.5605H1.39084L2.88569 38.9078L4.3499 35.5605H5.16713V39.9702H4.41119V36.8988L3.21599 39.9702H2.51794L1.2955 36.8988V39.9702H0.542969Z" fill="#87959E"/>
<path d="M9.11314 35.5605V36.262H6.90662V37.3721H9.01099V38.1042H6.89981V39.2619H9.16081V39.9702H6.09961V35.5605H9.11995H9.11314Z" fill="#87959E"/>
<path d="M12.795 35.5605V36.2688H11.5317V39.9702H10.7145V36.2688H9.45117V35.5605H12.7984H12.795Z" fill="#87959E"/>
<path d="M13.2478 39.9702H12.4102L14.283 35.5605H15.1615L17.0752 39.9702H16.1966L15.6927 38.7682H14.2285L14.5077 38.0599H15.3964L14.7018 36.405L13.2478 39.9736V39.9702Z" fill="#87959E"/>
<path d="M18.4266 35.5605V39.2619H20.1768V39.9702H17.6094V35.5605H18.4266Z" fill="#87959E"/>
<path d="M23.1571 35.5605V39.9702H22.3398V35.5605H23.1571Z" fill="#87959E"/>
<path d="M24.0801 39.9702V35.5605H24.8973L27.2264 38.775V35.5605H28.013V39.9702H27.1958L24.8667 36.6876V39.9702H24.0801Z" fill="#87959E"/>
<path d="M28.9375 39.9702V35.5605H30.6639C32.1247 35.5605 32.8534 36.2552 32.8534 37.6445C32.8534 39.1938 32.1247 39.9702 30.6639 39.9702H28.9375ZM30.6639 39.2619C31.5799 39.2619 32.0362 38.7239 32.0362 37.6445C32.0362 36.7285 31.5799 36.2688 30.6639 36.2688H29.7547V39.2585H30.6639V39.2619Z" fill="#87959E"/>
<path d="M33.5488 38.237V35.5605H34.3661V38.237C34.3661 38.9384 34.727 39.2926 35.4455 39.2926C36.164 39.2926 36.5249 38.9418 36.5249 38.237V35.5605H37.3421V38.237C37.3421 39.4117 36.7088 40.0008 35.4455 40.0008C34.1822 40.0008 33.5488 39.4117 33.5488 38.237Z" fill="#87959E"/>
<path d="M38.1859 39.7862V39.0473C38.6286 39.2107 39.1292 39.2925 39.6842 39.2925C40.3618 39.2925 40.6989 39.0677 40.6989 38.6148C40.6989 38.2845 40.4912 38.1211 40.0758 38.1211H39.3845C38.4822 38.1211 38.0293 37.7091 38.0293 36.8884C38.0293 35.9827 38.6729 35.5332 39.9566 35.5332C40.4503 35.5332 40.9168 35.6047 41.3595 35.7477V36.4866C40.9168 36.3232 40.4503 36.2415 39.9566 36.2415C39.2177 36.2415 38.8465 36.456 38.8465 36.8884C38.8465 37.2187 39.0236 37.3822 39.3845 37.3822H40.0758C41.036 37.3822 41.5161 37.7942 41.5161 38.6148C41.5161 39.541 40.9066 40.0007 39.6842 40.0007C39.1257 40.0007 38.6286 39.9292 38.1859 39.7862Z" fill="#87959E"/>
<path d="M45.0958 35.5605V36.2688H43.8325V39.9702H43.0153V36.2688H41.752V35.5605H45.0992H45.0958Z" fill="#87959E"/>
<path d="M45.5581 39.9634V35.5605H47.5637C48.4627 35.5605 48.9155 35.9555 48.9155 36.7421C48.9155 37.2733 48.5648 37.716 47.8634 38.0667L49.2595 39.9736H48.2277L46.8861 38.0531V37.6785C47.6659 37.5457 48.0575 37.2427 48.0575 36.7694C48.0575 36.4459 47.8736 36.2824 47.5092 36.2824H46.3889V39.9668H45.5547L45.5581 39.9634Z" fill="#87959E"/>
<path d="M50.4618 35.5605V39.9702H49.6445V35.5605H50.4618Z" fill="#87959E"/>
<path d="M54.4061 35.5605V36.262H52.1996V37.3721H54.304V38.1042H52.1928V39.2619H54.4538V39.9702H51.3926V35.5605H54.4129H54.4061Z" fill="#87959E"/>
<path d="M55.1273 39.7862V39.0473C55.57 39.2107 56.0706 39.2925 56.6256 39.2925C57.3032 39.2925 57.6403 39.0677 57.6403 38.6148C57.6403 38.2845 57.4326 38.1211 57.0172 38.1211H56.3259C55.4236 38.1211 54.9707 37.7091 54.9707 36.8884C54.9707 35.9827 55.6143 35.5332 56.898 35.5332C57.3917 35.5332 57.8582 35.6047 58.3009 35.7477V36.4866C57.8582 36.3232 57.3917 36.2415 56.898 36.2415C56.1591 36.2415 55.7879 36.456 55.7879 36.8884C55.7879 37.2187 55.965 37.3822 56.3259 37.3822H57.0172C57.9774 37.3822 58.4575 37.7942 58.4575 38.6148C58.4575 39.541 57.848 40.0007 56.6256 40.0007C56.0672 40.0007 55.57 39.9292 55.1273 39.7862Z" fill="#87959E"/>
</g>
<defs>
<linearGradient id="paint0_linear_2736_1903" x1="19.8086" y1="10.3082" x2="39.5958" y2="10.3082" gradientUnits="userSpaceOnUse">
<stop stop-color="#263878"/>
<stop offset="0.44" stop-color="#1E2E5B"/>
<stop offset="0.98" stop-color="#142032"/>
<stop offset="1" stop-color="#142032"/>
</linearGradient>
<clipPath id="clip0_2736_1903">
<rect width="57.9143" height="40" fill="white" transform="translate(0.542969)"/>
</clipPath>
</defs>
</svg>
