<svg width="68" height="36" viewBox="0 0 68 36" fill="none" xmlns="http://www.w3.org/2000/svg">
<path d="M2.81759 31.6096H1.79974L1.62615 32.0475H1.11328L2.06801 29.8027H2.58088L3.51983 32.0475H2.98723L2.81365 31.6096H2.81759ZM2.65978 31.2033L2.31261 30.3314L1.96544 31.2033H2.65978Z" fill="#243770"/>
<path d="M4.25686 29.8027V31.6057H5.19975V32.0475H3.75977V29.8027H4.25686Z" fill="#243770"/>
<path d="M5.95365 29.8027L7.02279 31.2467V29.8027H7.49621V32.0475H7.04252L5.97733 30.6075V32.0475H5.50391V29.8027H5.9576H5.95365Z" fill="#243770"/>
<path d="M9.44064 31.6096H8.42279L8.2492 32.0475H7.73633L8.69106 29.8027H9.20393L10.1429 32.0475H9.61028L9.43669 31.6096H9.44064ZM9.27889 31.2033L8.93171 30.3314L8.58454 31.2033H9.27889Z" fill="#243770"/>
<path d="M11.1343 30.2133C10.9686 30.2133 10.8542 30.2764 10.8542 30.3947C10.8542 30.809 12.0259 30.5802 12.022 31.3889C12.022 31.8268 11.6472 32.0675 11.1619 32.0675C10.799 32.0675 10.44 31.9255 10.1914 31.7085L10.3887 31.2942C10.6135 31.4994 10.937 31.6296 11.1698 31.6296C11.375 31.6296 11.4973 31.5546 11.4973 31.4126C11.4973 30.9905 10.3255 31.2351 10.3255 30.4421C10.3255 30.0357 10.6688 29.7793 11.1777 29.7793C11.4854 29.7793 11.7931 29.8779 12.0141 30.0239L11.8208 30.4421C11.588 30.3001 11.3118 30.2133 11.1343 30.2133Z" fill="#243770"/>
<path d="M13.7301 32.0475L13.3829 31.4045H12.8779V32.0475H12.3809V29.8027H13.3356C13.9116 29.8027 14.239 30.0828 14.239 30.5799C14.239 30.9271 14.097 31.1757 13.8287 31.3058L14.2982 32.0475H13.7341H13.7301ZM12.8779 30.9823H13.3356C13.6078 30.9823 13.7656 30.8521 13.7656 30.5957C13.7656 30.3393 13.6078 30.2209 13.3356 30.2209H12.8779V30.9823Z" fill="#243770"/>
<path d="M17.233 29.8027V30.2328H16.5623V32.0475H16.0652V30.2328H15.3945V29.8027H17.233Z" fill="#243770"/>
<path d="M19.1826 29.8027V30.2249H18.003V30.7101H19.0603V31.1323H18.003V31.6293H19.2141V32.0515H17.5059V29.8067H19.1786L19.1826 29.8027Z" fill="#243770"/>
<path d="M20.6366 30.2251C20.2618 30.2251 19.9659 30.5249 19.9659 30.9155C19.9659 31.306 20.2579 31.6059 20.6366 31.6059C20.8339 31.6059 21.0508 31.5033 21.2086 31.3415L21.5006 31.665C21.2678 31.9096 20.9325 32.0675 20.6129 32.0675C19.9541 32.0675 19.4609 31.5704 19.4609 30.9194C19.4609 30.2685 19.9659 29.7832 20.6326 29.7832C20.9483 29.7832 21.2836 29.9292 21.5006 30.154L21.2126 30.5131C21.0627 30.3355 20.8457 30.2211 20.6405 30.2211L20.6366 30.2251Z" fill="#243770"/>
<path d="M22.3018 29.8027V30.7417H23.296V29.8027H23.793V32.0475H23.296V31.1638H22.3018V32.0475H21.8047V29.8027H22.3018Z" fill="#243770"/>
<path d="M24.7408 29.8027L25.8099 31.2467V29.8027H26.2833V32.0475H25.8296L24.7644 30.6075V32.0475H24.291V29.8027H24.7447H24.7408Z" fill="#243770"/>
<path d="M27.2686 29.8027V32.0475H26.7715V29.8027H27.2686Z" fill="#243770"/>
<path d="M28.7811 30.2251C28.4063 30.2251 28.1105 30.5249 28.1105 30.9155C28.1105 31.306 28.4024 31.6059 28.7811 31.6059C28.9784 31.6059 29.1954 31.5033 29.3532 31.3415L29.6451 31.665C29.4124 31.9096 29.077 32.0675 28.7575 32.0675C28.0986 32.0675 27.6055 31.5704 27.6055 30.9194C27.6055 30.2685 28.1104 29.7832 28.7772 29.7832C29.0928 29.7832 29.4281 29.9292 29.6451 30.154L29.3571 30.5131C29.2072 30.3355 28.9902 30.2211 28.7851 30.2211L28.7811 30.2251Z" fill="#243770"/>
<path d="M31.3801 31.6096H30.3622L30.1887 32.0475H29.6758L30.6305 29.8027H31.1434L32.0823 32.0475H31.5497L31.3761 31.6096H31.3801ZM31.2183 31.2033L30.8712 30.3314L30.524 31.2033H31.2183Z" fill="#243770"/>
<path d="M32.8194 29.8027V31.6057H33.7622V32.0475H32.3223V29.8027H32.8194Z" fill="#243770"/>
<path d="M36.6314 29.8027V30.2328H35.9607V32.0475H35.4636V30.2328H34.793V29.8027H36.6314Z" fill="#243770"/>
<path d="M38.2614 32.0475L37.9142 31.4045H37.4092V32.0475H36.9121V29.8027H37.8668C38.4428 29.8027 38.7703 30.0828 38.7703 30.5799C38.7703 30.9271 38.6283 31.1757 38.36 31.3058L38.8295 32.0475H38.2653H38.2614ZM37.4053 30.9823H37.8629C38.1351 30.9823 38.2929 30.8521 38.2929 30.5957C38.2929 30.3393 38.1351 30.2209 37.8629 30.2209H37.4053V30.9823Z" fill="#243770"/>
<path d="M40.6438 31.6096H39.6259L39.4523 32.0475H38.9395L39.8942 29.8027H40.4071L41.346 32.0475H40.8134L40.6398 31.6096H40.6438ZM40.486 31.2033L40.1388 30.3314L39.7916 31.2033H40.486Z" fill="#243770"/>
<path d="M43.6768 30.9232C43.6768 31.582 43.1955 32.0436 42.5012 32.0436H41.5898V29.7988H42.5209C43.2034 29.7988 43.6768 30.2565 43.6768 30.9232ZM43.1719 30.9271C43.1719 30.5129 42.8878 30.2289 42.513 30.2289H42.0869V31.6175H42.5367C42.9036 31.6175 43.1758 31.3374 43.1758 30.9271H43.1719Z" fill="#243770"/>
<path d="M44.5088 29.8027V32.0475H44.0117V29.8027H44.5088Z" fill="#243770"/>
<path d="M45.4517 29.8027L46.5208 31.2467V29.8027H46.9943V32.0475H46.5406L45.4754 30.6075V32.0475H45.002V29.8027H45.4556H45.4517Z" fill="#243770"/>
<path d="M48.9634 30.9154H49.3934V31.7794C49.1606 31.953 48.8056 32.0714 48.5018 32.0714C47.8351 32.0714 47.3301 31.5743 47.3301 30.9273C47.3301 30.2803 47.8469 29.7871 48.5294 29.7871C48.8569 29.7871 49.1883 29.9173 49.4131 30.1146L49.133 30.4775C48.9713 30.3237 48.7424 30.229 48.5294 30.229C48.1388 30.229 47.839 30.5327 47.839 30.9312C47.839 31.3297 48.1428 31.6334 48.5334 31.6334C48.6675 31.6334 48.8214 31.5861 48.9634 31.5111V30.9194V30.9154Z" fill="#243770"/>
<path d="M52.2336 31.6096H51.2158L51.0422 32.0475H50.5293L51.484 29.8027H51.9969L52.9358 32.0475H52.4032L52.2297 31.6096H52.2336ZM52.0758 31.2033L51.7286 30.3314L51.3814 31.2033H52.0758Z" fill="#243770"/>
<path d="M54.5981 30.9154H55.0282V31.7794C54.7954 31.953 54.4403 32.0714 54.1366 32.0714C53.4698 32.0714 52.9648 31.5743 52.9648 30.9273C52.9648 30.2803 53.4817 29.7871 54.1642 29.7871C54.4916 29.7871 54.823 29.9173 55.0479 30.1146L54.7678 30.4775C54.606 30.3237 54.3772 30.229 54.1642 30.229C53.7736 30.229 53.4738 30.5327 53.4738 30.9312C53.4738 31.3297 53.7775 31.6334 54.1681 31.6334C54.3023 31.6334 54.4561 31.5861 54.5981 31.5111V30.9194V30.9154Z" fill="#243770"/>
<path d="M57.1454 29.8027V30.2249H55.9658V30.7101H57.0231V31.1323H55.9658V31.6293H57.177V32.0515H55.4688V29.8067H57.1415L57.1454 29.8027Z" fill="#243770"/>
<path d="M58.0298 29.8027L59.099 31.2467V29.8027H59.5724V32.0475H59.1187L58.0535 30.6075V32.0475H57.5801V29.8027H58.0338H58.0298Z" fill="#243770"/>
<path d="M61.0839 30.2251C60.7091 30.2251 60.4132 30.5249 60.4132 30.9155C60.4132 31.306 60.7051 31.6059 61.0839 31.6059C61.2811 31.6059 61.4981 31.5033 61.6559 31.3415L61.9479 31.665C61.7151 31.9096 61.3798 32.0675 61.0602 32.0675C60.4014 32.0675 59.9082 31.5704 59.9082 30.9194C59.9082 30.2685 60.4132 29.7832 61.0799 29.7832C61.3955 29.7832 61.7309 29.9292 61.9479 30.154L61.6599 30.5131C61.5099 30.3355 61.293 30.2211 61.0878 30.2211L61.0839 30.2251Z" fill="#243770"/>
<path d="M62.7529 29.8027V32.0475H62.2559V29.8027H62.7529Z" fill="#243770"/>
<path d="M64.915 29.8027V30.2249H63.7354V30.7101H64.7927V31.1323H63.7354V31.6293H64.9465V32.0515H63.2383V29.8067H64.911L64.915 29.8027Z" fill="#243770"/>
<path d="M2.15446 34.3359V34.6634H1.3457V34.3359H2.15446Z" fill="#243770"/>
<path d="M5.20404 33.2344V33.6565H4.02443V34.1418H5.08174V34.5639H4.02443V35.061H5.2356V35.4831H3.52734V33.2383H5.20009L5.20404 33.2344Z" fill="#243770"/>
<path d="M7.95803 35.7515C7.78839 35.9054 7.55168 36.0001 7.33864 36.0001C7.03881 36.0001 6.78632 35.8107 6.63246 35.503C5.97361 35.4872 5.48047 34.998 5.48047 34.3589C5.48047 33.7198 5.98939 33.2188 6.66007 33.2188C7.33075 33.2188 7.84362 33.708 7.84362 34.3589C7.84362 34.8599 7.54379 35.2663 7.09404 35.428C7.18083 35.5346 7.28735 35.5977 7.39387 35.5977C7.50039 35.5977 7.64242 35.5306 7.7805 35.4202L7.95803 35.7515ZM6.66796 35.0572C7.03486 35.0572 7.33469 34.7495 7.33469 34.355C7.33469 33.9604 7.03486 33.6567 6.66796 33.6567C6.30106 33.6567 5.98939 33.9565 5.98939 34.355C5.98939 34.7534 6.30106 35.0572 6.66796 35.0572Z" fill="#243770"/>
<path d="M9.15633 35.057C9.45222 35.057 9.64553 34.8637 9.64553 34.5402V33.2344H10.1426V34.5402C10.1426 35.132 9.76388 35.5028 9.15633 35.5028C8.54877 35.5028 8.1582 35.132 8.1582 34.5402V33.2344H8.65529V34.5402C8.65529 34.8637 8.86439 35.057 9.15633 35.057Z" fill="#243770"/>
<path d="M11.0947 33.2344V35.4792H10.5977V33.2344H11.0947Z" fill="#243770"/>
<path d="M13.3988 34.0116C13.3988 34.5363 13.0792 34.8361 12.519 34.8361H12.0811V35.4792H11.584V33.2344H12.515C13.0753 33.2344 13.3948 33.5145 13.3948 34.0116H13.3988ZM12.9253 34.0313C12.9253 33.7828 12.7675 33.6565 12.4914 33.6565H12.0811V34.4179H12.4914C12.7675 34.4179 12.9253 34.2877 12.9253 34.0313Z" fill="#243770"/>
<path d="M14.277 33.2344L14.92 34.6073L15.5552 33.2344H16.1075V35.4792H15.6617V33.9642L15.0778 35.2504H14.7543L14.1705 33.9642V35.4792H13.7207V33.2344H14.277Z" fill="#243770"/>
<path d="M18.2822 33.2344V33.6565H17.1026V34.1418H18.1599V34.5639H17.1026V35.061H18.3137V35.4831H16.6055V33.2383H18.2782L18.2822 33.2344Z" fill="#243770"/>
<path d="M19.1705 33.2344L20.2396 34.6783V33.2344H20.713V35.4792H20.2593L19.1941 34.0392V35.4792H18.7207V33.2344H19.1744H19.1705Z" fill="#243770"/>
<path d="M22.8228 33.2344V33.6644H22.1521V35.4792H21.6551V33.6644H20.9844V33.2344H22.8228Z" fill="#243770"/>
<path d="M23.8648 33.6449C23.6991 33.6449 23.5847 33.708 23.5847 33.8264C23.5847 34.2406 24.7564 34.0118 24.7524 34.8206C24.7524 35.2585 24.3776 35.4991 23.8924 35.4991C23.5294 35.4991 23.1704 35.3571 22.9219 35.1401L23.1191 34.7259C23.344 34.931 23.6675 35.0612 23.9003 35.0612C24.1054 35.0612 24.2277 34.9863 24.2277 34.8442C24.2277 34.4221 23.056 34.6667 23.056 33.8737C23.056 33.4674 23.3992 33.2109 23.9082 33.2109C24.2159 33.2109 24.5236 33.3096 24.7445 33.4555L24.5512 33.8737C24.3185 33.7317 24.0423 33.6449 23.8648 33.6449Z" fill="#243770"/>
<path d="M27.6763 33.2344V33.6644H27.0057V35.4792H26.5086V33.6644H25.8379V33.2344H27.6763Z" fill="#243770"/>
<path d="M29.6279 33.2344V33.6565H28.4483V34.1418H29.5056V34.5639H28.4483V35.061H29.6594V35.4831H27.9512V33.2383H29.6239L29.6279 33.2344Z" fill="#243770"/>
<path d="M31.08 33.6567C30.7052 33.6567 30.4093 33.9565 30.4093 34.3471C30.4093 34.7377 30.7012 35.0375 31.08 35.0375C31.2772 35.0375 31.4942 34.9349 31.652 34.7732L31.9439 35.0967C31.7112 35.3413 31.3758 35.4991 31.0563 35.4991C30.3974 35.4991 29.9043 35.002 29.9043 34.351C29.9043 33.7001 30.4093 33.2148 31.076 33.2148C31.3916 33.2148 31.727 33.3608 31.9439 33.5857L31.6559 33.9447C31.506 33.7672 31.289 33.6528 31.0839 33.6528L31.08 33.6567Z" fill="#243770"/>
<path d="M32.7451 33.2344V34.1733H33.7393V33.2344H34.2364V35.4792H33.7393V34.5955H32.7451V35.4792H32.248V33.2344H32.7451Z" fill="#243770"/>
<path d="M35.1841 33.2344L36.2533 34.6783V33.2344H36.7267V35.4792H36.273L35.2078 34.0392V35.4792H34.7344V33.2344H35.1881H35.1841Z" fill="#243770"/>
<path d="M37.7158 33.2344V35.4792H37.2188V33.2344H37.7158Z" fill="#243770"/>
<path d="M39.2264 33.6567C38.8517 33.6567 38.5558 33.9565 38.5558 34.3471C38.5558 34.7377 38.8477 35.0375 39.2264 35.0375C39.4237 35.0375 39.6407 34.9349 39.7985 34.7732L40.0904 35.0967C39.8577 35.3413 39.5223 35.4991 39.2028 35.4991C38.5439 35.4991 38.0508 35.002 38.0508 34.351C38.0508 33.7001 38.5558 33.2148 39.2225 33.2148C39.5381 33.2148 39.8734 33.3608 40.0904 33.5857L39.8024 33.9447C39.6525 33.7672 39.4355 33.6528 39.2304 33.6528L39.2264 33.6567Z" fill="#243770"/>
<path d="M41.8235 35.0413H40.8056L40.632 35.4792H40.1191L41.0739 33.2344H41.5867L42.5257 35.4792H41.9931L41.8195 35.0413H41.8235ZM41.6656 34.6349L41.3185 33.763L40.9713 34.6349H41.6656Z" fill="#243770"/>
<path d="M43.2627 33.2344V35.0373H44.2056V35.4792H42.7656V33.2344H43.2627Z" fill="#243770"/>
<path d="M45.9541 33.2344V35.4792H45.457V33.2344H45.9541Z" fill="#243770"/>
<path d="M46.897 33.2344L47.9662 34.6783V33.2344H48.4396V35.4792H47.9859L46.9207 34.0392V35.4792H46.4473V33.2344H46.901H46.897Z" fill="#243770"/>
<path d="M49.6929 33.6449C49.5272 33.6449 49.4128 33.708 49.4128 33.8264C49.4128 34.2406 50.5845 34.0118 50.5806 34.8206C50.5806 35.2585 50.2058 35.4991 49.7205 35.4991C49.3576 35.4991 48.9985 35.3571 48.75 35.1401L48.9473 34.7259C49.1721 34.931 49.4956 35.0612 49.7284 35.0612C49.9335 35.0612 50.0558 34.9863 50.0558 34.8442C50.0558 34.4221 48.8841 34.6667 48.8841 33.8737C48.8841 33.4674 49.2274 33.2109 49.7363 33.2109C50.044 33.2109 50.3517 33.3096 50.5727 33.4555L50.3794 33.8737C50.1466 33.7317 49.8704 33.6449 49.6929 33.6449Z" fill="#243770"/>
<path d="M52.7503 34.0116C52.7503 34.5363 52.4308 34.8361 51.8705 34.8361H51.4326V35.4792H50.9355V33.2344H51.8666C52.4268 33.2344 52.7464 33.5145 52.7464 34.0116H52.7503ZM52.2808 34.0313C52.2808 33.7828 52.123 33.6565 51.8469 33.6565H51.4366V34.4179H51.8469C52.123 34.4179 52.2808 34.2877 52.2808 34.0313Z" fill="#243770"/>
<path d="M54.7509 33.2344V33.6565H53.5713V34.1418H54.6286V34.5639H53.5713V35.061H54.7825V35.4831H53.0742V33.2383H54.747L54.7509 33.2344Z" fill="#243770"/>
<path d="M56.2069 33.6567C55.8321 33.6567 55.5362 33.9565 55.5362 34.3471C55.5362 34.7377 55.8282 35.0375 56.2069 35.0375C56.4042 35.0375 56.6212 34.9349 56.779 34.7732L57.0709 35.0967C56.8381 35.3413 56.5028 35.4991 56.1832 35.4991C55.5244 35.4991 55.0312 35.002 55.0312 34.351C55.0312 33.7001 55.5362 33.2148 56.203 33.2148C56.5186 33.2148 56.8539 33.3608 57.0709 33.5857L56.7829 33.9447C56.633 33.7672 56.416 33.6528 56.2109 33.6528L56.2069 33.6567Z" fill="#243770"/>
<path d="M58.9967 33.2344V33.6644H58.326V35.4792H57.8289V33.6644H57.1582V33.2344H58.9967Z" fill="#243770"/>
<path d="M59.7705 33.2344V35.4792H59.2734V33.2344H59.7705Z" fill="#243770"/>
<path d="M62.4647 34.3589C62.4647 35.0059 61.9558 35.503 61.2812 35.503C60.6065 35.503 60.1016 35.0059 60.1016 34.3589C60.1016 33.7119 60.6105 33.2188 61.2812 33.2188C61.9518 33.2188 62.4647 33.708 62.4647 34.3589ZM60.6105 34.3589C60.6105 34.7534 60.9222 35.0611 61.2891 35.0611C61.656 35.0611 61.9558 34.7534 61.9558 34.3589C61.9558 33.9644 61.656 33.6606 61.2891 33.6606C60.9222 33.6606 60.6105 33.9604 60.6105 34.3589Z" fill="#243770"/>
<path d="M63.2525 33.2344L64.3216 34.6783V33.2344H64.795V35.4792H64.3413L63.2762 34.0392V35.4792H62.8027V33.2344H63.2564H63.2525Z" fill="#243770"/>
<path d="M1.21875 26.0795V25.9375H2.29183V26.0795H1.21875Z" fill="#243770"/>
<path d="M5.11679 26.5868H4.0082C3.16788 26.5868 2.97852 25.8254 2.97852 25.2139H3.47166C3.47166 25.711 3.60185 26.1371 4.03187 26.1371H4.93532C4.99055 26.1371 5.02211 26.1095 5.02211 26.0069C5.01422 25.6676 5.01027 25.6124 5.00238 25.2139H5.50342C5.51131 25.5927 5.51131 25.8728 5.51131 26.2042C5.51131 26.4803 5.32983 26.5908 5.12074 26.5908L5.11679 26.5868ZM3.7281 25.1311V24.7129H4.15417V25.1311H3.7281ZM4.33171 25.1311V24.7129H4.76173V25.1311H4.33171Z" fill="#243770"/>
<path d="M5.98457 26.5876L5.96484 24.2402H6.46588L6.48561 26.5876H5.98457Z" fill="#243770"/>
<path d="M6.91219 26.5877L7.15284 26.138H8.10757C8.06812 25.8184 7.79196 25.6488 7.61837 25.6488V25.2188C8.15886 25.2188 8.49814 25.5383 8.60466 26.138H8.99918V26.5877H6.9043H6.91219Z" fill="#243770"/>
<path d="M12.1272 26.5878C11.9615 26.5878 11.8234 26.501 11.7524 26.4379C11.563 26.5286 11.3579 26.5878 11.1488 26.5878H8.93555V26.138H11.1448C11.2711 26.138 11.35 26.1301 11.4526 26.1025C11.2671 25.9013 11.058 25.7396 10.7148 25.7198V25.3608C11.4013 24.8874 12.281 25.0294 12.7545 25.4713C12.6203 25.712 12.4349 25.9447 12.214 26.1341H14.4272V26.5838H12.1311L12.1272 26.5878ZM11.4486 25.5305C11.6104 25.6054 11.7563 25.7396 11.8629 25.8619C11.9615 25.783 12.0483 25.6962 12.1153 25.5975C11.9812 25.5305 11.7129 25.4634 11.4486 25.5305Z" fill="#243770"/>
<path d="M16.0499 26.5885C15.9434 26.8016 15.7264 26.9436 15.3989 26.9436C15.0715 26.9436 14.8585 26.8016 14.748 26.5885H14.3574V26.1388H14.673C14.7125 25.7916 14.9571 25.5352 15.395 25.5352C15.8329 25.5352 16.0775 25.7916 16.117 26.1388H16.4444V26.5885H16.046H16.0499ZM15.3989 25.9336C15.2175 25.9336 15.1622 26.0954 15.1622 26.2413C15.1622 26.3873 15.2175 26.5491 15.3989 26.5491C15.5804 26.5491 15.6396 26.3913 15.6396 26.2413C15.6396 26.0914 15.5844 25.9336 15.3989 25.9336Z" fill="#243770"/>
<path d="M19.1582 26.5876C18.9649 26.5876 18.8465 26.4653 18.7913 26.3746C18.6926 26.5126 18.5191 26.5876 18.3494 26.5876H16.3887V26.1379H18.2074C18.3021 26.1379 18.4362 26.0787 18.4362 25.9524L18.4283 24.2402H18.9294C18.9294 24.4335 18.9294 25.6171 18.9372 25.8144C18.9372 26.0432 19.1069 26.1339 19.1897 26.1339H19.529V26.5837H19.1621L19.1582 26.5876Z" fill="#243770"/>
<path d="M22.8301 26.5876H19.4609V26.1378H22.6881C22.7946 26.1378 22.8696 26.0826 22.8696 25.9642C22.8696 25.7117 22.8577 24.4927 22.8538 24.2441H23.3548C23.3548 24.6584 23.3666 25.7315 23.3666 26.0826C23.3666 26.3903 23.1773 26.5876 22.8262 26.5876H22.8301Z" fill="#243770"/>
<path d="M27.2425 26.5884C26.9269 26.5884 26.7928 26.3833 26.6942 26.1426C26.5798 25.8665 26.4101 25.6258 26.1497 25.6297C25.9643 25.6297 25.846 25.7363 25.7907 25.8743H26.4496V26.3517C26.4496 26.9198 25.9998 27.3775 25.4436 27.3775C24.8873 27.3775 24.4375 26.9159 24.4336 26.3517C24.4336 26.2452 24.4336 26.0992 24.4336 25.8743H24.9307C24.9307 26.1071 24.9307 26.257 24.9307 26.3517C24.9307 26.7147 25.2305 26.8843 25.4357 26.8843C25.6724 26.8843 25.9643 26.7147 25.9525 26.3517V26.332H25.1911C25.1911 25.543 25.5816 25.1484 26.134 25.1484C26.7178 25.1484 26.9309 25.5469 27.1479 25.969C27.2031 26.0677 27.2465 26.1426 27.3964 26.1426H27.5542V26.5924H27.2465L27.2425 26.5884ZM24.8755 28.0797V27.6615H25.3055V28.0797H24.8755ZM25.483 28.0797V27.6615H25.913V28.0797H25.483Z" fill="#243770"/>
<path d="M30.2558 26.5869C30.0625 26.5869 29.9442 26.4646 29.8889 26.3738C29.7903 26.5119 29.6167 26.5869 29.4471 26.5869C29.2459 26.5869 27.6836 26.5869 27.4863 26.5869V26.1371H29.305C29.3997 26.1371 29.5339 26.0779 29.5339 25.9517L29.526 25.21H30.027C30.027 25.4033 30.027 25.6164 30.0349 25.8136C30.0349 26.0424 30.2045 26.1332 30.2874 26.1332H30.6267V26.5829H30.2598L30.2558 26.5869ZM29.5496 24.9339V24.5117H29.9797V24.9339H29.5496Z" fill="#243770"/>
<path d="M33.618 26.587C33.4129 26.587 33.2117 26.5475 33.0263 26.4805C32.8448 26.5475 32.6515 26.587 32.4463 26.587H30.5605V26.1372H32.257C32.3477 26.1372 32.4384 26.1372 32.5213 26.1215C32.3753 25.9558 32.3201 25.7861 32.3201 25.6441C32.3201 25.2259 32.6633 25.005 33.0302 25.005C33.3971 25.005 33.7403 25.2259 33.7403 25.6441C33.7403 25.7861 33.6851 25.9558 33.5431 26.1215C33.6457 26.1412 33.7167 26.1372 33.8114 26.1372H34.0915V26.587H33.6259H33.618ZM32.7975 24.7249V24.3027H33.2275V24.7249H32.7975ZM33.0263 25.3798C32.8842 25.3798 32.8014 25.4902 32.8014 25.6362C32.8014 25.8611 33.0105 25.9952 33.0263 25.9952C33.046 25.9952 33.2511 25.8611 33.2511 25.6362C33.2511 25.4902 33.1722 25.3798 33.0263 25.3798Z" fill="#243770"/>
<path d="M35.9842 26.5876H34.0195V26.1378H35.8461C35.9527 26.1378 36.0276 26.0826 36.0276 25.9642C36.0276 25.7117 36.0158 24.4927 36.0118 24.2441H36.5129C36.5129 24.6584 36.5247 25.7315 36.5247 26.0826C36.5247 26.3903 36.3353 26.5876 35.9842 26.5876Z" fill="#243770"/>
<path d="M37.0061 26.5876L36.9863 24.2402H37.4874L37.5071 26.5876H37.0061Z" fill="#243770"/>
<path d="M40.5217 26.5876C40.427 27.0334 40.0207 27.3727 39.5394 27.3727C38.9792 27.3727 38.5334 26.9151 38.5334 26.3627C38.5334 26.2562 38.5176 25.8341 38.5176 25.6171H39.0147C39.0147 25.8104 39.0226 26.2878 39.0226 26.3667C39.0226 26.6586 39.2593 26.8953 39.5354 26.8953C39.8116 26.8953 40.0562 26.6586 40.0483 26.3667L40.0325 25.6171H40.5336V26.0313C40.8768 25.3291 41.4331 25.1989 41.6619 25.2186C42.2181 25.2739 42.3996 25.6921 42.4588 26.1379H44.313V26.5876H40.5178H40.5217ZM41.5711 25.6487C41.4054 25.6487 41.1372 25.7591 40.8847 26.1379H41.9775C41.9656 25.9169 41.871 25.6487 41.5711 25.6487Z" fill="#243770"/>
<path d="M42.836 26.5878V26.138H45.8027C45.7159 25.8421 45.499 25.6646 45.2465 25.6646C44.9269 25.6646 44.7652 25.8263 44.7652 25.8263L44.5679 25.4673C44.6271 25.3963 44.8441 25.2148 45.2465 25.2148C45.8343 25.2148 46.1578 25.6449 46.2722 26.1341H48.0436V26.5838H42.832L42.836 26.5878Z" fill="#243770"/>
<path d="M49.6415 26.587C49.4363 26.587 49.2351 26.5475 49.0497 26.4805C48.8682 26.5475 48.6749 26.587 48.4698 26.587H46.584V26.1372H48.2804C48.3711 26.1372 48.4619 26.1372 48.5447 26.1215C48.3988 25.9558 48.3435 25.7861 48.3435 25.6441C48.3435 25.2259 48.6868 25.005 49.0537 25.005C49.4206 25.005 49.7638 25.2259 49.7638 25.6441C49.7638 25.7861 49.7086 25.9558 49.5665 26.1215C49.6691 26.1412 49.7401 26.1372 49.8348 26.1372H50.1149V26.587H49.6494H49.6415ZM48.8209 24.7249V24.3027H49.2509V24.7249H48.8209ZM49.0497 25.3798C48.9077 25.3798 48.8248 25.4902 48.8248 25.6362C48.8248 25.8611 49.0339 25.9952 49.0497 25.9952C49.0694 25.9952 49.2746 25.8611 49.2746 25.6362C49.2746 25.4902 49.1957 25.3798 49.0497 25.3798Z" fill="#243770"/>
<path d="M52.0096 26.5876H50.0449V26.1378H51.8715C51.9781 26.1378 52.053 26.0826 52.053 25.9642C52.053 25.7117 52.0412 24.4927 52.0372 24.2441H52.5383C52.5383 24.6584 52.5501 25.7315 52.5501 26.0826C52.5501 26.3903 52.3607 26.5876 52.0096 26.5876Z" fill="#243770"/>
<path d="M53.0314 26.5876L53.0117 24.2402H53.5128L53.5325 26.5876H53.0314Z" fill="#243770"/>
<path d="M57.3165 26.5882C57.0285 26.5882 56.8313 26.5092 56.6932 26.3317C56.5709 26.4856 56.3776 26.5842 56.1093 26.5842C55.7187 26.5842 55.4781 26.3712 55.4071 26.0753H55.2019C55.0638 26.0753 55.0481 26.1384 55.0481 26.3041L55.0678 27.3575H54.5667L54.551 26.1108C54.5431 25.7242 54.7877 25.6019 55.0717 25.6019H55.4268C55.5215 25.3494 55.7503 25.1758 56.1093 25.1758C56.5117 25.1758 56.7484 25.3691 56.8313 25.7597C56.8865 26.0122 57.0719 26.1384 57.3757 26.1345V26.5842H57.3205L57.3165 26.5882ZM56.1093 25.5742C55.9278 25.5742 55.8726 25.736 55.8726 25.882C55.8726 26.0279 55.9278 26.1936 56.1093 26.1936C56.2908 26.1936 56.35 26.0319 56.35 25.882C56.35 25.732 56.2947 25.5742 56.1093 25.5742Z" fill="#243770"/>
<path d="M61.8574 26.5878C61.6917 26.5878 61.5812 26.4932 61.5141 26.4142C61.4195 26.5484 61.2538 26.6076 61.0644 26.6155C60.9145 26.6155 60.729 26.5878 60.587 26.4103C60.4805 26.5523 60.3188 26.6076 60.1294 26.6155C60.0189 26.6155 59.8887 26.5957 59.7743 26.5208V26.5839H57.3086V26.1341H59.2733L59.2654 25.3136H59.7664C59.7664 25.6173 59.7664 25.6568 59.7664 25.8422C59.7664 26.071 59.8966 26.1578 60.0386 26.1578C60.1373 26.1578 60.2004 26.1144 60.2004 25.9882C60.2004 25.7712 60.2004 25.5266 60.1925 25.3096H60.6935C60.6935 25.5187 60.7054 25.8422 60.7054 25.8422C60.7054 26.071 60.8356 26.1578 60.9776 26.1578C61.0723 26.1578 61.1354 26.1144 61.1354 25.9882C61.1354 25.6449 61.1354 25.6134 61.1275 25.207H61.6285C61.6285 25.5187 61.6285 25.6173 61.6285 25.8067C61.6364 26.0395 61.7982 26.1302 61.885 26.1302H62.1927V26.5799H61.8534L61.8574 26.5878Z" fill="#243770"/>
<path d="M64.8352 26.5871H62.1367V26.1373H64.6261C64.6813 26.1373 64.7169 26.1137 64.7169 26.0308V26.0032H64.4644C64.058 26.0032 63.8095 25.66 63.8213 25.3286C63.8489 24.3778 65.1982 24.3975 65.21 25.226C65.21 25.5416 65.21 25.9204 65.21 26.232C65.21 26.4529 65.0719 26.591 64.8313 26.591L64.8352 26.5871ZM64.0107 24.3186V23.8965H64.4367V24.3186H64.0107ZM64.7129 25.1905C64.7129 25.1076 64.6735 24.9893 64.5354 24.9893C64.2434 24.9893 64.2158 25.5613 64.5196 25.5613H64.7169C64.7169 25.443 64.7169 25.3167 64.7169 25.1944L64.7129 25.1905ZM64.6182 24.3186V23.8965H65.0482V24.3186H64.6182Z" fill="#243770"/>
<path d="M2.29581 22.6589C2.00781 22.6589 1.86579 22.4025 1.8579 22.3117H1.54228C1.13199 22.3117 1.01758 21.8935 1.01758 21.7081C1.01758 21.2268 1.34108 21.0769 1.56596 21.0769C1.68037 21.0769 1.7711 21.1006 1.84606 21.1716V21.0769H2.31948V22.0592C2.31948 22.1381 2.35893 22.2249 2.47729 22.2249H4.48538V22.6589H2.29187H2.29581ZM1.25429 20.8165V20.4102H1.66853V20.8165H1.25429ZM1.84606 21.5819C1.78294 21.5109 1.75138 21.4911 1.65669 21.4911C1.58568 21.4911 1.49889 21.5424 1.491 21.7042C1.48311 21.7673 1.5265 21.9133 1.63697 21.9133H1.85001V21.5819H1.84606ZM1.83423 20.8165V20.4102H2.24847V20.8165H1.83423Z" fill="#243770"/>
<path d="M5.74143 22.6576C5.55601 22.6576 5.44555 22.5392 5.39032 22.4524C5.29563 22.5826 5.12993 22.6576 4.96818 22.6576C4.77487 22.6576 4.62101 22.6576 4.43164 22.6576V22.2236H4.8301C4.92084 22.2236 5.04709 22.1684 5.04709 22.0461L5.0392 21.3359H5.51656C5.51656 21.5214 5.51656 21.7265 5.52445 21.9119C5.52445 22.1289 5.6862 22.2197 5.76905 22.2197H6.09255V22.6536H5.74143V22.6576ZM4.79854 23.3361V22.9298H5.21278V23.3361H4.79854ZM5.38242 23.3361V22.9298H5.79667V23.3361H5.38242Z" fill="#243770"/>
<path d="M8.96442 22.6583C8.779 22.6583 8.66853 22.5399 8.6133 22.4531C8.51862 22.5833 8.35292 22.6583 8.19117 22.6583C7.99785 22.6583 6.22648 22.6583 6.03711 22.6583V22.2243H8.05703C8.14777 22.2243 8.27402 22.1691 8.27402 22.0468L8.26613 21.3367H8.74349C8.74349 21.5221 8.74349 21.7272 8.75138 21.9126C8.75138 22.1296 8.91313 22.2204 8.99598 22.2204H10.9409V22.6543H8.96837L8.96442 22.6583ZM8.28585 21.0763V20.6699H8.70009V21.0763H8.28585Z" fill="#243770"/>
<path d="M12.459 22.6583C12.2618 22.6583 12.0685 22.6189 11.8909 22.5557C11.7174 22.6228 11.5319 22.6583 11.3347 22.6583H10.8691V22.2243H11.1492C11.24 22.2243 11.3228 22.2243 11.4017 22.2086C11.2597 22.0508 11.2084 21.8851 11.2084 21.7509C11.2084 21.3485 11.5359 21.1394 11.8909 21.1394C12.246 21.1394 12.5695 21.3485 12.5695 21.7509C12.5695 21.8851 12.5182 22.0468 12.3801 22.2086C12.4788 22.2243 12.5458 22.2243 12.6366 22.2243H14.5224V22.6583H12.4551H12.459ZM11.67 20.8751V20.4688H12.0843V20.8751H11.67ZM11.8909 21.5024C11.7529 21.5024 11.674 21.6089 11.674 21.747C11.674 21.96 11.8752 22.0942 11.8909 22.0942C11.9067 22.0942 12.1079 21.9679 12.1079 21.747C12.1079 21.6089 12.033 21.5024 11.8909 21.5024Z" fill="#243770"/>
<path d="M14.9995 22.6589H14.459V22.2249H14.8653C14.9679 22.2249 15.0389 22.1736 15.0389 22.0592C15.0389 21.8186 15.0271 20.6469 15.0271 20.4102H15.5084C15.5084 20.8086 15.5202 21.8344 15.5202 22.1736C15.5202 22.4695 15.3388 22.6589 14.9995 22.6589Z" fill="#243770"/>
<path d="M15.9826 22.6589L15.9668 20.4102H16.4442L16.4599 22.6589H15.9826Z" fill="#243770"/>
<path d="M18.7079 22.6589C18.4199 22.6589 18.2779 22.4025 18.27 22.3117H17.9544C17.5441 22.3117 17.4297 21.8935 17.4297 21.7081C17.4297 21.2268 17.7532 21.0769 17.9781 21.0769C18.0925 21.0769 18.1832 21.1006 18.2582 21.1716V21.0769H18.7316V22.0592C18.7316 22.1381 18.771 22.2249 18.8894 22.2249H21.0395V22.6589H18.704H18.7079ZM17.6703 20.8165V20.4102H18.0846V20.8165H17.6703ZM18.2621 21.5819C18.199 21.5109 18.1674 21.4911 18.0727 21.4911C18.0017 21.4911 17.9149 21.5424 17.9071 21.7042C17.8992 21.7673 17.9426 21.9133 18.053 21.9133H18.2661V21.5819H18.2621ZM18.2503 20.8165V20.4102H18.6645V20.8165H18.2503Z" fill="#243770"/>
<path d="M21.521 22.6575H20.9805V22.2236H21.3868C21.4894 22.2236 21.5604 22.1723 21.5604 22.0579C21.5604 21.8172 21.5604 21.5766 21.5525 21.3398H22.0299C22.0299 21.7344 22.0378 21.833 22.0378 22.1683C22.0378 22.4642 21.8563 22.6536 21.517 22.6536L21.521 22.6575ZM21.0041 23.3361V22.9297H21.4144V23.3361H21.0041ZM21.5841 23.3361V22.9297H21.9944V23.3361H21.5841Z" fill="#243770"/>
<path d="M22.799 22.3577V21.3398H23.2725L23.2843 22.3182C23.2606 22.914 22.9095 23.344 22.3059 23.3953C22.1639 23.2414 22.1402 23.1901 21.9863 23.0244C22.3374 22.9968 22.799 22.7562 22.799 22.3577Z" fill="#243770"/>
<path d="M24.1526 22.6589C23.9435 22.6589 23.7462 22.509 23.7423 22.221L23.7305 20.4102H24.2039L24.2157 22.0711C24.2157 22.1697 24.2631 22.2131 24.3301 22.2249H24.7168V22.6589H24.1565H24.1526Z" fill="#243770"/>
<path d="M24.6504 22.6575V22.2236H26.1535C26.0706 21.9395 25.8616 21.7699 25.6209 21.7699C25.3132 21.7699 25.1593 21.9237 25.1593 21.9237L24.9699 21.5805C25.0291 21.5095 25.2343 21.3398 25.6209 21.3398C26.1851 21.3398 26.4928 21.7501 26.6072 22.2236H28.7218V22.6575H24.6543H24.6504ZM25.4315 23.3361V22.9297H25.8458V23.3361H25.4315Z" fill="#243770"/>
<path d="M29.9719 22.6583C29.7865 22.6583 29.676 22.5399 29.6208 22.4531C29.5261 22.5833 29.3604 22.6583 29.1987 22.6583C29.0053 22.6583 28.8515 22.6583 28.6621 22.6583V22.2243H29.0606C29.1513 22.2243 29.2776 22.1691 29.2776 22.0468L29.2697 21.3367H29.747C29.747 21.5221 29.747 21.7272 29.7549 21.9126C29.7549 22.1296 29.9167 22.2204 29.9995 22.2204H30.323V22.6543H29.9719V22.6583ZM29.0053 21.0763V20.6699H29.4196V21.0763H29.0053ZM29.5892 21.0763V20.6699H30.0035V21.0723H29.5892V21.0763Z" fill="#243770"/>
<path d="M32.5598 22.6589H30.2598V22.2249H32.4257C32.5282 22.2249 32.5992 22.1736 32.5992 22.0592C32.5992 21.8186 32.5874 20.6469 32.5874 20.4102H33.0687C33.0687 20.8086 33.0806 21.8344 33.0806 22.1736C33.0806 22.4695 32.8991 22.6589 32.5598 22.6589Z" fill="#243770"/>
<path d="M33.5431 22.6589L33.5273 20.4102H34.0047L34.0205 22.6589H33.5431Z" fill="#243770"/>
<path d="M37.0457 22.6584H35.9805C35.1717 22.6584 34.9902 21.9285 34.9902 21.3407H35.4637C35.4637 21.8181 35.5899 22.2244 36.0002 22.2244H36.8642C36.9155 22.2244 36.947 22.1968 36.947 22.0982C36.9391 21.7747 36.9352 21.7194 36.9313 21.3367H37.4086C37.4165 21.6997 37.4165 21.968 37.4165 22.2836C37.4165 22.5479 37.2429 22.6544 37.0457 22.6544V22.6584ZM35.7161 21.2618V20.8594H36.1264V21.2618H35.7161ZM36.2961 21.2618V20.8594H36.7103V21.2618H36.2961Z" fill="#243770"/>
<path d="M38.1935 22.6589H37.7793V22.2249H38.0515C38.2843 22.2249 38.6512 22.1421 38.6512 21.8028C38.6512 21.8028 38.6512 21.7633 38.6354 20.4102H39.1167C39.1325 21.8423 39.1325 21.9606 39.1325 21.9606C39.1325 22.3827 38.7261 22.6589 38.1935 22.6589ZM37.9805 22.0001H37.8582L37.8385 20.4102H38.3119L38.3277 21.8659C38.2448 21.9843 38.1225 21.9961 37.9805 21.9961V22.0001Z" fill="#243770"/>
<path d="M40.0003 22.6589C39.7912 22.6589 39.5939 22.509 39.59 22.221L39.5781 20.4102H40.0515L40.0634 22.0711C40.0634 22.1697 40.1107 22.2131 40.1778 22.2249H42.2529V22.6589H40.0042H40.0003Z" fill="#243770"/>
<path d="M42.1855 22.6585V22.2245H43.7636C43.6531 21.759 43.1048 21.6485 42.655 21.9562L42.4775 21.6051L43.4638 20.6504L43.7912 20.9621L43.3691 21.3645C44.0437 21.4197 44.2528 22.0549 44.2528 22.6585H42.1855Z" fill="#243770"/>
<path d="M45.9736 22.6575C45.8513 23.0639 45.5239 23.3598 45.0544 23.3992C44.9124 23.2454 44.8808 23.1901 44.7309 23.0284C44.9794 23.0126 45.3187 22.8706 45.4608 22.6575H45.2911C44.9203 22.6575 44.6875 22.3222 44.6875 22.0145C44.6875 21.4898 45.1057 21.3398 45.3661 21.3398C45.441 21.3398 45.9855 21.3753 46.021 21.8882C46.021 21.904 46.021 21.9711 46.021 22.2236H46.4234V22.6575H45.9736ZM45.5436 21.9435C45.5436 21.8172 45.5239 21.691 45.3621 21.691C45.2162 21.691 45.1372 21.833 45.1372 21.9711C45.1372 22.1091 45.2043 22.2275 45.3503 22.2275H45.5436V21.9435Z" fill="#243770"/>
<path d="M49.4365 22.6589C49.2511 22.6589 49.1406 22.5406 49.0854 22.4538C48.9907 22.584 48.825 22.6589 48.6633 22.6589H46.3672V22.225H48.5252C48.6159 22.225 48.7422 22.1697 48.7422 22.0474L48.7343 20.4062H49.2116C49.2116 20.5917 49.2116 21.7279 49.2195 21.9133C49.2195 22.1303 49.3813 22.221 49.4641 22.221H49.7876V22.655H49.4365V22.6589Z" fill="#243770"/>
<path d="M52.0285 22.6589H49.7285V22.2249H51.8944C51.997 22.2249 52.068 22.1736 52.068 22.0592C52.068 21.8186 52.0562 20.6469 52.0562 20.4102H52.5375C52.5375 20.8086 52.5493 21.8344 52.5493 22.1736C52.5493 22.4695 52.3678 22.6589 52.0285 22.6589Z" fill="#243770"/>
<path d="M54.7512 22.6575C54.6565 22.6575 54.5776 22.626 54.5184 22.5826C54.4277 23.0402 54.0726 23.3558 53.5637 23.3953C53.4217 23.2414 53.398 23.1901 53.2441 23.0244C53.5953 22.9968 54.0608 22.7562 54.0568 22.3577L54.045 21.3398H54.5263L54.5342 21.9237C54.5342 22.1328 54.6999 22.2236 54.7788 22.2236H56.8658V22.6575H54.7473H54.7512Z" fill="#243770"/>
<path d="M56.8027 22.6588V22.2248H57.3432V21.637H57.8166V22.1735C58.1441 21.4555 58.6964 21.3174 58.9213 21.345C59.4539 21.3963 59.6275 21.7987 59.6827 22.2288H61.8762V22.6627H56.8027V22.6588ZM58.8266 21.7593C58.6688 21.7593 58.4084 21.8658 58.1717 22.2288H59.2172C59.2053 22.0197 59.1146 21.7593 58.8266 21.7593Z" fill="#243770"/>
<path d="M63.0986 22.6583C62.9132 22.6583 62.8027 22.5399 62.7475 22.4531C62.6528 22.5833 62.4871 22.6583 62.3254 22.6583C62.1321 22.6583 60.2187 22.6583 60.0293 22.6583V22.2243H62.1873C62.278 22.2243 62.4043 22.1691 62.4043 22.0468L62.3964 21.3367H62.8738C62.8738 21.5221 62.8738 21.7272 62.8816 21.9126C62.8816 22.1296 63.0434 22.2204 63.1262 22.2204H65.2093V22.6543H63.0986V22.6583ZM62.424 21.0763V20.6699H62.8383V21.0763H62.424Z" fill="#243770"/>
<mask id="mask0_2736_3432" style="mask-type:luminance" maskUnits="userSpaceOnUse" x="36" y="4" width="5" height="11">
<path d="M40.5364 4.76758L36.6465 4.77152V14.3188L40.5364 9.56884V4.76758Z" fill="white"/>
</mask>
<g mask="url(#mask0_2736_3432)">
<path d="M69.0208 -3.99805H-0.0195312V17.7003H69.0208V-3.99805Z" fill="url(#paint0_linear_2736_3432)"/>
</g>
<mask id="mask1_2736_3432" style="mask-type:luminance" maskUnits="userSpaceOnUse" x="33" y="0" width="16" height="4">
<path d="M37.0101 0.0839844L33.8105 3.95813H45.1332L48.309 0.0839844H37.0101Z" fill="white"/>
</mask>
<g mask="url(#mask1_2736_3432)">
<path d="M69.0208 -4H-0.0195312V17.6984H69.0208V-4Z" fill="url(#paint1_linear_2736_3432)"/>
</g>
<mask id="mask2_2736_3432" style="mask-type:luminance" maskUnits="userSpaceOnUse" x="46" y="0" width="22" height="17">
<path d="M56.9102 3.16121C56.776 2.99157 56.6301 2.82982 56.4841 2.67201C55.5728 1.69756 54.4563 0.971646 53.2254 0.541623C52.3654 0.241791 51.4501 0.0839844 50.5111 0.0839844H49.3907L46.2148 3.95813H50.5111C51.8328 3.95813 52.8467 4.54991 53.6712 5.5796L53.8014 5.74529L62.8555 16.7444H67.8541L56.9102 3.16121Z" fill="white"/>
</mask>
<g mask="url(#mask2_2736_3432)">
<path d="M69.0228 -4H-0.0175781V17.6984H69.0228V-4Z" fill="url(#paint2_linear_2736_3432)"/>
</g>
<mask id="mask3_2736_3432" style="mask-type:luminance" maskUnits="userSpaceOnUse" x="35" y="4" width="25" height="13">
<path d="M57.2847 11.1903L56.2037 9.90813H46.4473L49.7652 5.79332L49.635 5.62762C49.635 5.62762 49.6271 5.61579 49.6232 5.61184C49.201 5.07925 48.5619 4.76758 47.8873 4.76758H45.5597L35.748 16.7451H40.9872L43.3425 13.7981H59.4269L57.2926 11.1903H57.2847Z" fill="white"/>
</mask>
<g mask="url(#mask3_2736_3432)">
<path d="M69.0208 -3.99805H-0.0195312V17.7003H69.0208V-3.99805Z" fill="url(#paint3_linear_2736_3432)"/>
</g>
<mask id="mask4_2736_3432" style="mask-type:luminance" maskUnits="userSpaceOnUse" x="28" y="4" width="4" height="11">
<path d="M28.0703 4.76758L31.9602 4.77152V14.3188L28.0703 9.56884V4.76758Z" fill="white"/>
</mask>
<g mask="url(#mask4_2736_3432)">
<path d="M69.0208 -3.99805H-0.0195312V17.7003H69.0208V-3.99805Z" fill="url(#paint4_linear_2736_3432)"/>
</g>
<mask id="mask5_2736_3432" style="mask-type:luminance" maskUnits="userSpaceOnUse" x="20" y="0" width="16" height="4">
<path d="M35.9335 0.0839844L32.6906 3.95813H23.4747L20.2988 0.0839844H35.9335Z" fill="white"/>
</mask>
<g mask="url(#mask5_2736_3432)">
<path d="M69.0208 -4H-0.0195312V17.6984H69.0208V-4Z" fill="url(#paint5_linear_2736_3432)"/>
</g>
<mask id="mask6_2736_3432" style="mask-type:luminance" maskUnits="userSpaceOnUse" x="0" y="0" width="23" height="17">
<path d="M11.6978 3.16121C11.8319 2.99157 11.9779 2.82982 12.1239 2.67201C13.0352 1.69756 14.1517 0.971646 15.3826 0.541623C16.2426 0.241791 17.1579 0.0839844 18.0968 0.0839844H19.2173L22.3931 3.95813H18.1323H18.0968C16.7752 3.95813 15.7613 4.54991 14.9368 5.5796L14.8066 5.74529L5.75243 16.7444H0.753906L11.6978 3.16121Z" fill="white"/>
</mask>
<g mask="url(#mask6_2736_3432)">
<path d="M69.0208 -4H-0.0195312V17.6984H69.0208V-4Z" fill="url(#paint6_linear_2736_3432)"/>
</g>
<mask id="mask7_2736_3432" style="mask-type:luminance" maskUnits="userSpaceOnUse" x="9" y="4" width="24" height="13">
<path d="M11.3238 11.1903L12.4048 9.90813H22.1611L18.8433 5.79332L18.9735 5.62762C18.9735 5.62762 18.9813 5.61579 18.9853 5.61184C19.4074 5.07925 20.0465 4.76758 20.7212 4.76758H23.0488L32.8604 16.7451H27.6212L25.266 13.7981H9.18945L11.3238 11.1903Z" fill="white"/>
</mask>
<g mask="url(#mask7_2736_3432)">
<path d="M69.0208 -3.99805H-0.0195312V17.7003H69.0208V-3.99805Z" fill="url(#paint7_linear_2736_3432)"/>
</g>
<defs>
<linearGradient id="paint0_linear_2736_3432" x1="-0.0195312" y1="6.85115" x2="69.0208" y2="6.85115" gradientUnits="userSpaceOnUse">
<stop stop-color="#111D2F"/>
<stop offset="0.5" stop-color="#223F7D"/>
<stop offset="0.98" stop-color="#111E31"/>
<stop offset="1" stop-color="#111D2F"/>
</linearGradient>
<linearGradient id="paint1_linear_2736_3432" x1="-0.0195312" y1="6.8492" x2="69.0208" y2="6.8492" gradientUnits="userSpaceOnUse">
<stop stop-color="#111D2F"/>
<stop offset="0.5" stop-color="#223F7D"/>
<stop offset="0.98" stop-color="#111E31"/>
<stop offset="1" stop-color="#111D2F"/>
</linearGradient>
<linearGradient id="paint2_linear_2736_3432" x1="-0.0175781" y1="6.8492" x2="69.0228" y2="6.8492" gradientUnits="userSpaceOnUse">
<stop stop-color="#111D2F"/>
<stop offset="0.5" stop-color="#223F7D"/>
<stop offset="0.98" stop-color="#111E31"/>
<stop offset="1" stop-color="#111D2F"/>
</linearGradient>
<linearGradient id="paint3_linear_2736_3432" x1="-0.0195312" y1="6.85115" x2="69.0208" y2="6.85115" gradientUnits="userSpaceOnUse">
<stop stop-color="#111D2F"/>
<stop offset="0.5" stop-color="#223F7D"/>
<stop offset="0.98" stop-color="#111E31"/>
<stop offset="1" stop-color="#111D2F"/>
</linearGradient>
<linearGradient id="paint4_linear_2736_3432" x1="-0.0195312" y1="6.85115" x2="69.0208" y2="6.85115" gradientUnits="userSpaceOnUse">
<stop stop-color="#111D2F"/>
<stop offset="0.5" stop-color="#223F7D"/>
<stop offset="0.98" stop-color="#111E31"/>
<stop offset="1" stop-color="#111D2F"/>
</linearGradient>
<linearGradient id="paint5_linear_2736_3432" x1="-0.0195312" y1="6.8492" x2="69.0208" y2="6.8492" gradientUnits="userSpaceOnUse">
<stop stop-color="#111D2F"/>
<stop offset="0.5" stop-color="#223F7D"/>
<stop offset="0.98" stop-color="#111E31"/>
<stop offset="1" stop-color="#111D2F"/>
</linearGradient>
<linearGradient id="paint6_linear_2736_3432" x1="-0.0195312" y1="6.8492" x2="69.0208" y2="6.8492" gradientUnits="userSpaceOnUse">
<stop stop-color="#111D2F"/>
<stop offset="0.5" stop-color="#223F7D"/>
<stop offset="0.98" stop-color="#111E31"/>
<stop offset="1" stop-color="#111D2F"/>
</linearGradient>
<linearGradient id="paint7_linear_2736_3432" x1="-0.0195312" y1="6.85115" x2="69.0208" y2="6.85115" gradientUnits="userSpaceOnUse">
<stop stop-color="#111D2F"/>
<stop offset="0.5" stop-color="#223F7D"/>
<stop offset="0.98" stop-color="#111E31"/>
<stop offset="1" stop-color="#111D2F"/>
</linearGradient>
</defs>
</svg>
