<svg width="66" height="40" viewBox="0 0 66 40" fill="none" xmlns="http://www.w3.org/2000/svg">
<g clip-path="url(#clip0_2736_5938)">
<path d="M0.79665 39.8923C0.570165 39.823 0.389901 39.7306 0.255859 39.6196L0.459234 39.1667C0.588653 39.2684 0.745806 39.3515 0.935314 39.4163C1.12482 39.481 1.31433 39.5133 1.50384 39.5133C1.73957 39.5133 1.91521 39.4763 2.03076 39.4024C2.14631 39.3284 2.2064 39.2268 2.2064 39.102C2.2064 39.0141 2.17405 38.9356 2.10934 38.8801C2.04463 38.82 1.96143 38.7738 1.86436 38.7414C1.7673 38.7091 1.62863 38.6721 1.45762 38.6305C1.21726 38.575 1.02313 38.5149 0.875226 38.4595C0.727318 38.404 0.597898 38.3116 0.491589 38.1914C0.385279 38.0712 0.329814 37.9048 0.329814 37.6968C0.329814 37.5212 0.376035 37.364 0.4731 37.2207C0.570165 37.0775 0.708829 36.9619 0.902959 36.8787C1.09709 36.7955 1.3282 36.7539 1.60552 36.7539C1.79965 36.7539 1.98916 36.777 2.17405 36.8279C2.35893 36.8741 2.52071 36.9434 2.65937 37.0359L2.47449 37.4888C2.33582 37.4056 2.19254 37.3455 2.04001 37.3039C1.88747 37.2623 1.74419 37.2392 1.6009 37.2392C1.3698 37.2392 1.19878 37.2808 1.08322 37.3594C0.967669 37.438 0.912203 37.5397 0.912203 37.6691C0.912203 37.7615 0.944558 37.8355 1.00927 37.891C1.07398 37.9464 1.15718 37.9926 1.25424 38.025C1.35131 38.0573 1.48997 38.0943 1.66099 38.1359C1.89672 38.1914 2.08623 38.2469 2.23876 38.3069C2.39129 38.367 2.51609 38.4549 2.6224 38.575C2.7287 38.6952 2.78417 38.857 2.78417 39.0604C2.78417 39.236 2.73795 39.3931 2.64088 39.5318C2.54382 39.6705 2.40053 39.786 2.21102 39.8692C2.01689 39.9524 1.78579 39.994 1.50846 39.994C1.26349 39.994 1.02776 39.9617 0.801272 39.8923H0.79665Z" fill="#243770"/>
<path d="M5.40416 39.2235H3.82339L3.5137 39.9538H2.9082L4.3272 36.7969H4.90497L6.32859 39.9538H5.71384L5.39954 39.2235H5.40416ZM5.21465 38.7613L4.61839 37.3793L4.02676 38.7613H5.21465Z" fill="#243770"/>
<path d="M7.32334 37.2868V38.2482H8.84865V38.7428H7.32334V39.9538H6.73633V36.7969H9.04278V37.2868H7.32334Z" fill="#243770"/>
<path d="M11.9779 39.458V39.9479H9.61133V36.791H11.9178V37.281H10.1983V38.1037H11.7236V38.5844H10.1983V39.4534H11.9779V39.458Z" fill="#243770"/>
<path d="M13.277 37.2914H12.2324V36.7969H14.9133V37.2914H13.8687V39.9538H13.2816V37.2914H13.277Z" fill="#243770"/>
<path d="M16.6695 38.8399V39.9538H16.0825V38.8491L14.8438 36.7969H15.4724L16.3968 38.336L17.3305 36.7969H17.9082L16.6741 38.8399H16.6695Z" fill="#243770"/>
<path d="M19.5293 36.7969H20.1163V39.4592H21.7664V39.9538H19.5293V36.7969Z" fill="#243770"/>
<path d="M22.2344 36.7969H22.8214V39.9538H22.2344V36.7969Z" fill="#243770"/>
<path d="M24.2589 37.2868V38.2482H25.7842V38.7428H24.2589V39.9538H23.6719V36.7969H25.9783V37.2868H24.2589Z" fill="#243770"/>
<path d="M27.2067 37.2914H26.1621V36.7969H28.843V37.2914H27.7983V39.9538H27.2113V37.2914H27.2067Z" fill="#243770"/>
<path d="M29.2832 36.7969H29.8702V39.9538H29.2832V36.7969Z" fill="#243770"/>
<path d="M33.5302 36.7969V39.9538H33.0495L31.307 37.8137V39.9538H30.7246V36.7969H31.2053L32.9479 38.9369V36.7969H33.5302Z" fill="#243770"/>
<path d="M36.5308 38.34H37.0854V39.5972C36.9237 39.7267 36.7342 39.8237 36.5169 39.8931C36.2997 39.9624 36.0778 39.9947 35.8513 39.9947C35.5278 39.9947 35.2412 39.9254 34.9824 39.7867C34.7235 39.6481 34.5202 39.454 34.3723 39.209C34.2243 38.964 34.1504 38.6821 34.1504 38.3724C34.1504 38.0627 34.2243 37.7854 34.3723 37.5358C34.5202 37.2862 34.7235 37.0967 34.9824 36.958C35.2412 36.8193 35.5324 36.75 35.8606 36.75C36.124 36.75 36.3644 36.7916 36.5816 36.8794C36.7989 36.9672 36.9791 37.0967 37.127 37.2631L36.7573 37.6236C36.5169 37.3832 36.2257 37.2631 35.8883 37.2631C35.6665 37.2631 35.4677 37.3093 35.2967 37.4017C35.1257 37.4942 34.987 37.6282 34.8899 37.7946C34.7929 37.961 34.742 38.1551 34.742 38.3724C34.742 38.5896 34.7929 38.7745 34.8899 38.9409C34.987 39.1073 35.121 39.2413 35.2967 39.3384C35.4677 39.4355 35.6665 39.4817 35.8837 39.4817C36.1287 39.4817 36.3459 39.4262 36.5354 39.3199V38.3354L36.5308 38.34Z" fill="#243770"/>
<path d="M39.3767 39.8923C39.1502 39.823 38.97 39.7306 38.8359 39.6196L39.0393 39.1667C39.1687 39.2684 39.3259 39.3515 39.5154 39.4163C39.7049 39.481 39.8944 39.5133 40.0839 39.5133C40.3196 39.5133 40.4953 39.4763 40.6108 39.4024C40.7264 39.3284 40.7865 39.2268 40.7865 39.102C40.7865 39.0141 40.7541 38.9356 40.6894 38.8801C40.6247 38.82 40.5415 38.7738 40.4444 38.7414C40.3474 38.7091 40.2087 38.6721 40.0377 38.6305C39.7973 38.575 39.6032 38.5149 39.4553 38.4595C39.3074 38.404 39.178 38.3116 39.0717 38.1914C38.9654 38.0712 38.9099 37.9048 38.9099 37.6968C38.9099 37.5212 38.9561 37.364 39.0532 37.2207C39.1502 37.0775 39.2889 36.9619 39.483 36.8787C39.6772 36.7955 39.9083 36.7539 40.1856 36.7539C40.3797 36.7539 40.5692 36.777 40.7541 36.8279C40.939 36.8741 41.1008 36.9434 41.2395 37.0359L41.0546 37.4888C40.9159 37.4056 40.7726 37.3455 40.6201 37.3039C40.4676 37.2623 40.3243 37.2392 40.181 37.2392C39.9499 37.2392 39.7789 37.2808 39.6633 37.3594C39.5477 37.438 39.4923 37.5397 39.4923 37.6691C39.4923 37.7615 39.5246 37.8355 39.5893 37.891C39.6541 37.9464 39.7373 37.9926 39.8343 38.025C39.9314 38.0573 40.07 38.0943 40.2411 38.1359C40.4768 38.1914 40.6663 38.2469 40.8188 38.3069C40.9714 38.367 41.0962 38.4549 41.2025 38.575C41.3088 38.6952 41.3642 38.857 41.3642 39.0604C41.3642 39.236 41.318 39.3931 41.221 39.5318C41.1239 39.6705 40.9806 39.786 40.7911 39.8692C40.597 39.9524 40.3659 39.994 40.0885 39.994C39.8436 39.994 39.6078 39.9617 39.3814 39.8923H39.3767Z" fill="#243770"/>
<path d="M42.5429 39.7867C42.2841 39.6481 42.0807 39.454 41.9328 39.2044C41.7849 38.9548 41.7109 38.6774 41.7109 38.3724C41.7109 38.0673 41.7849 37.79 41.9328 37.5404C42.0807 37.2908 42.2841 37.0967 42.5429 36.958C42.8018 36.8193 43.093 36.75 43.4119 36.75C43.7308 36.75 44.022 36.8193 44.2808 36.958C44.5397 37.0967 44.7431 37.2908 44.891 37.5358C45.0389 37.7807 45.1128 38.0627 45.1128 38.3724C45.1128 38.6821 45.0389 38.9594 44.891 39.209C44.7431 39.454 44.5397 39.6481 44.2808 39.7867C44.022 39.9254 43.7308 39.9947 43.4119 39.9947C43.093 39.9947 42.8018 39.9254 42.5429 39.7867ZM43.985 39.343C44.1514 39.2506 44.2855 39.1165 44.3825 38.9455C44.4796 38.7745 44.5258 38.585 44.5258 38.377C44.5258 38.169 44.4796 37.9749 44.3825 37.8085C44.2855 37.6375 44.156 37.508 43.985 37.411C43.814 37.3139 43.6291 37.2677 43.4165 37.2677C43.2039 37.2677 43.0144 37.3139 42.848 37.411C42.6816 37.508 42.5475 37.6375 42.4505 37.8085C42.3534 37.9795 42.3072 38.169 42.3072 38.377C42.3072 38.585 42.3534 38.7791 42.4505 38.9455C42.5475 39.1165 42.677 39.246 42.848 39.343C43.0144 39.4355 43.2039 39.4863 43.4165 39.4863C43.6291 39.4863 43.814 39.4401 43.985 39.343Z" fill="#243770"/>
<path d="M45.7383 36.7969H46.3253V39.4592H47.9754V39.9538H45.7383V36.7969Z" fill="#243770"/>
<path d="M48.7323 39.6302C48.4874 39.3853 48.3672 39.034 48.3672 38.5764V36.7969H48.9542V38.5579C48.9542 39.1773 49.2223 39.487 49.7585 39.487C50.2946 39.487 50.5581 39.1773 50.5581 38.5579V36.7969H51.1358V38.5764C51.1358 39.034 51.0157 39.3853 50.7707 39.6302C50.5257 39.8752 50.1883 39.9954 49.7538 39.9954C49.3193 39.9954 48.9773 39.8752 48.737 39.6302H48.7323Z" fill="#243770"/>
<path d="M52.5368 37.2914H51.4922V36.7969H54.173V37.2914H53.1284V39.9538H52.5414V37.2914H52.5368Z" fill="#243770"/>
<path d="M54.6113 36.7969H55.1983V39.9538H54.6113V36.7969Z" fill="#243770"/>
<path d="M56.6543 39.7867C56.3954 39.6481 56.192 39.454 56.0441 39.2044C55.8962 38.9548 55.8223 38.6774 55.8223 38.3724C55.8223 38.0673 55.8962 37.79 56.0441 37.5404C56.192 37.2908 56.3954 37.0967 56.6543 36.958C56.9131 36.8193 57.2043 36.75 57.5232 36.75C57.8421 36.75 58.1333 36.8193 58.3922 36.958C58.651 37.0967 58.8544 37.2908 59.0023 37.5358C59.1502 37.7807 59.2242 38.0627 59.2242 38.3724C59.2242 38.6821 59.1502 38.9594 59.0023 39.209C58.8544 39.454 58.651 39.6481 58.3922 39.7867C58.1333 39.9254 57.8421 39.9947 57.5232 39.9947C57.2043 39.9947 56.9131 39.9254 56.6543 39.7867ZM58.0917 39.343C58.2581 39.2506 58.3922 39.1165 58.4892 38.9455C58.5863 38.7745 58.6325 38.585 58.6325 38.377C58.6325 38.169 58.5863 37.9749 58.4892 37.8085C58.3922 37.6375 58.2628 37.508 58.0917 37.411C57.9207 37.3139 57.7358 37.2677 57.5232 37.2677C57.3106 37.2677 57.1211 37.3139 56.9547 37.411C56.7883 37.508 56.6543 37.6375 56.5572 37.8085C56.4601 37.9795 56.4139 38.169 56.4139 38.377C56.4139 38.585 56.4601 38.7791 56.5572 38.9455C56.6543 39.1165 56.7837 39.246 56.9547 39.343C57.1257 39.4401 57.3106 39.4863 57.5232 39.4863C57.7358 39.4863 57.9207 39.4401 58.0917 39.343Z" fill="#243770"/>
<path d="M62.6553 36.7969V39.9538H62.1745L60.432 37.8137V39.9538H59.8496V36.7969H60.3303L62.0729 38.9369V36.7969H62.6553Z" fill="#243770"/>
<path d="M63.7732 39.8923C63.5467 39.823 63.3665 39.7306 63.2324 39.6196L63.4358 39.1667C63.5652 39.2684 63.7224 39.3515 63.9119 39.4163C64.1014 39.481 64.2909 39.5133 64.4804 39.5133C64.7161 39.5133 64.8918 39.4763 65.0073 39.4024C65.1229 39.3284 65.183 39.2268 65.183 39.102C65.183 39.0141 65.1506 38.9356 65.0859 38.8801C65.0212 38.82 64.938 38.7738 64.8409 38.7414C64.7439 38.7091 64.6052 38.6721 64.4342 38.6305C64.1938 38.575 63.9997 38.5149 63.8518 38.4595C63.7039 38.404 63.5745 38.3116 63.4681 38.1914C63.3618 38.0712 63.3064 37.9048 63.3064 37.6968C63.3064 37.5212 63.3526 37.364 63.4497 37.2207C63.5467 37.0775 63.6854 36.9619 63.8795 36.8787C64.0736 36.7955 64.3048 36.7539 64.5821 36.7539C64.7762 36.7539 64.9657 36.777 65.1506 36.8279C65.3355 36.8741 65.4973 36.9434 65.6359 37.0359L65.4511 37.4888C65.3124 37.4056 65.1691 37.3455 65.0166 37.3039C64.864 37.2623 64.7207 37.2392 64.5775 37.2392C64.3464 37.2392 64.1753 37.2808 64.0598 37.3594C63.9442 37.438 63.8888 37.5397 63.8888 37.6691C63.8888 37.7615 63.9211 37.8355 63.9858 37.891C64.0505 37.9464 64.1337 37.9926 64.2308 38.025C64.3279 38.0573 64.4665 38.0943 64.6375 38.1359C64.8733 38.1914 65.0628 38.2469 65.2153 38.3069C65.3678 38.367 65.4926 38.4549 65.599 38.575C65.7053 38.6952 65.7607 38.857 65.7607 39.0604C65.7607 39.236 65.7145 39.3931 65.6174 39.5318C65.5204 39.6705 65.3771 39.786 65.1876 39.8692C64.9935 39.9524 64.7623 39.994 64.485 39.994C64.24 39.994 64.0043 39.9617 63.7778 39.8923H63.7732Z" fill="#243770"/>
<path d="M3.04711 34.2398H1.59576C0.495689 34.2398 0.246094 33.2553 0.246094 32.4603H0.888571C0.888571 33.1028 1.05959 33.6574 1.62349 33.6574H2.80676C2.87609 33.6574 2.91769 33.6205 2.91769 33.4911C2.90845 33.0519 2.90382 32.9826 2.89458 32.4649H3.55092C3.56017 32.9549 3.56017 33.32 3.56017 33.7453C3.56017 34.1012 3.31982 34.2445 3.05173 34.2445L3.04711 34.2398ZM1.23061 32.3494V31.8086H1.78989V32.3494H1.23061ZM2.021 32.3494V31.8086H2.5849V32.3494H2.021Z" fill="#243770"/>
<path d="M4.73792 34.2399C4.45135 34.2399 4.18327 34.0411 4.17864 33.6482L4.16016 31.2031H4.81188L4.82574 33.4449C4.82574 33.5743 4.89045 33.6344 4.97827 33.6529H5.5052V34.2352H4.73792V34.2399Z" fill="#243770"/>
<path d="M7.74701 34.241C7.52977 34.241 7.3495 34.1301 7.25706 34.0469C7.00746 34.1625 6.73938 34.241 6.46667 34.241H5.4082V33.6586H6.46667C6.62845 33.6586 6.73476 33.6494 6.8688 33.6124C6.62845 33.349 6.35112 33.141 5.90277 33.1179V32.6556C6.79947 32.0455 7.955 32.2258 8.57437 32.7989C8.39873 33.1132 8.15375 33.4091 7.86718 33.6586H8.92565V34.241H7.75163H7.74701ZM6.85956 32.8683C7.06755 32.9653 7.26168 33.141 7.40035 33.2981C7.52977 33.1964 7.6407 33.0855 7.73314 32.9561C7.5575 32.8683 7.20622 32.7851 6.85956 32.8683Z" fill="#243770"/>
<path d="M10.5264 34.2402H8.83008V33.6578H10.2537C10.3277 33.6578 10.3739 33.6255 10.3739 33.5192V33.4822H10.0411C9.50953 33.4822 9.18136 33.0385 9.19985 32.6086C9.23683 31.3745 11.0025 31.4022 11.0164 32.4792C11.021 32.8859 11.0164 33.3759 11.0164 33.7826C11.021 34.0692 10.8361 34.2449 10.5218 34.2449L10.5264 34.2402ZM10.3693 32.4284C10.3693 32.322 10.3184 32.1649 10.1381 32.1649C9.75451 32.1649 9.71753 32.9044 10.1197 32.9044H10.3785C10.3785 32.7519 10.3739 32.5855 10.3739 32.4284H10.3693ZM9.85157 31.3052V30.7598H10.4109V31.3052H9.85157Z" fill="#243770"/>
<path d="M11.6481 34.2399L11.625 31.2031H12.2767L12.2998 34.2399H11.6481Z" fill="#243770"/>
<path d="M14.2783 34.2397C14.1489 34.2397 14.0379 34.1981 13.9593 34.1381C13.8345 34.7574 13.3492 35.1827 12.6559 35.2381C12.4664 35.0301 12.4294 34.9608 12.2168 34.7389C12.6975 34.702 13.3354 34.3738 13.3261 33.8376L13.3122 32.4648H13.9686L13.9778 33.2552C13.9825 33.5418 14.2043 33.662 14.3152 33.662H14.7636V34.2444H14.2736L14.2783 34.2397Z" fill="#243770"/>
<path d="M16.4692 34.2399C16.2196 34.2399 16.0624 34.0827 15.9885 33.9625C15.8591 34.1382 15.6326 34.2399 15.4107 34.2399H14.6758V33.6575H15.2212C15.346 33.6575 15.5216 33.5835 15.5216 33.4171L15.5124 31.2031H16.1687C16.1687 31.4573 16.1687 32.9873 16.178 33.2415C16.1826 33.5373 16.3952 33.6575 16.5108 33.6575H16.9545V34.2399H16.4738H16.4692Z" fill="#243770"/>
<path d="M17.6028 34.2399H16.8633V33.6575H17.4179C17.5566 33.6575 17.6583 33.5881 17.6583 33.431C17.6583 33.1028 17.6444 31.5267 17.6398 31.2031H18.2961C18.3008 31.7393 18.31 33.1259 18.31 33.5835C18.31 33.981 18.0604 34.2399 17.5982 34.2399H17.6028Z" fill="#243770"/>
<path d="M21.3793 34.2409C20.9864 34.2409 20.7923 33.8942 20.783 33.7741H20.3532C19.7939 33.7741 19.6367 33.2102 19.6367 32.9559C19.6367 32.3042 20.0804 32.1055 20.3855 32.1055C20.538 32.1055 20.6675 32.1378 20.7691 32.2303V32.1055H21.4209V33.432C21.4255 33.5383 21.4717 33.6585 21.6381 33.6585H22.1697V34.2409H21.3839H21.3793ZM20.7691 32.7803C20.6813 32.6879 20.6397 32.6601 20.5103 32.6601C20.4132 32.6601 20.2931 32.7295 20.2792 32.9513C20.27 33.0345 20.3254 33.2333 20.4779 33.2333H20.7691V32.7849V32.7803Z" fill="#243770"/>
<path d="M23.8696 34.2402C23.62 34.2402 23.4628 34.083 23.3889 33.9628C23.2594 34.1385 23.033 34.2402 22.8111 34.2402C22.5476 34.2448 22.3396 34.2402 22.0762 34.2402V33.6578H22.6216C22.7464 33.6578 22.922 33.5838 22.922 33.4174L22.9128 32.4606H23.5691C23.5691 32.7148 23.5691 32.9876 23.5784 33.2418C23.583 33.5376 23.7956 33.6578 23.9112 33.6578H24.3549V34.2402H23.8742H23.8696ZM22.9451 32.1001V31.5547H23.509V32.1001H22.9451Z" fill="#243770"/>
<path d="M25.7104 34.2403H24.2637V33.6579H24.8091C24.7767 33.5563 24.7629 33.4499 24.7629 33.3344C24.7629 32.8167 25.0864 32.4238 25.7104 32.4238C26.3344 32.4238 26.6579 32.8167 26.6579 33.3298C26.6579 33.8428 26.3344 34.2403 25.7104 34.2403ZM25.7104 32.9323C25.4701 32.9323 25.3961 33.1356 25.3961 33.3344C25.3961 33.5331 25.4654 33.7273 25.7104 33.7273C25.9554 33.7273 26.0247 33.5239 26.0247 33.3344C26.0247 33.1356 25.9508 32.9323 25.7104 32.9323Z" fill="#243770"/>
<path d="M27.7065 34.2399H27.1426V33.6575H27.517C27.8359 33.6575 28.3351 33.5465 28.3351 33.089C28.3351 33.089 28.3351 33.0381 28.312 31.2077H28.9683C28.9914 33.1398 28.9914 33.3016 28.9914 33.3016C28.9914 33.8701 28.4368 34.2445 27.7065 34.2445V34.2399ZM27.4199 33.3478H27.2535L27.2258 31.2031H27.8729L27.896 33.1722C27.7851 33.3293 27.614 33.3478 27.4199 33.3478Z" fill="#243770"/>
<path d="M29.6208 34.2399L29.5977 31.2031H30.254L30.2771 34.2399H29.6254H29.6208Z" fill="#243770"/>
<path d="M32.9335 35.2567C32.1985 35.2567 31.6161 34.6651 31.6161 33.9487C31.6161 33.8146 31.5977 33.2646 31.5977 32.9826H32.2494C32.2494 33.2369 32.2586 33.8516 32.2586 33.9533C32.2632 34.3323 32.5683 34.6374 32.9335 34.6374C33.2986 34.6374 33.6129 34.3277 33.6083 33.9487L33.5898 31.2031H34.2461L34.2554 33.9533C34.2554 34.6697 33.6684 35.2567 32.9381 35.2567H32.9335Z" fill="#243770"/>
<path d="M36.5943 34.2405C36.4279 34.7859 35.9749 35.188 35.3371 35.2388C35.1476 35.0308 35.1014 34.9569 34.8934 34.7397C35.2354 34.7165 35.6976 34.5224 35.8917 34.2405H35.6606C35.1568 34.2405 34.8379 33.7875 34.8379 33.3715C34.8379 32.6597 35.4064 32.4609 35.7623 32.4609C35.864 32.4609 36.6082 32.5072 36.6544 33.2051C36.6544 33.2236 36.6544 33.316 36.6544 33.6581H37.2044V34.2405H36.5897H36.5943ZM36.0073 33.2698C36.0073 33.1034 35.9796 32.9278 35.7577 32.9278C35.5589 32.9278 35.448 33.1219 35.448 33.3068C35.448 33.4824 35.5405 33.6534 35.7392 33.6534H36.0073V33.2698Z" fill="#243770"/>
<path d="M38.9145 34.2399C38.6649 34.2399 38.5077 34.0827 38.4338 33.9625C38.3044 34.1382 38.0779 34.2399 37.856 34.2399H37.1211V33.6575H37.6665C37.7913 33.6575 37.9669 33.5835 37.9669 33.4171L37.9577 31.2031H38.614C38.614 31.4573 38.614 32.9873 38.6233 33.2415C38.6279 33.5373 38.8405 33.6575 38.9561 33.6575H39.3998V34.2399H38.9191H38.9145Z" fill="#243770"/>
<path d="M39.3086 34.2397V33.6574H41.3608C41.2499 33.2737 40.9633 33.0472 40.6305 33.0472C40.2099 33.0472 40.0019 33.2552 40.0019 33.2552L39.7431 32.793C39.8216 32.7006 40.1036 32.4648 40.6305 32.4648C41.4024 32.4648 41.823 33.0195 41.9756 33.6574H42.4609V34.2397H39.3086Z" fill="#243770"/>
<path d="M43.1126 34.2399H42.373V33.6575H42.9277C43.0664 33.6575 43.1681 33.5881 43.1681 33.431C43.1681 33.1028 43.1542 31.5267 43.1496 31.2031H43.8059C43.8105 31.7393 43.8198 33.1259 43.8198 33.5835C43.8198 33.981 43.5702 34.2399 43.108 34.2399H43.1126Z" fill="#243770"/>
<path d="M44.4469 34.2399L44.4238 31.2031H45.0802L45.1033 34.2399H44.4516H44.4469Z" fill="#243770"/>
<path d="M50.7619 34.2772C50.5724 34.2772 50.3228 34.2403 50.1471 34.0092C50.0085 34.194 49.7912 34.268 49.5462 34.2772C49.403 34.2772 49.2273 34.2541 49.0748 34.1524C48.9823 34.7718 48.4323 35.2618 47.7713 35.2618C47.0364 35.2618 46.454 34.6701 46.454 33.9537C46.454 33.8197 46.4355 33.2696 46.4355 32.9877H47.0873C47.0873 33.2419 47.0965 33.8566 47.0965 33.9583C47.1011 34.3373 47.4062 34.6424 47.7713 34.6424C48.1365 34.6424 48.4554 34.3327 48.4462 33.9537L48.4277 32.5994H49.0794L49.0887 33.3759C49.1256 33.6024 49.2735 33.6949 49.4399 33.6949C49.5647 33.6949 49.6479 33.6394 49.6479 33.4776C49.6479 33.1957 49.6433 32.8814 49.6433 32.5994H50.2997C50.2997 32.8721 50.2997 33.2927 50.2997 33.2927C50.3043 33.5885 50.4753 33.6995 50.6602 33.6995C50.785 33.6995 50.8682 33.644 50.8682 33.4822C50.8682 33.0385 50.8636 32.9969 50.8636 32.4746H51.5153C51.5199 32.9969 51.5338 33.0662 51.5245 33.51C51.5245 34.0415 51.2102 34.2819 50.7757 34.2911L50.7619 34.2772Z" fill="#243770"/>
<path d="M52.1657 34.2399L52.1426 31.2031H52.7989L52.822 34.2399H52.1703H52.1657Z" fill="#243770"/>
<path d="M58.4806 34.2772C58.2911 34.2772 58.0415 34.2403 57.8659 34.0092C57.7272 34.194 57.51 34.268 57.265 34.2772C57.1217 34.2772 56.9461 34.2541 56.7935 34.1524C56.7011 34.7718 56.1511 35.2618 55.4901 35.2618C54.7552 35.2618 54.1728 34.6701 54.1728 33.9537C54.1728 33.8197 54.1543 33.2696 54.1543 32.9877H54.806C54.806 33.2419 54.8153 33.8566 54.8153 33.9583C54.8199 34.3373 55.1249 34.6424 55.4901 34.6424C55.8552 34.6424 56.1742 34.3327 56.1649 33.9537L56.1464 32.5994H56.7982L56.8074 33.3759C56.8444 33.6024 56.9923 33.6949 57.1587 33.6949C57.2835 33.6949 57.3667 33.6394 57.3667 33.4776C57.3667 33.1957 57.3621 32.8814 57.3621 32.5994H58.0184C58.0184 32.8721 58.0184 33.2927 58.0184 33.2927C58.023 33.5885 58.194 33.6995 58.3789 33.6995C58.5037 33.6995 58.5869 33.644 58.5869 33.4822C58.5869 33.0385 58.5823 32.9969 58.5823 32.4746H59.234C59.2387 32.9969 59.2525 33.0662 59.2433 33.51C59.2433 34.0415 58.929 34.2819 58.4945 34.2911L58.4806 34.2772Z" fill="#243770"/>
<path d="M59.8903 34.2399L59.8672 31.2031H60.5235L60.5466 34.2399H59.8949H59.8903Z" fill="#243770"/>
<path d="M62.5995 33.8337V32.4609H63.2466L63.2651 33.7829C63.2328 34.5871 62.7521 35.1695 61.9293 35.2342C61.7398 35.0262 61.7029 34.9569 61.4902 34.735C61.9709 34.6981 62.5995 34.3699 62.5995 33.8337Z" fill="#243770"/>
<path d="M63.8883 34.2399L63.8652 31.2031H64.5216L64.5447 34.2399H63.893H63.8883Z" fill="#243770"/>
<path d="M30.0664 9.43763C30.0664 8.0325 31.0278 7.01562 32.4098 7.01562C33.7919 7.01562 34.7255 8.00476 34.7255 9.43763C34.7255 10.8705 33.7872 11.8319 32.3821 11.8319C30.977 11.8319 30.0664 10.815 30.0664 9.43763Z" fill="#F05A27"/>
<path d="M36.7924 17.9478C40.0787 16.3901 42.3297 12.9882 42.191 9.08713C42.0108 3.95193 37.5504 0 32.4106 0H21.1233C21.0956 0 21.0817 0.032355 21.1002 0.0508435L24.8164 4.33095C24.8164 4.33095 24.8303 4.34019 24.8395 4.34019H32.5493C35.0036 4.34019 37.2685 5.97643 37.7492 8.37994C38.3963 11.6339 35.9142 14.4997 32.7757 14.4997H28.0981C28.0704 14.4997 28.0565 14.532 28.075 14.5505L37.9618 25.9949C37.9618 25.9949 37.9757 26.0042 37.9849 26.0042H43.6424C43.6701 26.0042 43.684 25.9718 43.6655 25.9533L36.7831 17.9847C36.7831 17.9847 36.7739 17.9478 36.7924 17.9385V17.9478Z" fill="#1A428A"/>
<path d="M26.5027 14.559V21.1594C26.5027 21.1594 26.5027 21.1733 26.5119 21.1826L30.8521 26.0034C30.8521 26.0034 30.866 26.0127 30.8752 26.0127H36.4403C36.468 26.0127 36.4819 25.9803 36.4634 25.9619L26.5535 14.5405C26.5535 14.5405 26.498 14.5313 26.498 14.559H26.5027Z" fill="#1A428A"/>
</g>
<defs>
<clipPath id="clip0_2736_5938">
<rect width="65.5096" height="40" fill="white" transform="translate(0.246094)"/>
</clipPath>
</defs>
</svg>
