<svg width="38" height="40" viewBox="0 0 38 40" fill="none" xmlns="http://www.w3.org/2000/svg">
<g clip-path="url(#clip0_2736_5680)">
<path d="M11.749 26.3379V32.7483H10.7559V26.3379H11.749Z" fill="#221F1F"/>
<path d="M24.7924 32.7443V32.0857C24.4074 32.561 23.7886 32.7947 23.0106 32.7947C21.8448 32.7947 21.1172 32.0751 21.1172 31.1244C21.1172 30.1737 21.8554 29.5125 23.154 29.5045H24.7845V29.3426C24.7845 28.6628 24.3489 28.2591 23.4992 28.2591C22.9814 28.2591 22.4449 28.4423 21.9085 28.8061L21.4332 27.9962C22.182 27.5501 22.7291 27.3164 23.7541 27.3164C25.1429 27.3164 25.921 28.0254 25.9316 29.2098L25.9423 32.7443H24.7977H24.7924ZM24.7845 30.8482V30.3517H23.3266C22.5671 30.3517 22.2113 30.5535 22.2113 31.0713C22.2113 31.5573 22.6069 31.8706 23.2549 31.8706C24.0861 31.8706 24.7234 31.4351 24.7845 30.8482Z" fill="#221F1F"/>
<path d="M29.0185 28.2361C28.5617 28.2361 28.2271 28.3874 28.2271 28.7725C28.2271 29.7656 31.0951 29.2292 31.0845 31.1837C31.0845 32.2884 30.1019 32.785 29.0185 32.785C28.2271 32.785 27.388 32.5221 26.8516 32.0361L27.2658 31.2049C27.7305 31.6192 28.482 31.8741 29.0689 31.8741C29.5655 31.8741 29.9505 31.7015 29.9505 31.2979C29.9505 30.1932 27.1145 30.8119 27.1251 28.8654C27.1251 27.7714 28.0784 27.3066 29.1114 27.3066C29.7912 27.3066 30.5082 27.5085 30.9968 27.8537L30.5719 28.7141C30.0966 28.4193 29.4991 28.2387 29.0211 28.2387L29.0185 28.2361Z" fill="#221F1F"/>
<path d="M35.2878 27.3145V28.4298C34.2043 28.3687 33.5139 29.006 33.4236 29.9301V32.7476H32.2578V27.3596H33.4236V28.4324C33.7874 27.7022 34.4353 27.3171 35.2878 27.3171V27.3145Z" fill="#221F1F"/>
<path d="M5.32852 38.7434L5.32321 37.9813C5.02314 38.5098 4.51593 38.7434 3.91048 38.7434C3.25988 38.7434 2.81641 38.3318 2.81641 37.7742C2.81641 37.2165 3.29705 36.9085 4.06715 36.9085H5.3179V36.4969C5.31259 35.8781 4.95941 35.5064 4.25038 35.5064C3.8016 35.5064 3.43514 35.6896 3.07134 35.9764L2.99433 35.8728C3.37141 35.5728 3.77505 35.3789 4.25038 35.3789C5.02579 35.3789 5.44271 35.8144 5.44802 36.4995L5.4613 38.7461H5.33118L5.32852 38.7434ZM5.32056 37.6865L5.31524 37.0359H4.0645C3.34751 37.0359 2.94387 37.3042 2.94387 37.7715C2.94387 38.2655 3.32095 38.6107 3.91313 38.6107C4.56373 38.6107 5.05235 38.3504 5.32056 37.6865Z" fill="#221F1F"/>
<path d="M9.69588 33.9102V38.7432H9.56576V37.7527C9.3188 38.3581 8.75849 38.7565 8.04946 38.7565C7.09879 38.7565 6.40039 38.0395 6.40039 37.0623C6.40039 36.085 7.09613 35.3627 8.04946 35.3627C8.75849 35.3627 9.3188 35.761 9.56576 36.3665V33.9102H9.69588ZM9.56576 37.0623C9.56576 36.1567 8.92844 35.4928 8.04946 35.4928C7.17049 35.4928 6.53317 36.1567 6.53317 37.0623C6.53317 37.9678 7.17049 38.6264 8.04946 38.6264C8.92844 38.6264 9.56576 37.9678 9.56576 37.0623Z" fill="#221F1F"/>
<path d="M10.6611 35.377L11.9623 38.5954L13.2582 35.377H13.4149L12.034 38.7441H11.8906L10.5098 35.377H10.6585H10.6611Z" fill="#221F1F"/>
<path d="M16.4809 38.1254L16.5711 38.2157C16.2658 38.5476 15.809 38.7441 15.2885 38.7441C14.3564 38.7441 13.666 38.0404 13.666 37.0579C13.666 36.0754 14.3564 35.377 15.2885 35.377C16.2206 35.377 16.8526 36.0807 16.8526 37.0579H13.7988C13.7988 37.9767 14.4228 38.614 15.2912 38.614C15.7798 38.614 16.202 38.4388 16.4835 38.1254H16.4809ZM13.8041 36.9251H16.7225C16.6641 36.086 16.1224 35.5044 15.2885 35.5044C14.4547 35.5044 13.8546 36.0833 13.8041 36.9251Z" fill="#221F1F"/>
<path d="M19.3016 35.377V35.5071C18.5394 35.5257 18.0694 36.0408 18.011 36.9012V38.7441H17.8809V35.377H18.011V36.2958C18.2128 35.7222 18.6616 35.3902 19.3016 35.377Z" fill="#221F1F"/>
<path d="M21.5701 38.5017C21.3736 38.6505 21.1479 38.7354 20.9062 38.7434C20.4362 38.7487 20.1892 38.43 20.1892 37.8193V35.5727H19.6953V35.4426H20.1892V34.6406H20.3194V35.4426H21.5037V35.5727H20.3194V37.8193C20.3194 38.3398 20.5212 38.6212 20.9062 38.6133C21.1134 38.608 21.3231 38.5363 21.4931 38.3982L21.5701 38.5017Z" fill="#221F1F"/>
<path d="M22.6739 34.4043C22.6739 34.4946 22.5969 34.5743 22.5039 34.5743C22.411 34.5743 22.334 34.4973 22.334 34.4043C22.334 34.3114 22.411 34.2344 22.5039 34.2344C22.5969 34.2344 22.6739 34.3114 22.6739 34.4043ZM22.5703 35.3762V38.7434H22.4402V35.3762H22.5703Z" fill="#221F1F"/>
<path d="M24.7392 35.5071C24.2107 35.5071 23.7938 35.7142 23.7938 36.171C23.7938 37.18 25.82 36.6994 25.82 37.8705C25.82 38.4759 25.2729 38.7441 24.6861 38.7441C24.216 38.7441 23.7805 38.5742 23.4805 38.2741L23.5654 38.1759C23.8522 38.4547 24.2426 38.6114 24.6861 38.6114C25.2145 38.6114 25.6686 38.391 25.6899 37.9023C25.7297 36.8667 23.6637 37.3155 23.6637 36.1842C23.6637 35.6319 24.1523 35.377 24.7312 35.377C25.0897 35.377 25.3818 35.4752 25.6288 35.6186L25.565 35.7301C25.3499 35.5921 25.0711 35.5097 24.7365 35.5097L24.7392 35.5071Z" fill="#221F1F"/>
<path d="M27.0176 34.4043C27.0176 34.4946 26.9406 34.5743 26.8477 34.5743C26.7547 34.5743 26.6777 34.4973 26.6777 34.4043C26.6777 34.3114 26.7547 34.2344 26.8477 34.2344C26.9406 34.2344 27.0176 34.3114 27.0176 34.4043ZM26.9141 35.3762V38.7434H26.784V35.3762H26.9141Z" fill="#221F1F"/>
<path d="M31.219 36.7047V38.7441H31.0888V36.7047C31.0888 35.9479 30.6454 35.5071 29.8965 35.5071C29.0574 35.5257 28.5422 36.0488 28.4758 36.9145V38.7441H28.3457V35.377H28.4758V36.3276C28.6909 35.7354 29.1928 35.3902 29.8965 35.377C30.7304 35.377 31.219 35.8709 31.219 36.7047Z" fill="#221F1F"/>
<path d="M35.3142 35.377V38.3591C35.3142 39.3629 34.6822 40.0082 33.7129 40.0002C33.1712 39.9816 32.749 39.7984 32.3586 39.4133L32.4489 39.323C32.8074 39.6815 33.2057 39.8515 33.7129 39.8701C34.6052 39.8754 35.1841 39.2832 35.1841 38.3591V37.6634C34.9504 38.2423 34.4087 38.622 33.7315 38.622C32.826 38.622 32.1621 37.9369 32.1621 37.0074C32.1621 36.078 32.826 35.3796 33.7315 35.3796C34.4087 35.3796 34.9504 35.7567 35.1841 36.3436V35.3796H35.3142V35.377ZM35.1841 37.0048C35.1841 36.1391 34.5707 35.4991 33.7315 35.4991C32.8924 35.4991 32.2869 36.1364 32.2869 37.0048C32.2869 37.8731 32.8924 38.4972 33.7315 38.4972C34.5707 38.4972 35.1841 37.8652 35.1841 37.0048Z" fill="#221F1F"/>
<path fill-rule="evenodd" clip-rule="evenodd" d="M21.1914 16.4526C25.4031 13.6431 30.8973 10.8336 36.3836 6.00586C36.1446 7.33096 35.9561 8.62685 35.8074 9.88556C31.0699 13.2315 26.6379 15.4807 23.3742 18.0167C22.6891 17.4883 21.9642 16.9705 21.1914 16.4526Z" fill="#5BBFCD"/>
<path fill-rule="evenodd" clip-rule="evenodd" d="M1.61523 6.00586C7.11215 10.8336 12.5984 13.6431 16.8154 16.4526C16.04 16.9705 15.3071 17.491 14.6246 18.0167C11.361 15.4781 6.92892 13.2289 2.19945 9.88556C2.05074 8.6242 1.8622 7.33096 1.61523 6.00586Z" fill="#5BBFCD"/>
<path fill-rule="evenodd" clip-rule="evenodd" d="M16.8152 19.9634C17.4658 19.2889 18.1987 18.6462 18.998 18.0195C19.8053 18.6462 20.5382 19.2889 21.1888 19.9634C20.3895 20.8052 19.7229 21.6948 19.2025 22.6826C19.1281 22.8074 19.0617 22.9375 18.9953 23.0703C18.9289 22.9375 18.8626 22.8074 18.7988 22.6826C18.281 21.6948 17.6038 20.8052 16.8125 19.9634H16.8152Z" fill="#5BBFCD"/>
<path fill-rule="evenodd" clip-rule="evenodd" d="M19.002 15.0541C24.4803 11.6418 31.4669 7.7541 37.8216 0C37.2108 2.06068 36.7408 4.06294 36.3876 6.00677C30.9013 10.8345 25.4044 13.644 21.1954 16.4536C20.4944 15.9915 19.7614 15.5321 19.0046 15.0541H19.002Z" fill="#0D7375"/>
<path fill-rule="evenodd" clip-rule="evenodd" d="M0.181641 0C6.53363 7.7541 13.5203 11.6418 19.0013 15.0541C18.2444 15.5321 17.5089 15.9942 16.8184 16.4536C12.5988 13.644 7.11253 10.8345 1.61827 6.00677C1.25978 4.06294 0.792409 2.06068 0.181641 0Z" fill="#0D7375"/>
<path fill-rule="evenodd" clip-rule="evenodd" d="M14.625 18.0211C15.3101 17.4927 16.043 16.9749 16.8158 16.457C17.5912 16.9749 18.3241 17.4953 18.9986 18.0211C18.1993 18.6478 17.4664 19.2905 16.8158 19.965C16.1652 19.2905 15.4323 18.6478 14.625 18.0211Z" fill="#0D7375"/>
<path fill-rule="evenodd" clip-rule="evenodd" d="M21.1928 19.965C20.5422 19.2905 19.8092 18.6478 19.002 18.0211C19.6844 17.4927 20.42 16.9749 21.1928 16.457C21.9682 16.9749 22.6931 17.4953 23.3756 18.0211C22.5683 18.6478 21.8354 19.2905 21.1928 19.965Z" fill="#0D7375"/>
<path fill-rule="evenodd" clip-rule="evenodd" d="M21.192 16.4541C20.4166 16.972 19.6837 17.4924 19.0012 18.0182C18.3267 17.4898 17.5911 16.972 16.8184 16.4541C17.5114 15.9921 18.2444 15.5327 19.0012 15.0547C19.758 15.5327 20.4936 15.9947 21.192 16.4541Z" fill="#026161"/>
<path d="M4.32911 32.7689H3.09961L5.84541 26.3027H7.13334L9.93756 32.7689H8.64963L7.9114 31.0056H5.76309L6.17469 29.9647H7.4759L6.45883 27.5375L4.32911 32.7689Z" fill="#221F1F"/>
<path d="M13.8398 32.7689V26.3027H15.0375L18.4525 31.0136V26.3027H19.605V32.7689H18.4073L14.995 27.9571V32.7689H13.8425H13.8398Z" fill="#221F1F"/>
</g>
<defs>
<clipPath id="clip0_2736_5680">
<rect width="37.6366" height="40" fill="white" transform="translate(0.181641)"/>
</clipPath>
</defs>
</svg>
