<svg width="131" height="40" viewBox="0 0 131 40" fill="none" xmlns="http://www.w3.org/2000/svg">
<g clip-path="url(#clip0_2736_5266)">
<path d="M26.3054 36.1486V38.4248C26.3841 38.4642 26.4891 38.5101 26.6006 38.5691H27.8994C29.8016 37.8082 31.553 36.7652 33.1142 35.4861L33.2257 33.5117C31.1791 34.8564 28.8308 35.7748 26.2988 36.1486H26.3054Z" fill="#EA1F27"/>
<path d="M15.3582 27.6688C15.6206 22.8869 23.7675 22.1522 23.7675 22.1522C22.8623 20.0729 20.0482 20.5583 20.0482 20.5583C17.9557 15.1401 6.73896 21.2142 6.66024 21.2536C6.57497 20.5451 6.52249 19.8302 6.52249 19.0955C6.52249 9.57105 14.2431 1.85049 23.7675 1.85049C25.0991 1.85049 26.3979 2.00136 27.6442 2.28998C27.8147 1.9948 27.9721 1.73242 28.1165 1.50939C25.7616 0.532022 23.1837 -0.00585938 20.4746 -0.00585938C9.42836 0.000700152 0.474609 8.95446 0.474609 20.0007C0.474609 31.0469 9.42836 40.0007 20.4746 40.0007C20.7042 40.0007 20.9403 40.0007 21.1699 39.9876C21.0387 39.922 21.019 39.699 21.1699 39.6268C21.229 39.6006 21.2945 39.5743 21.3536 39.5612C21.6881 39.4891 22.1276 39.4497 22.1276 39.4497C22.1276 39.4497 23.1706 39.3775 23.3411 39.1611C23.5117 38.9446 23.7478 39.0102 24.1151 38.7544C24.489 38.4986 24.922 38.4264 25.1253 38.3477C25.2893 38.2887 25.8469 38.328 26.0568 38.3411V36.1831C25.5976 36.2421 25.1253 36.288 24.653 36.3142C17.8049 36.0256 15.1024 32.2014 15.3516 27.6688H15.3582Z" fill="#EA1F27"/>
<path d="M54.1257 39.6188C54.0667 39.5926 54.0011 39.5663 53.9421 39.5532C53.6075 39.4811 53.168 39.4417 53.168 39.4417C53.168 39.4417 52.8466 39.422 52.5383 39.363V36.1882L51.5806 36.1357L51.1543 36.5949L51.0559 35.8733C51.0559 35.8733 51.0821 35.8733 51.0952 35.8668C51.1674 35.8471 51.1346 35.7421 51.0624 35.7618C51.0559 35.7618 51.0493 35.7618 51.0427 35.7618L50.2359 29.9304C50.3081 29.9173 50.2818 29.8189 50.2163 29.8254L49.3701 23.6988C49.4422 23.6923 49.4422 23.5808 49.3701 23.5873C49.3701 23.5873 49.357 23.5873 49.3504 23.5873L49.2717 23.0363L49.3504 22.9445L49.4291 22.5968V21.4752L48.373 20.793L48.2549 20.5175L47.6974 20.957L44.8309 21.016C44.7653 20.9045 44.6866 20.8061 44.5751 20.7208C44.4307 20.6027 44.234 20.4912 44.0306 20.4256V20.0977L43.6436 19.6975C43.8141 19.6582 43.9913 19.6188 44.1618 19.5795C44.3061 19.5467 44.7128 19.527 44.7194 19.3105C44.7194 19.0809 44.3717 19.0744 44.2143 19.0678C43.8404 19.0481 43.4599 19.0875 43.086 19.1137L30.6623 6.23082L31.1543 3.50861L31.2264 3.12816L31.5478 1.34397L31.3183 0.589622L30.9706 0.445312L30.8 0.720813L30.4196 0.773289V0.550265L28.5173 0.878241C28.5173 0.878241 28.3533 1.12094 28.1106 1.49484C27.9729 1.71786 27.8089 1.98024 27.6384 2.27542C27.3497 2.78706 27.0414 3.37086 26.825 3.92186C26.5429 4.64341 26.2346 5.45679 25.946 6.51288C25.4081 6.26361 24.4701 6.20458 24.3127 6.87365C24.234 7.19507 24.3783 7.50336 24.5751 7.75263C24.8309 8.08716 25.1589 8.38234 25.454 8.68408C25.3556 9.19572 25.2704 9.75328 25.1785 10.3699C24.7194 13.6759 24.7784 17.9724 24.7784 17.9724H25.2704V20.078L25.1195 20.1042C25.067 20.1108 25.0277 20.1501 25.0277 20.2026L24.9817 20.7536H24.9162C24.9162 20.7536 24.8571 20.7798 24.8571 20.8126C24.8571 20.8389 24.8834 20.8717 24.9162 20.8651H24.9752L24.9424 21.2456C24.9424 21.3112 24.9883 21.3636 25.0539 21.3636H26.1231V21.8818H25.9657V22.0852H26.0641V38.32C25.8542 38.3069 25.2966 38.2675 25.1326 38.3266C24.9293 38.3987 24.4898 38.4709 24.1224 38.7333C23.7486 38.9891 23.5124 38.9235 23.3484 39.14C23.1779 39.3564 22.1349 39.4286 22.1349 39.4286C22.1349 39.4286 21.6954 39.4679 21.3609 39.5401C21.3019 39.5532 21.2363 39.5729 21.1772 39.6057C21.0198 39.6778 21.0395 39.9009 21.1772 39.9665C21.1969 39.9796 21.2231 39.9861 21.2494 39.9861H54.0601C54.2569 39.9861 54.3094 39.691 54.1323 39.6057L54.1257 39.6188ZM49.1733 23.1675L49.2323 23.6136C49.2323 23.6136 49.193 23.6201 49.1733 23.6267L49.1208 23.2331L49.1733 23.1675ZM44.0372 20.5503C44.234 20.6224 44.4242 20.7405 44.5554 20.8586C44.6144 20.911 44.6603 20.9701 44.7062 21.0291H44.3586C44.2733 20.8914 44.1749 20.7602 44.0372 20.6487V20.5503ZM44.785 22.5706V22.8264H44.4373L44.188 22.5706H44.785ZM44.0372 20.7995C44.1093 20.8717 44.1684 20.9504 44.2274 21.0422H44.0372V20.7995ZM43.7748 19.258C43.9322 19.2515 44.2733 19.1859 44.4045 19.2777C44.5029 19.2974 44.4963 19.3171 44.3848 19.3499C44.3127 19.3827 44.2405 19.4089 44.1684 19.4286C44.0897 19.4548 44.0109 19.4745 43.9257 19.4942C43.7879 19.5204 43.6436 19.5401 43.5059 19.5598L43.2632 19.3105C43.4337 19.2908 43.6042 19.2712 43.7748 19.2646V19.258ZM38.4747 22.3279L38.5141 22.8002C38.4485 22.6493 38.3894 22.4984 38.3435 22.341L38.4747 22.3279ZM36.9398 18.5824V18.7267L36.7692 18.8579L36.5987 18.5824H36.9463H36.9398ZM35.3589 23.2528C35.3589 23.2528 35.4114 23.3053 35.4442 23.3315L35.4836 23.5086C35.4114 23.4627 35.3458 23.4233 35.2736 23.3774L35.2868 23.1741C35.2868 23.1741 35.3392 23.2266 35.3655 23.2528H35.3589ZM35.2868 23.0298L35.3064 22.6821L35.4048 23.1413C35.3655 23.1085 35.3261 23.0691 35.2868 23.0298ZM35.5163 23.6529L37.0972 31.1833L34.8538 31.2554L35.2671 23.5021C35.3524 23.5545 35.4311 23.607 35.5163 23.6529ZM36.087 17.2639C36.087 17.2639 36.0936 17.2574 36.1001 17.2508C36.1198 17.2377 36.1395 17.2246 36.1526 17.2115V17.2574H36.087V17.2639ZM36.1264 17.0344L36.1526 17.0606V17.0803C36.1067 17.1065 36.0608 17.1393 36.0149 17.1787C35.9755 17.2115 35.9362 17.2443 35.9034 17.2771L35.7459 17.2902C35.805 17.1721 35.9755 17.0934 36.087 17.0475C36.1001 17.0475 36.1133 17.0409 36.1264 17.0344ZM26.2281 17.5854L26.4839 17.5722V17.992H26.9234V19.9599L26.6479 19.9468C26.5888 19.9468 26.5429 19.8943 26.5429 19.8418V19.0481C26.5429 19.0022 26.5101 18.9563 26.4576 18.9432L26.2281 18.8841V17.5854ZM24.7456 7.54928C24.6275 7.41809 24.5816 7.36561 24.5816 7.18851C24.5816 7.00484 24.5882 7.02452 24.7456 6.96548C24.8899 6.91301 25.0342 6.87365 25.1851 6.86053C25.4147 6.83429 25.6377 6.85397 25.8542 6.90645C25.7492 7.30658 25.6508 7.74607 25.5524 8.22491C25.2572 8.02813 24.9817 7.8051 24.7456 7.54928ZM26.0772 18.8645L25.6836 18.9957C25.6377 19.0088 25.6115 19.0547 25.6115 19.094V19.4876C25.6115 19.4876 25.6115 19.5204 25.5983 19.5335L25.5459 19.6385C25.5131 19.6975 25.5459 19.7697 25.6115 19.7894L25.7099 19.8222C25.7558 19.8353 25.782 19.8746 25.7886 19.914C25.7886 19.9665 25.7558 20.0189 25.6967 20.0321L25.3556 20.0911V17.9986H25.618V17.6116L26.1362 17.5919V18.8645C26.1362 18.8645 26.0969 18.8645 26.0706 18.8645H26.0772ZM33.9683 20.9963C33.9355 20.9045 33.9158 20.8126 33.9027 20.7339C33.8896 20.6618 33.8896 20.5962 33.9027 20.5306C33.9289 20.5765 33.9552 20.629 33.988 20.6749L33.9683 20.9963ZM33.9945 20.4781C33.9749 20.4388 33.9552 20.3928 33.9421 20.3469C33.9617 20.301 33.9814 20.2551 34.0142 20.2092L34.0011 20.4781H33.9945ZM34.0208 20.0189C33.9749 20.0714 33.9289 20.1239 33.8961 20.1764C33.8568 19.9337 33.8961 19.6778 33.9814 19.4351C34.0077 19.4351 34.0273 19.4286 34.0536 19.422L34.0208 20.0189ZM34.2897 19.1268C34.2897 19.1268 34.2897 19.1531 34.27 19.1596C34.2569 19.1596 34.2176 19.1531 34.2044 19.1465C34.1585 19.1465 34.1126 19.1465 34.0733 19.1662C34.0208 19.199 33.9945 19.258 34.0077 19.3171H33.9814C33.9814 19.3171 33.9289 19.3171 33.9093 19.3302C33.8961 19.3302 33.8896 19.3302 33.8765 19.3302C33.8174 19.3368 33.824 19.4089 33.8699 19.4286C33.7715 19.7303 33.7453 20.0452 33.824 20.3272C33.7781 20.4519 33.765 20.5962 33.7912 20.7405C33.8174 20.8914 33.8699 21.0816 33.9552 21.239L32.945 38.5168H30.9903C30.9903 38.5168 30.9706 38.5168 30.9575 38.5168L30.0195 38.3397C30.0195 38.3397 29.9867 38.3397 29.967 38.3397L28.4255 38.5562C28.4255 38.5562 28.4124 38.5562 28.3993 38.5562H26.5954C26.4839 38.4971 26.3855 38.4512 26.3002 38.4119V22.0983H26.3986V21.895H26.2412V21.3768H27.3169C27.376 21.3768 27.4285 21.3308 27.4285 21.2718V20.8323C27.4612 20.8323 27.494 20.8323 27.5268 20.8389C27.5596 20.8389 27.5859 20.8126 27.5859 20.7864C27.5859 20.7536 27.5596 20.7339 27.5268 20.7339C27.494 20.7339 27.4612 20.7339 27.4285 20.7274V20.0845C27.4285 20.0255 27.3825 19.9796 27.3235 19.9796L26.9955 19.9665V17.9986H27.3629L29.7899 10.7044L36.028 16.9491C35.8181 17.0147 35.6344 17.1262 35.6016 17.2967L35.4376 17.3099C35.4442 17.2574 35.4508 17.2049 35.4573 17.1459C35.4639 17.0737 35.3524 17.0737 35.3392 17.1459C35.3327 17.218 35.3196 17.2836 35.313 17.3558L35.2474 17.5394C35.2474 17.5394 34.9588 17.5591 34.9391 17.9068C34.9194 18.2544 35.09 18.5693 35.09 18.5693L35.1293 19.1924L34.5718 19.2843C34.5718 19.2843 34.5718 19.2712 34.5718 19.258C34.5718 19.1268 34.3488 18.9891 34.2569 19.1268H34.2897ZM37.7269 38.6742C37.7269 38.6742 37.7072 38.6742 37.6941 38.6742H37.6482H37.6023C37.5892 38.6742 37.5826 38.6742 37.5695 38.6742L36.6446 38.707L35.8837 38.7792C35.8837 38.7792 35.8574 38.7792 35.8509 38.7792L34.6505 38.6349C34.6505 38.6349 34.6177 38.6349 34.6046 38.6218L34.3619 38.5168L34.8145 32.2918L37.3071 32.2393L38.4485 38.6939L37.7335 38.6677L37.7269 38.6742ZM36.7692 22.4591L38.2254 22.3476C38.3041 22.61 38.4091 22.8658 38.5403 23.115L39.2225 31.1636H38.5337L36.7692 22.4591ZM38.7633 32.3377H38.9273C38.8814 32.3902 38.8355 32.4427 38.7961 32.4952L38.7633 32.3377ZM38.8224 32.6395C38.9011 32.5345 38.9863 32.4361 39.0782 32.3443H39.4521L39.8719 37.5263L38.8224 32.646V32.6395ZM40.7181 30.3174L40.3376 28.5922H40.5672L40.9345 30.3174H40.7246H40.7181ZM41.1575 24.2761H41.0395L40.9214 23.4102L41.151 23.5414V24.2761H41.1575ZM41.4134 23.9284V23.8431L41.8857 24.2761L41.9316 24.8336C41.7741 24.7877 41.6233 24.7352 41.4658 24.6893L41.4134 23.9284ZM41.4724 24.8074C41.6298 24.8533 41.7807 24.9058 41.9381 24.9517L42.0562 26.5063C41.8922 26.4604 41.7348 26.4079 41.5774 26.3489L41.4724 24.8074ZM41.6364 27.1754L41.5905 26.467C41.7479 26.526 41.9053 26.5785 42.0693 26.6244L42.1808 28.1003L41.8266 28.0347L41.6364 27.1754ZM41.8529 28.1593C41.9644 28.179 42.0759 28.1987 42.1939 28.2249L42.3055 29.6614H42.1874L41.8529 28.1659V28.1593ZM42.2136 29.7664H42.312L42.3645 30.4683L42.2071 29.7664H42.2136ZM47.986 30.7044L47.6908 30.4814C47.7958 30.4683 47.9073 30.4552 48.0123 30.4552L47.986 30.7044ZM49.1798 38.3397C49.1798 38.3397 49.1405 38.3397 49.1208 38.3528C49.0552 38.3856 48.8847 38.4643 48.6944 38.5627H48.2943V34.7582L48.0647 34.0957L48.2549 33.8923L49.2192 38.3331C49.2192 38.3331 49.193 38.3331 49.1798 38.3331V38.3397ZM48.2156 30.2387C48.2156 30.16 48.2353 30.0813 48.2878 30.0222C48.2878 30.0747 48.314 30.1272 48.3533 30.1731L48.3402 30.1928L48.2222 30.2452L48.2156 30.2387ZM48.5567 29.9173L48.4255 30.0747C48.3993 30.0353 48.3927 29.9829 48.3993 29.9369C48.4517 29.9173 48.5042 29.9107 48.5567 29.9107V29.9173ZM48.4911 29.8058C48.4911 29.8058 48.5501 29.7664 48.5829 29.7533C48.6944 29.7008 48.7863 29.7139 48.8715 29.7926C48.8781 29.7992 48.8912 29.8123 48.8978 29.8189L48.7535 29.8386C48.6616 29.8123 48.5764 29.7992 48.4911 29.8058ZM49.4094 31.0193L49.4291 30.7241L49.4488 30.3174L49.2782 30.0222L49.147 29.5631H49.0159V29.7664C48.9568 29.6942 48.8912 29.6352 48.8125 29.6024C48.701 29.5565 48.5567 29.6352 48.4649 29.6942C48.4058 29.7336 48.3533 29.7926 48.3271 29.8517C48.3074 29.8648 48.2812 29.8779 48.2615 29.891C48.1369 29.9894 48.091 30.1337 48.1106 30.278L48.0319 30.3108V30.3305C47.8745 30.3305 47.7236 30.3568 47.5728 30.3764L46.7856 29.7795L43.3156 29.832L42.8761 30.3436C42.8171 30.3764 42.7515 30.4092 42.6925 30.4486L42.1087 24.486L43.5059 25.8832L45.0408 25.811L45.2113 24.2695L44.8834 24.0334L44.844 23.8431L45.0342 24.0203L45.4737 23.9809L45.5524 23.666L45.3425 22.4525L47.1464 22.3213L47.9139 22.9642V23.3118L48.2615 23.1085L48.6288 23.1282L48.7076 23.4037L49.7046 31.157L49.416 31.0127L49.4094 31.0193ZM49.1864 23.7316C49.1864 23.7316 49.2258 23.7251 49.2454 23.7185L50.0916 29.8451C50.0916 29.8451 50.0523 29.8517 50.026 29.8582L49.1798 23.7316H49.1864ZM50.846 35.7552L50.0457 29.9697C50.0457 29.9697 50.0851 29.9632 50.1113 29.9566L50.9181 35.7946C50.9181 35.7946 50.8853 35.7946 50.8656 35.8012L50.846 35.7552ZM50.9181 35.9061C50.9181 35.9061 50.9312 35.9061 50.9378 35.9061V35.9652L50.9181 35.9127V35.9061Z" fill="#221F1F"/>
<path d="M62.7114 23.6927C61.1043 23.6927 59.8646 24.9324 59.8646 26.5658C59.8646 28.1991 61.1043 29.452 62.7114 29.452C63.551 29.452 64.4759 29.0256 65.145 28.3565L66.3847 29.7078C65.3942 30.7245 63.9643 31.3805 62.5999 31.3805C59.8055 31.3805 57.6934 29.3076 57.6934 26.5986C57.6934 23.8895 59.8449 21.8691 62.6786 21.8691C64.0299 21.8691 65.4467 22.4726 66.3651 23.4172L65.1384 24.9128C64.4956 24.1781 63.5773 23.6992 62.7048 23.6992L62.7114 23.6927Z" fill="#221F1F"/>
<path d="M73.3907 31.2816L71.9082 28.6053H69.7567V31.2816H67.6445V21.9277H71.7049C74.1516 21.9277 75.5422 23.1019 75.5422 25.1747C75.5422 26.6178 74.9256 27.6608 73.7908 28.1921L75.7849 31.2816H73.3907ZM69.7567 26.8474H71.7049C72.8659 26.8474 73.535 26.3095 73.535 25.2469C73.535 24.1842 72.8659 23.6857 71.7049 23.6857H69.7567V26.8539V26.8474Z" fill="#221F1F"/>
<path d="M84.444 21.9277V23.6791H79.4325V25.7126H83.9389V27.464H79.4325V29.5368H84.5883V31.2882H77.3203V21.9343H84.444V21.9277Z" fill="#221F1F"/>
<path d="M89.4942 23.6398C88.7858 23.6398 88.3069 23.8956 88.3069 24.4007C88.3069 26.1259 93.2922 25.1616 93.279 28.5332C93.279 30.3633 91.6916 31.3538 89.6188 31.3538C88.0839 31.3538 86.5424 30.7635 85.4863 29.8714L86.3259 28.1462C87.2902 28.9989 88.6546 29.5499 89.6385 29.5499C90.5044 29.5499 91.0291 29.2285 91.0291 28.6513C91.0291 26.8868 86.0439 27.9166 86.0439 24.6041C86.0439 22.9051 87.5001 21.8359 89.6647 21.8359C90.9766 21.8359 92.282 22.2361 93.22 22.8527L92.4066 24.6041C91.4161 24.0137 90.242 23.6398 89.4942 23.6398Z" fill="#221F1F"/>
<path d="M99.104 23.6927C97.5034 23.6927 96.2571 24.9324 96.2571 26.5658C96.2571 28.1991 97.5034 29.452 99.104 29.452C99.9436 29.452 100.868 29.0256 101.538 28.3565L102.777 29.7078C101.787 30.7245 100.357 31.3805 98.9925 31.3805C96.1981 31.3805 94.0859 29.3076 94.0859 26.5986C94.0859 23.8895 96.2375 21.8691 99.0712 21.8691C100.422 21.8691 101.839 22.4726 102.758 23.4172L101.531 24.9128C100.888 24.1781 99.9698 23.6992 99.0974 23.6992L99.104 23.6927Z" fill="#221F1F"/>
<path d="M111.161 21.9277V23.6791H106.149V25.7126H110.656V27.464H106.149V29.5368H111.305V31.2882H104.037V21.9343H111.161V21.9277Z" fill="#221F1F"/>
<path d="M114.887 21.9277L119.433 27.9428V21.9277H121.44V31.2816H119.518L114.985 25.2797V31.2816H112.965V21.9277H114.887Z" fill="#221F1F"/>
<path d="M130.393 21.9277V23.7185H127.533V31.2816H125.421V23.7185H122.574V21.9277H130.393Z" fill="#221F1F"/>
<path d="M61.9444 36.321C61.9444 37.5083 60.9867 38.4266 59.7404 38.4266C58.4941 38.4266 57.543 37.5083 57.543 36.321C57.543 35.1337 58.5072 34.2285 59.7404 34.2285C60.9736 34.2285 61.9444 35.1337 61.9444 36.321ZM58.2514 36.321C58.2514 37.1475 58.9336 37.7969 59.747 37.7969C60.5604 37.7969 61.2229 37.1475 61.2229 36.321C61.2229 35.4945 60.5604 34.8582 59.747 34.8582C58.9336 34.8582 58.2514 35.5011 58.2514 36.321Z" fill="#221F1F"/>
<path d="M63.3874 34.248V38.4002H62.6855V34.248H63.3874Z" fill="#221F1F"/>
<path d="M65.1784 34.248V37.764H66.9757V38.4002H64.4766V34.248H65.1784Z" fill="#221F1F"/>
<path d="M68.923 36.3594V36.8251H67.4668V36.3594H68.923Z" fill="#221F1F"/>
<path d="M72.6159 34.248V34.8778H70.53V36.0782H72.4191V36.7013H70.53V38.4068H69.8281V34.2546H72.6159V34.248Z" fill="#221F1F"/>
<path d="M73.9421 34.248V38.4002H73.2402V34.248H73.9421Z" fill="#221F1F"/>
<path d="M77.9942 34.248V34.8778H75.7312V36.006H77.7581V36.6292H75.7312V37.7771H78.0664V38.4068H75.0293V34.2546H77.9942V34.248Z" fill="#221F1F"/>
<path d="M79.6218 34.248V37.764H81.4191V38.4002H78.9199V34.248H79.6218Z" fill="#221F1F"/>
<path d="M85.9383 36.3209C85.9383 37.5213 85.0331 38.4002 83.7737 38.4002H82.0879V34.248H83.7934C85.0397 34.248 85.9383 35.1205 85.9383 36.3209ZM85.2299 36.3274C85.2299 35.4812 84.5936 34.8712 83.7737 34.8712H82.7832V37.764H83.8065C84.6133 37.764 85.2299 37.167 85.2299 36.3209V36.3274Z" fill="#221F1F"/>
<path d="M89.7758 34.8767C89.3691 34.8767 89.1002 35.0341 89.1002 35.3096C89.1002 36.2148 91.3435 35.7294 91.337 37.225C91.337 37.9662 90.6876 38.4254 89.7692 38.4254C89.1198 38.4254 88.4967 38.1564 88.0703 37.7694L88.3721 37.1659C88.7984 37.5595 89.3297 37.7694 89.7758 37.7694C90.2612 37.7694 90.5498 37.5857 90.5498 37.2643C90.5498 36.3394 88.3065 36.8576 88.3065 35.3752C88.3065 34.6602 88.9165 34.2207 89.8217 34.2207C90.3596 34.2207 90.8909 34.3913 91.2779 34.6471L90.9893 35.2637C90.5367 34.9882 90.0907 34.8767 89.7758 34.8767Z" fill="#221F1F"/>
<path d="M93.8814 37.8033C94.5571 37.8033 94.9769 37.3901 94.9769 36.6816V34.248H95.6787V36.6816C95.6787 37.764 94.9966 38.433 93.8749 38.433C92.7532 38.433 92.0645 37.7705 92.0645 36.6816V34.248H92.7663V36.6816C92.7663 37.3835 93.1992 37.8033 93.8814 37.8033Z" fill="#221F1F"/>
<path d="M99.9818 35.6649C99.9818 36.6029 99.3849 37.1474 98.3353 37.1474H97.3776V38.4002H96.6758V34.248H98.3288C99.3717 34.248 99.9752 34.7662 99.9752 35.6649H99.9818ZM99.3127 35.6846C99.3127 35.1401 98.9519 34.8778 98.3091 34.8778H97.3842V36.5176H98.3091C98.9519 36.5176 99.3127 36.2421 99.3127 35.678V35.6846Z" fill="#221F1F"/>
<path d="M103.971 35.6649C103.971 36.6029 103.374 37.1474 102.331 37.1474H101.374V38.4002H100.672V34.248H102.325C103.368 34.248 103.965 34.7662 103.965 35.6649H103.971ZM103.302 35.6846C103.302 35.1401 102.941 34.8778 102.299 34.8778H101.374V36.5176H102.299C102.941 36.5176 103.302 36.2421 103.302 35.678V35.6846Z" fill="#221F1F"/>
<path d="M105.368 34.248V37.764H107.165V38.4002H104.666V34.248H105.368Z" fill="#221F1F"/>
<path d="M108.53 34.248V38.4002H107.828V34.248H108.53Z" fill="#221F1F"/>
<path d="M112.59 34.248V34.8778H110.327V36.006H112.354V36.6292H110.327V37.7771H112.662V38.4068H109.625V34.2546H112.59V34.248Z" fill="#221F1F"/>
<path d="M114.827 34.8767C114.42 34.8767 114.151 35.0341 114.151 35.3096C114.151 36.2148 116.394 35.7294 116.388 37.225C116.388 37.9662 115.738 38.4254 114.82 38.4254C114.171 38.4254 113.554 38.1564 113.121 37.7694L113.423 37.1659C113.849 37.5595 114.381 37.7694 114.827 37.7694C115.312 37.7694 115.601 37.5857 115.601 37.2643C115.601 36.3394 113.357 36.8576 113.357 35.3752C113.357 34.6602 113.967 34.2207 114.872 34.2207C115.41 34.2207 115.942 34.3913 116.329 34.6471L116.04 35.2637C115.587 34.9882 115.141 34.8767 114.827 34.8767Z" fill="#221F1F"/>
<path d="M121.943 34.248V34.8778H119.68V36.006H121.707V36.6292H119.68V37.7771H122.016V38.4068H118.979V34.2546H121.943V34.248Z" fill="#221F1F"/>
<path d="M124.18 34.8767C123.773 34.8767 123.504 35.0341 123.504 35.3096C123.504 36.2148 125.748 35.7294 125.741 37.225C125.741 37.9662 125.092 38.4254 124.174 38.4254C123.524 38.4254 122.908 38.1564 122.475 37.7694L122.776 37.1659C123.203 37.5595 123.734 37.7694 124.18 37.7694C124.665 37.7694 124.954 37.5857 124.954 37.2643C124.954 36.3394 122.711 36.8576 122.711 35.3752C122.711 34.6602 123.321 34.2207 124.226 34.2207C124.764 34.2207 125.295 34.3913 125.682 34.6471L125.394 35.2637C124.941 34.9882 124.495 34.8767 124.18 34.8767Z" fill="#221F1F"/>
<path d="M129.395 34.248V34.8778H128.076V38.4002H127.374V34.8778H126.062V34.248H129.388H129.395Z" fill="#221F1F"/>
<path d="M130.136 38.0511C130.136 38.2807 129.979 38.4512 129.763 38.4512C129.546 38.4512 129.389 38.2872 129.389 38.0511C129.389 37.8149 129.546 37.6641 129.763 37.6641C129.979 37.6641 130.136 37.8215 130.136 38.0511Z" fill="#221F1F"/>
<path d="M130.523 16.6621H57.5684V17.7576H130.523V16.6621Z" fill="#EA1F27"/>
<path d="M42.6069 11.9448L42.8561 11.243H43.2825L43.2694 8.61914H44.0237L43.9909 10.2197C44.4304 9.89825 44.883 9.7933 45.1192 9.81953C45.985 9.90481 46.2736 10.5542 46.3589 11.243H47.0608V11.9448C42.5085 11.9448 47.1461 11.9448 42.5938 11.9448H42.6069ZM44.9683 10.4886C44.719 10.4886 44.2861 10.6592 43.8925 11.2495H45.6046C45.5849 10.9084 45.4406 10.4886 44.9683 10.4886Z" fill="#221F1F"/>
<path d="M49.567 11.9445C49.2456 11.9445 48.9307 11.8855 48.6356 11.7739C48.3535 11.8789 48.0452 11.9445 47.7238 11.9445H46.9629V11.2426H47.4221C47.5664 11.2426 47.7107 11.2426 47.8353 11.2229C47.6057 10.9671 47.5204 10.7047 47.5204 10.4817C47.5204 9.83232 48.0583 9.49123 48.6356 9.49123C49.2128 9.49123 49.7507 9.83232 49.7507 10.4817C49.7507 10.6982 49.6654 10.9606 49.4424 11.2229C49.6064 11.2492 49.7179 11.2426 49.8622 11.2426H50.3017V11.9445H49.567ZM48.2814 9.0583V8.40234H48.957V9.0583H48.2814ZM48.6356 10.075C48.4125 10.075 48.2814 10.2456 48.2814 10.4752C48.2814 10.8228 48.6093 11.0327 48.6356 11.0327C48.6618 11.0327 48.9898 10.8228 48.9898 10.4752C48.9898 10.2521 48.8652 10.075 48.6356 10.075Z" fill="#221F1F"/>
<path d="M52.341 11.9446C52.0392 11.9446 51.8556 11.7544 51.7637 11.6167C51.6063 11.8266 51.3374 11.9446 51.0684 11.9446C50.7536 11.9446 50.5043 11.9446 50.1895 11.9446V11.2428H50.8454C50.9963 11.2428 51.2062 11.1509 51.2062 10.9541L51.1931 9.80623H51.9736C51.9736 10.108 51.9736 10.4359 51.9868 10.7377C51.9868 11.0919 52.2491 11.2362 52.3869 11.2362H52.9182V11.9381H52.341V11.9446ZM51.2324 9.38642V8.73047H51.9081V9.38642H51.2324Z" fill="#221F1F"/>
<path d="M53.698 11.9452H52.8125V11.2434H53.475C53.6456 11.2434 53.7571 11.1581 53.7571 10.9744C53.7571 10.5808 53.7374 8.6917 53.7374 8.30469H54.5245C54.5245 8.94752 54.5442 10.6071 54.5442 11.1581C54.5442 11.6304 54.249 11.9387 53.6915 11.9387L53.698 11.9452Z" fill="#221F1F"/>
<path d="M55.3055 11.9445L55.2793 8.31055H56.0599L56.0861 11.9445H55.3055Z" fill="#221F1F"/>
<path d="M59.2802 13.1646C58.4012 13.1646 57.6994 12.4562 57.6994 11.5969C57.6994 11.4329 57.6797 10.7769 57.6797 10.4358H58.4603C58.4603 10.7376 58.4734 11.4788 58.4734 11.5969C58.4734 12.0495 58.8407 12.4168 59.2802 12.4168C59.7197 12.4168 60.0936 12.0495 60.087 11.5969L60.0674 8.31055H60.8545L60.8676 11.6034C60.8676 12.4562 60.1658 13.1646 59.2868 13.1646H59.2802Z" fill="#221F1F"/>
<path d="M63.6752 11.9456C63.4719 12.6016 62.934 13.0804 62.1731 13.146C61.9435 12.8967 61.8845 12.8115 61.6418 12.5491C62.0485 12.5228 62.606 12.2933 62.8422 11.9522H62.5601C61.9566 11.9522 61.5762 11.4077 61.5762 10.9092C61.5762 10.0565 62.2584 9.82031 62.6847 9.82031C62.8094 9.82031 63.6949 9.87935 63.7539 10.7124C63.7539 10.7321 63.7539 10.8436 63.7539 11.2568H64.4164V11.9587H63.6752V11.9456ZM62.9668 10.7911C62.9668 10.5878 62.934 10.3844 62.6716 10.3844C62.4289 10.3844 62.3043 10.614 62.3043 10.837C62.3043 11.0601 62.4158 11.2503 62.6519 11.2503H62.9733V10.7911H62.9668Z" fill="#221F1F"/>
<path d="M66.9088 11.9445C66.5874 11.9445 66.2725 11.8855 65.9774 11.7739C65.6887 11.8789 65.387 11.9445 65.0656 11.9445H64.3047V11.2426H64.7639C64.9082 11.2426 65.0525 11.2426 65.1771 11.2229C64.9475 10.9671 64.8623 10.7047 64.8623 10.4817C64.8623 9.83232 65.4001 9.49123 65.9774 9.49123C66.5546 9.49123 67.0925 9.83232 67.0925 10.4817C67.0925 10.6982 67.0072 10.9606 66.7842 11.2229C66.9482 11.2492 67.0597 11.2426 67.204 11.2426H67.6435V11.9445H66.9088ZM65.1574 9.0583V8.40234H65.8199V9.0583H65.1574ZM65.9774 10.075C65.7543 10.075 65.6232 10.2456 65.6232 10.4752C65.6232 10.8228 65.9511 11.0327 65.9774 11.0327C66.0036 11.0327 66.3316 10.8228 66.3316 10.4752C66.3316 10.2521 66.207 10.075 65.9774 10.075ZM66.1086 9.0583V8.40234H66.7711V9.0583H66.1086Z" fill="#221F1F"/>
<path d="M67.5332 11.9443V11.2425H70.0389C69.9078 10.7833 69.5667 10.5078 69.1665 10.5078C68.6877 10.5078 68.4122 10.7571 68.4122 10.7571L68.1039 10.2061C68.1957 10.1077 68.563 9.8125 69.1665 9.8125C70.38 9.8125 70.8589 10.9473 70.8589 11.9378H67.5332V11.9443Z" fill="#221F1F"/>
<path d="M75.8168 11.9449H74.0785C72.76 11.9449 72.4648 10.7642 72.4648 9.81309H73.2389C73.2389 10.5871 73.4488 11.2431 74.1178 11.2431H75.5347C75.62 11.2431 75.6659 11.1971 75.6659 11.0397C75.6528 10.515 75.6462 10.4297 75.6397 9.80653H76.4202C76.4334 10.3969 76.4334 10.8298 76.4334 11.3415C76.4334 11.7678 76.1447 11.9384 75.8233 11.9384L75.8168 11.9449ZM73.639 9.68846V9.03906H74.3081V9.68846H73.639ZM74.5836 9.68846V9.03906H75.2592V9.68846H74.5836Z" fill="#221F1F"/>
<path d="M77.1825 11.9445L77.1562 8.31055H77.9368L77.9631 11.9445H77.1825Z" fill="#221F1F"/>
<path d="M78.6387 11.9456L79.0191 11.2437H80.5213C80.4622 10.7452 80.0227 10.4828 79.7538 10.4828V9.82031C80.6 9.82031 81.1379 10.3123 81.3018 11.2437H81.925V11.9456H78.6387Z" fill="#221F1F"/>
<path d="M82.698 11.9443H81.8125V11.2425H82.475C82.6456 11.2425 82.7636 11.1572 82.7636 10.9735C82.7636 10.58 82.7636 10.193 82.7505 9.8125H83.5311C83.5311 10.4488 83.5442 10.6062 83.5442 11.1572C83.5442 11.6295 83.249 11.9378 82.6915 11.9378L82.698 11.9443ZM81.8453 13.0398V12.3838H82.5144V13.0398H81.8453ZM82.7964 13.0398V12.3838H83.4655V13.0398H82.7964Z" fill="#221F1F"/>
<path d="M84.7847 11.4589V9.8125H85.5587L85.5784 11.3933C85.5391 12.3576 84.9618 13.0529 83.9779 13.1316C83.7483 12.8824 83.7024 12.8036 83.4531 12.5347C84.0304 12.4888 84.7847 12.0952 84.7847 11.4524V11.4589Z" fill="#221F1F"/>
<path d="M88.392 11.9456C88.1887 12.6016 87.6508 13.0804 86.8899 13.146C86.6603 12.8967 86.6013 12.8115 86.3586 12.5491C86.7652 12.5228 87.3228 12.2933 87.559 11.9522H87.2769C86.6734 11.9522 86.293 11.4077 86.293 10.9092C86.293 10.0565 86.9752 9.82031 87.4015 9.82031C87.5262 9.82031 88.4117 9.87935 88.4707 10.7124C88.4707 10.7321 88.4707 10.8436 88.4707 11.2568H89.1332V11.9587H88.392V11.9456ZM87.6902 10.7911C87.6902 10.5878 87.6573 10.3844 87.395 10.3844C87.1523 10.3844 87.0276 10.614 87.0276 10.837C87.0276 11.0601 87.1391 11.2503 87.3753 11.2503H87.6967V10.7911H87.6902Z" fill="#221F1F"/>
<path d="M91.1789 11.9446C90.8771 11.9446 90.6935 11.7544 90.6016 11.6167C90.4442 11.8266 90.1753 11.9446 89.9063 11.9446C89.5915 11.9446 89.3422 11.9446 89.0273 11.9446V11.2428H89.6833C89.8342 11.2428 90.0441 11.1509 90.0441 10.9541L90.031 9.80623H90.8115C90.8115 10.108 90.8115 10.4359 90.8247 10.7377C90.8247 11.0919 91.087 11.2362 91.2248 11.2362H91.7561V11.9381H91.1789V11.9446ZM89.598 9.38642V8.73047H90.2736V9.38642H89.598ZM90.5492 9.38642V8.73047H91.2248V9.37986H90.5492V9.38642Z" fill="#221F1F"/>
<path d="M92.5379 11.9452H91.6523V11.2434H92.3149C92.4854 11.2434 92.5969 11.1581 92.5969 10.9744C92.5969 10.5808 92.5772 8.6917 92.5772 8.30469H93.3644C93.3644 8.94752 93.3841 10.6071 93.3841 11.1581C93.3841 11.6304 93.0889 11.9387 92.5313 11.9387L92.5379 11.9452Z" fill="#221F1F"/>
<path d="M96.5849 13.1646C95.7059 13.1646 95.0041 12.4562 95.0041 11.5969C95.0041 11.4329 94.9844 10.7769 94.9844 10.4358H95.765C95.765 10.7376 95.7781 11.4788 95.7781 11.5969C95.7781 12.0495 96.1454 12.4168 96.5849 12.4168C97.0244 12.4168 97.3983 12.0495 97.3917 11.5969L97.372 8.31055H98.1592L98.1723 11.6034C98.1723 12.4562 97.4704 13.1646 96.5915 13.1646H96.5849Z" fill="#221F1F"/>
<path d="M101.315 11.9452C100.987 11.9452 100.803 11.755 100.665 11.5057C100.39 11.7878 99.9373 11.9452 99.4256 11.9452H98.75V11.2434H99.196C99.5765 11.2434 100.173 11.1122 100.173 10.5612C100.173 10.5612 100.173 10.5021 100.147 8.30469H100.934C100.954 10.0364 100.961 10.5808 100.961 10.7448C100.961 11.099 101.223 11.2434 101.361 11.2434H101.892V11.9452H101.315ZM99.0321 10.876H98.8812L98.8484 8.31125H99.629L99.6552 10.6661C99.524 10.8629 99.2944 10.876 99.0321 10.876Z" fill="#221F1F"/>
<path d="M101.786 11.945V11.2431H102.953C102.763 11.0267 102.671 10.6462 102.803 10.2723C102.553 10.3576 102.442 10.4232 102.442 10.4232C102.442 10.4232 102.383 10.2526 102.238 9.85906C102.337 9.81314 102.967 9.47205 103.773 9.47861C105.138 9.49173 105.754 10.3773 105.958 11.2497H106.535V11.9516C104.679 11.9516 106.535 11.9516 101.779 11.9516L101.786 11.945ZM103.78 10.1346C103.609 10.1346 103.413 10.3051 103.413 10.6265C103.413 10.9479 103.623 11.1185 103.8 11.1185C104.01 11.1185 104.167 10.9479 104.167 10.6265C104.167 10.3051 103.97 10.1346 103.78 10.1346ZM104.816 10.4757C104.882 10.7118 104.816 11.0988 104.685 11.2497H105.276C105.203 10.9611 105.026 10.6265 104.816 10.4757Z" fill="#221F1F"/>
<path d="M107.329 11.9452H106.443V11.2434H107.106C107.276 11.2434 107.394 11.1581 107.394 10.9744C107.394 10.5808 107.375 8.6917 107.375 8.30469H108.162C108.162 8.94752 108.182 10.6071 108.182 11.1581C108.182 11.6304 107.886 11.9387 107.329 11.9387V11.9452Z" fill="#221F1F"/>
<path d="M108.931 11.9445L108.904 8.31055H109.685L109.711 11.9445H108.931Z" fill="#221F1F"/>
<path d="M113.398 11.9445C112.925 11.9445 112.696 11.5313 112.683 11.387H112.171C111.502 11.387 111.318 10.7113 111.318 10.4096C111.318 9.62901 111.85 9.39287 112.21 9.39287C112.394 9.39287 112.545 9.43223 112.67 9.54374V9.39287H113.45V10.9803C113.45 11.1115 113.509 11.2492 113.706 11.2492H114.342V11.9511H113.404L113.398 11.9445ZM111.699 8.9665V8.31055H112.374V8.9665H111.699ZM112.663 10.1997C112.558 10.0882 112.506 10.0554 112.355 10.0554C112.237 10.0554 112.099 10.1407 112.079 10.403C112.066 10.5014 112.138 10.7376 112.322 10.7376H112.67V10.1997H112.663ZM112.65 8.9665V8.31055H113.326V8.9665H112.65Z" fill="#221F1F"/>
<path d="M119.168 11.945C118.913 11.945 118.735 11.8007 118.631 11.6761C118.48 11.886 118.224 11.9778 117.929 11.991C117.692 11.991 117.404 11.945 117.181 11.6695C117.01 11.886 116.761 11.9778 116.466 11.991C116.295 11.991 116.092 11.9647 115.908 11.8467V11.945H114.242V11.2432H115.128L115.115 9.97063H115.902C115.902 10.4429 115.902 10.502 115.902 10.7906C115.902 11.1448 116.112 11.276 116.328 11.276C116.486 11.276 116.577 11.2104 116.577 11.0136C116.577 10.6791 116.577 10.2986 116.564 9.96407H117.345C117.345 10.2855 117.365 10.7906 117.365 10.7906C117.365 11.1448 117.574 11.276 117.791 11.276C117.942 11.276 118.04 11.2104 118.04 11.0136C118.04 10.4823 118.04 10.4298 118.027 9.80664H118.814C118.814 10.2855 118.814 10.4429 118.814 10.7381C118.827 11.0989 119.083 11.2432 119.214 11.2432H119.693V11.945H119.162H119.168Z" fill="#221F1F"/>
<path d="M123.302 11.991C123.072 11.991 122.777 11.945 122.56 11.6695C122.39 11.886 122.134 11.9778 121.839 11.991C121.668 11.991 121.465 11.9647 121.281 11.8467V11.945H119.615V11.2432H120.501V9.97063H121.281C121.281 10.4429 121.281 10.502 121.281 10.7906C121.294 11.1448 121.491 11.276 121.714 11.276C121.865 11.276 121.964 11.2104 121.964 11.0136C121.964 10.6791 121.964 10.2986 121.964 9.96407H122.744C122.744 10.2855 122.744 10.7906 122.744 10.7906C122.744 11.1448 122.954 11.276 123.177 11.276C123.328 11.276 123.426 11.2104 123.426 11.0136C123.426 10.4823 123.426 10.4298 123.426 9.80664H124.207C124.207 10.4364 124.227 10.5151 124.22 11.0464C124.22 11.6827 123.846 11.9713 123.328 11.9778L123.302 11.991Z" fill="#221F1F"/>
<path d="M127.015 11.9459C126.812 12.6018 126.274 13.0807 125.513 13.1462C125.283 12.897 125.224 12.8117 124.982 12.5493C125.388 12.5231 125.946 12.2935 126.182 11.9524H125.9C125.296 11.9524 124.916 11.408 124.916 10.9094C124.916 10.0567 125.598 9.82057 126.025 9.82057C126.149 9.82057 127.035 9.8796 127.094 10.7127C127.094 10.7323 127.094 10.8439 127.094 11.2571H127.756V11.959H127.015V11.9459ZM126.366 8.98095C126.333 8.88255 126.267 8.8432 126.195 8.8432C126.123 8.8432 126.064 8.90223 126.064 8.98751C126.064 9.0531 126.103 9.15805 126.234 9.15805H126.549V9.56474H125.296L125.5 9.15805H125.729C125.67 9.07934 125.67 8.96783 125.67 8.93503C125.67 8.68577 125.841 8.48242 126.11 8.48242C126.28 8.48242 126.431 8.54146 126.569 8.712C126.569 8.72512 126.372 8.98751 126.372 8.98751L126.366 8.98095ZM126.313 10.7914C126.313 10.588 126.28 10.3847 126.018 10.3847C125.775 10.3847 125.651 10.6143 125.651 10.8373C125.651 11.0603 125.762 11.2505 125.998 11.2505H126.32V10.7914H126.313Z" fill="#221F1F"/>
<path d="M129.39 11.9453H127.658V11.2435H128.314C128.275 11.1188 128.255 10.9942 128.255 10.8565C128.255 10.2333 128.642 9.76758 129.39 9.76758C130.138 9.76758 130.525 10.2399 130.525 10.8499C130.525 11.4599 130.138 11.9388 129.39 11.9388V11.9453ZM129.39 10.3776C129.101 10.3776 129.016 10.6269 129.016 10.8565C129.016 11.086 129.101 11.3287 129.39 11.3287C129.679 11.3287 129.764 11.0795 129.764 10.8565C129.764 10.6203 129.672 10.3776 129.39 10.3776Z" fill="#221F1F"/>
</g>
<defs>
<clipPath id="clip0_2736_5266">
<rect width="130.049" height="40" fill="white" transform="translate(0.474609)"/>
</clipPath>
</defs>
</svg>
