<svg width="65" height="40" viewBox="0 0 65 40" fill="none" xmlns="http://www.w3.org/2000/svg">
<g clip-path="url(#clip0_2736_5015)">
<path d="M3.45074 31.6933C2.89694 31.6933 2.61818 31.2064 2.60703 31.0317H2.0012C1.20952 31.0317 0.990234 30.2326 0.990234 29.8758C0.990234 28.9577 1.61837 28.6752 2.0458 28.6752C2.26509 28.6752 2.4435 28.7198 2.58845 28.8537V28.6752H3.5065L3.51393 30.5485C3.51393 30.7009 3.58083 30.8644 3.81127 30.8644H4.56578V31.6896H3.45818L3.45074 31.6933ZM1.44368 28.1735V27.4004H2.24279V28.1735H1.44368ZM2.58473 29.6305C2.45836 29.5004 2.39889 29.4595 2.22049 29.4595C2.08297 29.4595 1.91571 29.5598 1.89713 29.8683C1.88598 29.9873 1.96403 30.266 2.1796 30.266H2.58845L2.58102 29.6305H2.58473ZM2.56615 28.1735V27.4004H3.36526V28.1735H2.56615Z" fill="#253169"/>
<path d="M4.43945 31.6923V30.8672H5.95962V31.6923H4.43945Z" fill="#253169"/>
<path d="M8.37469 31.694C8.01788 31.694 7.79859 31.471 7.69452 31.3037C7.50868 31.5528 7.19275 31.694 6.87683 31.694C6.50515 31.7014 6.21152 31.694 5.83984 31.694V30.8689H6.61293C6.79134 30.8689 7.03665 30.7648 7.03665 30.5306L7.0255 29.1777H7.95098C7.95841 29.5345 7.95841 29.9248 7.96584 30.2816C7.97328 30.6979 8.27434 30.8689 8.43416 30.8689H9.06229V31.694H8.38212H8.37469ZM6.5609 32.9874V32.2143H7.36001V32.9874H6.5609ZM7.68337 32.9874V32.2143H8.48248V32.9874H7.68337Z" fill="#253169"/>
<path d="M9.98192 31.6935H8.9375V30.8683H9.72174C9.91873 30.8683 10.06 30.768 10.06 30.5524C10.06 30.0915 10.0414 27.8577 10.034 27.4043H10.9631C10.9706 28.1625 10.9817 30.125 10.9817 30.7717C10.9817 31.3329 10.6324 31.6972 9.9782 31.6972L9.98192 31.6935Z" fill="#253169"/>
<path d="M13.3086 31.6942H12.9778C12.2642 31.6942 11.8145 31.0549 11.8145 30.4676C11.8145 29.4641 12.621 29.1816 13.1228 29.1816C13.2677 29.1816 14.3827 29.2485 14.3827 30.2298V30.3413C14.3827 30.4453 14.3902 30.6386 14.3902 30.9806C14.3902 32.0882 13.7026 33.0062 12.5206 33.1066C12.2493 32.8092 12.1824 32.7089 11.8925 32.4004C12.3757 32.3669 13.0298 32.0956 13.3049 31.6942H13.3086ZM13.4684 30.1666C13.4684 30.0216 13.3421 29.8432 13.119 29.8432C12.8366 29.8432 12.6916 30.1146 12.6916 30.3784C12.6916 30.6423 12.8217 30.8691 13.093 30.8691H13.4684V30.1703V30.1666Z" fill="#253169"/>
<path d="M15.1875 31.6924L15.6372 30.8673H17.4064C17.3321 30.28 16.8192 29.9678 16.5032 29.9678V29.1836C17.4993 29.1836 18.1349 29.7634 18.3319 30.8673H19.0641V31.6924H15.1875Z" fill="#253169"/>
<path d="M19.9839 31.6935H18.9395V30.8683H19.7237C19.9207 30.8683 20.0619 30.768 20.0619 30.5524C20.0619 30.0915 20.0433 27.8577 20.0359 27.4043H20.9651C20.9725 28.1625 20.9837 30.125 20.9837 30.7717C20.9837 31.3329 20.6343 31.6972 19.9802 31.6972L19.9839 31.6935Z" fill="#253169"/>
<path d="M21.8792 31.6935L21.8457 27.4043H22.7712L22.8046 31.6935H21.8792Z" fill="#253169"/>
<path d="M28.4544 31.6923C27.8783 31.6923 27.5884 31.421 27.4322 31.1162H26.1834C25.7857 31.1162 25.5813 31.3355 25.5813 31.6923C25.5813 32.0491 25.8972 32.2721 26.1834 32.2721H27.1684V33.0973H26.031C25.2245 33.0973 24.6855 32.4617 24.6855 31.696C24.6855 30.9898 25.1873 30.2911 26.031 30.2911H27.1275C27.0011 29.6852 26.5811 29.57 26.3023 29.5663C25.9716 29.5663 25.6631 29.8042 25.5553 29.8971L25.217 29.2095C25.217 29.2095 25.7039 28.7598 26.3841 28.7598C27.5066 28.7598 27.882 29.57 28.0418 30.3394C28.1199 30.6888 28.3837 30.8672 28.7145 30.8672C29.0974 30.8672 28.7591 30.8672 28.997 30.8672L29.0044 31.6923H28.4506H28.4544ZM26.254 32.0863V31.3132H27.0531V32.0863H26.254Z" fill="#253169"/>
<path d="M28.8359 31.6923V30.8672H30.3561V31.6923H28.8359Z" fill="#253169"/>
<path d="M30.2344 31.6923V30.8672H31.7545V31.6923H30.2344Z" fill="#253169"/>
<path d="M34.1696 31.694C33.8128 31.694 33.5935 31.471 33.4894 31.3037C33.3036 31.5528 32.9877 31.694 32.6717 31.694C32.3038 31.7014 32.0064 31.694 31.6348 31.694V30.8689H32.4079C32.5863 30.8689 32.8316 30.7648 32.8316 30.5306L32.8167 29.1777H33.7422C33.7496 29.5345 33.7496 29.9248 33.757 30.2816C33.7645 30.6979 34.0655 30.8689 34.2254 30.8689H34.8535V31.694H34.1733H34.1696ZM32.3521 32.9874V32.2143H33.1512V32.9874H32.3521ZM33.4746 32.9874V32.2143H34.2737V32.9874H33.4746Z" fill="#253169"/>
<path d="M37.2653 31.6933C36.9085 31.6933 36.6892 31.4703 36.5851 31.303C36.3993 31.552 36.0834 31.6933 35.7675 31.6933H34.7305V30.8681H35.5036C35.682 30.8681 35.9273 30.7641 35.9273 30.5299L35.9161 27.4004H36.8416C36.849 27.7572 36.849 29.9204 36.8565 30.2772C36.8639 30.6935 37.165 30.8644 37.3248 30.8644H37.9529V31.6896H37.2727L37.2653 31.6933Z" fill="#253169"/>
<path d="M37.8281 31.6927V30.8676H40.7272C40.5674 30.3249 40.166 30.0016 39.6977 30.0016C39.103 30.0016 38.8056 30.2989 38.8056 30.2989L38.4414 29.6448C38.5529 29.5147 38.9506 29.1839 39.6939 29.1839C40.783 29.1839 41.3777 29.9681 41.5969 30.8676H42.2845V31.6927H37.8281ZM39.2851 28.6598V27.8867H40.0842V28.6598H39.2851Z" fill="#253169"/>
<path d="M43.2124 31.6935H42.168V30.8683H42.9522C43.1492 30.8683 43.2904 30.768 43.2904 30.5524C43.2904 30.0915 43.2719 27.8577 43.2644 27.4043H44.1936C44.201 28.1625 44.2122 30.125 44.2122 30.7717C44.2122 31.3329 43.8628 31.6972 43.2087 31.6972L43.2124 31.6935Z" fill="#253169"/>
<path d="M45.1077 31.6935L45.0742 27.4043H45.9997L46.0331 31.6935H45.1077Z" fill="#253169"/>
<path d="M53.1953 31.6934C52.6081 31.6934 52.3627 31.318 52.1769 30.8757C51.965 30.374 51.6491 29.9317 51.1659 29.9391C50.824 29.9391 50.6047 30.1361 50.5006 30.3888H51.7235V31.2585C51.7235 32.2955 50.8909 33.1318 49.8614 33.1318C48.8318 33.1318 47.9992 32.2881 47.9918 31.2585C47.9918 31.069 47.9918 30.7977 47.9844 30.3888H48.9024C48.9099 30.8125 48.9099 31.0876 48.9099 31.2585C48.9099 31.9239 49.4637 32.2361 49.8465 32.2361C50.2813 32.2361 50.824 31.9276 50.8054 31.2585V31.2177L49.393 31.2102C49.393 29.7718 50.1141 29.0508 51.1362 29.0508C52.2178 29.0508 52.6081 29.7756 53.0095 30.5486C53.1098 30.727 53.1953 30.8646 53.4703 30.8646H53.7603V31.6897H53.1916L53.1953 31.6934ZM48.8095 34.4178V33.6522H49.6086V34.4178H48.8095ZM49.932 34.4178V33.6522H50.7311V34.4178H49.932Z" fill="#253169"/>
<path d="M53.6465 31.6923V30.8672H55.1667V31.6923H53.6465Z" fill="#253169"/>
<path d="M55.043 31.6923V30.8672H56.5631V31.6923H55.043Z" fill="#253169"/>
<path d="M58.9802 31.694C58.6233 31.694 58.4041 31.471 58.3 31.3037C58.1141 31.5528 57.7982 31.694 57.4823 31.694C57.1106 31.7014 56.817 31.694 56.4453 31.694V30.8689H57.2184C57.3968 30.8689 57.6421 30.7648 57.6421 30.5306L57.631 29.1777H58.5564C58.5639 29.5345 58.5639 29.9248 58.5713 30.2816C58.5787 30.6979 58.8798 30.8689 59.0396 30.8689H59.6678V31.694H58.9876H58.9802ZM57.7053 32.9874V32.2143H58.5044V32.9874H57.7053Z" fill="#253169"/>
<path d="M59.5488 31.6927V30.8676H60.4334L60.4223 27.7715H61.3069L61.2734 29.6596C61.7826 29.2768 62.329 29.1578 62.6077 29.1839C63.9867 29.3177 64.113 30.6631 64.113 31.6927H59.5525H59.5488ZM62.4107 29.9681C62.1134 29.9681 61.6116 30.1725 61.1508 30.8676H63.169C63.1504 30.4662 62.972 29.9681 62.4107 29.9681ZM62.0279 28.6598V27.8941H62.8196V28.6598H62.0279Z" fill="#253169"/>
<path d="M3.90708 36.6919H4.84371V38.3273C4.40141 38.6358 3.69522 38.8588 3.1154 38.8588C1.84798 38.8588 0.896484 37.9482 0.896484 36.7402C0.896484 35.5323 1.874 34.6328 3.18602 34.6328C3.80672 34.6328 4.46459 34.8707 4.89202 35.2498L4.27504 36.008C3.9777 35.7293 3.5577 35.5509 3.17859 35.5509C2.50957 35.5509 2.0078 36.0675 2.0078 36.7402C2.0078 37.413 2.517 37.937 3.18974 37.937C3.39788 37.937 3.65805 37.8664 3.90708 37.74V36.6919Z" fill="#253169"/>
<path d="M9.02556 35.6113V38.8152H7.97371V38.2948C7.75442 38.6665 7.40505 38.8561 6.9516 38.8635C6.26028 38.8635 5.81055 38.384 5.81055 37.637V35.6113H6.8624V37.3322C6.8624 37.6927 7.0631 37.912 7.37903 37.912C7.75071 37.9046 7.97743 37.611 7.97743 37.191V35.6113H9.02928H9.02556Z" fill="#253169"/>
<path d="M11.2589 34.4219V38.8151H10.207V34.4219H11.2589Z" fill="#253169"/>
<path d="M13.6746 35.5548V35.763H14.3845V36.4617H13.6746V38.8107H12.6265V36.4617H12.1953V35.763H12.6265V35.4656C12.6265 34.7594 13.158 34.3654 13.8567 34.3692C14.1764 34.3692 14.5257 34.4509 14.7673 34.5922L14.3994 35.3392C14.2879 35.2575 14.1429 35.2092 14.0314 35.2092C13.8233 35.2092 13.6709 35.3207 13.6709 35.5511L13.6746 35.5548Z" fill="#253169"/>
<path d="M21.2045 36.7343C21.2045 37.972 20.2976 38.812 18.9559 38.812H17.209V34.6641H18.9968C20.3125 34.6641 21.2045 35.5041 21.2045 36.7343ZM20.0969 36.7492C20.0969 36.0318 19.6286 35.5487 18.9707 35.5487H18.2906V37.9385H19.0228C19.6509 37.9385 20.0932 37.4591 20.0932 36.7492H20.0969Z" fill="#253169"/>
<path d="M25.3973 36.7928V38.811H24.3418V37.0939C24.3418 36.7333 24.1336 36.5066 23.7991 36.5066C23.4089 36.514 23.171 36.8077 23.171 37.2277V38.8073H22.1191V34.4141H23.171V36.1238C23.394 35.7558 23.762 35.5625 24.2303 35.5625C24.9327 35.5625 25.3973 36.0346 25.3973 36.7891V36.7928Z" fill="#253169"/>
<path d="M29.2971 36.7301V38.8153H28.2601V38.4547C28.0519 38.7223 27.7286 38.8636 27.2937 38.8636C26.6061 38.8636 26.1973 38.4473 26.1973 37.8638C26.1973 37.2802 26.6284 36.9048 27.4238 36.8937H28.2601V36.8565C28.2601 36.5555 28.0519 36.377 27.6505 36.377C27.3829 36.377 27.0335 36.4662 26.6916 36.6335L26.4017 35.9236C26.9035 35.6969 27.3681 35.5742 27.8921 35.5742C28.773 35.5742 29.2896 36.0016 29.2933 36.7339L29.2971 36.7301ZM28.2638 37.73V37.4512H27.6357C27.3383 37.4512 27.1934 37.559 27.1934 37.782C27.1934 38.005 27.3532 38.1425 27.6245 38.1425C27.9367 38.1425 28.1969 37.9715 28.2638 37.7262V37.73Z" fill="#253169"/>
<path d="M33.8672 37.2279C33.8672 38.2054 33.2874 38.8484 32.3991 38.8484C31.9902 38.8484 31.6594 38.6885 31.4327 38.3986V38.8112H30.3809V34.418H31.4327V36.0236C31.6557 35.7337 31.9754 35.5739 32.3731 35.5739C33.2651 35.5739 33.8635 36.2318 33.8635 37.2241L33.8672 37.2279ZM32.8079 37.2018C32.8079 36.7261 32.5292 36.4027 32.1166 36.4027C31.704 36.4027 31.4364 36.7261 31.4364 37.2018C31.4364 37.6776 31.7152 37.9935 32.1166 37.9935C32.518 37.9935 32.8079 37.6739 32.8079 37.2018Z" fill="#253169"/>
<path d="M35.804 35.611V38.8148H34.7559V35.611H35.804ZM35.7631 34.7115C35.7631 34.9903 35.5624 35.191 35.2836 35.191C35.0049 35.191 34.8042 34.9903 34.8042 34.7115C34.8042 34.4327 35.0049 34.2246 35.2836 34.2246C35.5624 34.2246 35.7631 34.4253 35.7631 34.7115Z" fill="#253169"/>
<path d="M42.2681 34.6641V35.5561H41.0267V38.812H39.9451V35.5561H38.7148V34.6641H42.2718H42.2681Z" fill="#253169"/>
<path d="M45.0404 35.5703V36.533C44.4531 36.4735 44.0629 36.7337 44.0108 37.1797V38.8151H42.959V35.6112H44.0108V36.1427C44.2301 35.7747 44.5907 35.5703 45.0404 35.5703Z" fill="#253169"/>
<path d="M48.6018 36.7301V38.8153H47.5648V38.4547C47.3566 38.7223 47.0333 38.8636 46.5984 38.8636C45.9108 38.8636 45.502 38.4473 45.502 37.8638C45.502 37.2802 45.9331 36.9048 46.7285 36.8937H47.5648V36.8565C47.5648 36.5555 47.3566 36.377 46.9552 36.377C46.6876 36.377 46.3382 36.4662 45.9963 36.6335L45.7064 35.9236C46.2081 35.6969 46.6727 35.5742 47.1968 35.5742C48.0777 35.5742 48.5943 36.0016 48.598 36.7339L48.6018 36.7301ZM47.5685 37.73V37.4512H46.9403C46.643 37.4512 46.4981 37.559 46.4981 37.782C46.4981 38.005 46.6579 38.1425 46.9292 38.1425C47.2414 38.1425 47.5016 37.9715 47.5685 37.7262V37.73Z" fill="#253169"/>
<path d="M52.8904 34.4219V38.8151H51.8386V38.4025C51.6193 38.6999 51.296 38.8597 50.8908 38.8597C49.9914 38.8597 49.4004 38.1981 49.4004 37.202C49.4004 36.2059 49.9876 35.5815 50.8685 35.5815C51.2848 35.5815 51.6156 35.7488 51.8386 36.0387V34.4293H52.8904V34.4219ZM51.8349 37.228C51.8349 36.7486 51.5561 36.4289 51.1473 36.4289C50.7384 36.4289 50.456 36.7523 50.456 37.228C50.456 37.7038 50.7347 38.0272 51.1473 38.0272C51.5598 38.0272 51.8349 37.7038 51.8349 37.228Z" fill="#253169"/>
<path d="M55.1165 35.611V38.8148H54.0684V35.611H55.1165ZM55.0756 34.7115C55.0756 34.9903 54.8749 35.191 54.5961 35.191C54.3174 35.191 54.1167 34.9903 54.1167 34.7115C54.1167 34.4327 54.3174 34.2246 54.5961 34.2246C54.8749 34.2246 55.0756 34.4253 55.0756 34.7115Z" fill="#253169"/>
<path d="M59.5364 36.7928V38.811H58.4883V37.0938C58.4883 36.7333 58.2764 36.5066 57.9456 36.5066C57.5888 36.514 57.3584 36.7556 57.3175 37.1161V38.8073H56.2656V35.6034H57.3175V36.1237C57.5405 35.7558 57.9084 35.5625 58.3768 35.5625C59.0755 35.5625 59.5364 36.0345 59.5364 36.789V36.7928Z" fill="#253169"/>
<path d="M63.6646 35.6114V38.5291C63.6646 39.436 62.9621 40.0046 61.9251 40.0046C61.3639 40.0046 60.8547 39.8262 60.4942 39.5921L60.8621 38.8636C61.1521 39.0643 61.5089 39.1758 61.8508 39.1758C62.3303 39.1758 62.6202 38.9342 62.6202 38.5588V38.2169C62.412 38.4882 62.1036 38.6368 61.7096 38.6368C60.9105 38.6368 60.3418 38.0199 60.3418 37.0907C60.3418 36.1615 60.8919 35.5742 61.6836 35.5742C62.085 35.5742 62.4046 35.7303 62.6202 36.0016V35.6114H63.6683H63.6646ZM62.6165 37.1204C62.6165 36.6707 62.3563 36.3696 61.9697 36.3696C61.5832 36.3696 61.3193 36.6781 61.3193 37.1204C61.3193 37.5627 61.5795 37.8675 61.9697 37.8675C62.36 37.8675 62.6165 37.559 62.6165 37.1204Z" fill="#253169"/>
<path d="M45.6619 6.25195C44.5246 7.44132 43.0825 8.95777 41.2501 9.35918C39.8897 9.65652 37.7303 9.84236 36.1655 10.4891C35.5411 10.7455 35.0133 11.0801 34.6639 11.5186C34.0507 12.2992 34.0544 12.7006 34.2105 12.9087C34.5673 13.0165 34.9204 13.2023 35.1954 13.5183C35.3813 13.325 36.2659 12.5036 37.8455 12.5333C37.8455 12.5333 38.3398 12.2992 38.6186 12.3512C38.6818 12.4255 38.7413 12.5036 38.8007 12.5816C38.7524 13.1875 37.4701 16.1051 35.6266 15.4993C35.1992 17.6773 32.8502 20.6582 32.4971 20.6582C32.144 20.6582 29.795 17.6736 29.3675 15.4993C28.6316 15.7409 27.9886 15.4213 27.472 14.9121C26.632 14.0795 26.1451 12.7452 26.1971 12.511C26.2789 12.1282 27.1486 12.537 27.1486 12.537C27.6913 12.5259 28.1521 12.6188 28.5313 12.7489C29.256 12.9979 29.676 13.3956 29.7987 13.522C30.0737 13.2023 30.4231 13.0165 30.7836 12.9124C30.9397 12.7043 30.9434 12.2992 30.3302 11.5223C30.2447 11.4146 30.1481 11.3105 30.0403 11.2139C28.6316 9.94643 25.5132 9.74573 23.7478 9.3629C21.9154 8.96149 20.4733 7.44876 19.3359 6.25567C19.414 6.32257 21.8931 8.52662 24.3647 8.61211C25.5244 8.65299 29.282 8.95405 31.2594 10.5077C32.0064 11.0949 32.5008 11.8606 32.5008 12.8641C32.5008 11.567 33.3296 10.6638 34.467 10.0319C36.5261 8.89087 39.6035 8.64928 40.6331 8.61211C43.101 8.52662 45.5838 6.32629 45.6619 6.25567V6.25195Z" fill="url(#paint0_linear_2736_5015)"/>
<path d="M38.7993 12.582C38.7398 12.504 38.6804 12.4259 38.6172 12.3516C38.7101 12.3664 38.777 12.4147 38.7956 12.5077C38.7956 12.5263 38.7993 12.5486 38.7956 12.5783L38.7993 12.582Z" fill="url(#paint1_linear_2736_5015)"/>
<path d="M47.5495 0.63557V16.7553L47.0589 17.376C43.186 18.2866 33.1358 21.654 33.1358 26.2739H31.8609C31.8609 21.6503 21.8108 18.2828 17.9379 17.376L17.4473 16.7553V0.63557L18.0828 0H27.293V1.27486H18.7184V16.2572C20.9708 16.837 30.0063 19.4127 32.4965 23.9175C34.983 19.4127 44.0223 16.837 46.2746 16.2572V1.27486H37.7037V0H46.9139L47.5495 0.63557Z" fill="url(#paint2_linear_2736_5015)"/>
</g>
<defs>
<linearGradient id="paint0_linear_2736_5015" x1="15.0869" y1="0.819515" x2="35.8813" y2="22.2927" gradientUnits="userSpaceOnUse">
<stop stop-color="#283170"/>
<stop offset="0.49" stop-color="#242A53"/>
<stop offset="0.98" stop-color="#202432"/>
<stop offset="1" stop-color="#202432"/>
</linearGradient>
<linearGradient id="paint1_linear_2736_5015" x1="14.3233" y1="-0.680522" x2="35.1142" y2="20.789" gradientUnits="userSpaceOnUse">
<stop stop-color="#283170"/>
<stop offset="0.49" stop-color="#242A53"/>
<stop offset="0.98" stop-color="#202432"/>
<stop offset="1" stop-color="#202432"/>
</linearGradient>
<linearGradient id="paint2_linear_2736_5015" x1="13.5584" y1="1.24863" x2="34.3528" y2="22.7218" gradientUnits="userSpaceOnUse">
<stop stop-color="#283170"/>
<stop offset="0.49" stop-color="#242A53"/>
<stop offset="0.98" stop-color="#202432"/>
<stop offset="1" stop-color="#202432"/>
</linearGradient>
<clipPath id="clip0_2736_5015">
<rect width="63.215" height="40" fill="white" transform="translate(0.892578)"/>
</clipPath>
</defs>
</svg>
